<svg xmlns="http://www.w3.org/2000/svg" width="659.609" height="287.809" viewBox="0 0 659.609 287.809"><g transform="translate(329.805 143.904)"><g transform="translate(-329.805 -143.904)"><path class="artwork" d="M9.714,229.366a18.008,18.008,0,0,1-7.125-6.71,19.615,19.615,0,0,1,0-19.481,18.023,18.023,0,0,1,7.125-6.707,21.461,21.461,0,0,1,10.232-2.409,21.981,21.981,0,0,1,8.961,1.761,17.236,17.236,0,0,1,6.631,5.079l-6.526,5.9a10.743,10.743,0,0,0-8.547-4.247,10.577,10.577,0,0,0-5.259,1.294A9.042,9.042,0,0,0,11.63,207.5a12.2,12.2,0,0,0,0,10.83,9.007,9.007,0,0,0,3.576,3.653,10.558,10.558,0,0,0,5.259,1.293,10.733,10.733,0,0,0,8.547-4.247l6.526,5.907a17.22,17.22,0,0,1-6.631,5.075,21.924,21.924,0,0,1-8.961,1.761A21.5,21.5,0,0,1,9.714,229.366Zm70.071-34.584v36.265H69.528V216.9H55.538v14.144H45.28V194.782H55.538v13.625H69.528V194.782Zm16.6,32.588q-4.482-4.406-4.48-12.487v-20.1h10.258v19.791q0,8.7,6.89,8.7,6.835,0,6.836-8.7V194.782H126v20.1q0,8.082-4.481,12.487t-12.563,4.4Q100.87,231.772,96.389,227.37Zm48.879-24.455H134.132v-8.133h32.481v8.133H155.526v28.132H145.268Zm64.864-8.133v36.265h-8.446l-16.01-19.323v19.323H175.627V194.782h8.443l16.01,19.324V194.782Zm41.55,28.338v7.927H222.565V194.782h28.443v7.927H232.718v6.112h16.114v7.668H232.718v6.631Zm30-5.075v13H271.419v-13.16l-13.834-23.1h10.83l8.6,14.4,8.6-14.4h9.947Zm46.08,9.326q-4.482-4.406-4.481-12.487v-20.1h10.258v19.791q0,8.7,6.891,8.7,6.835,0,6.836-8.7V194.782h10.1v20.1q0,8.082-4.48,12.487t-12.563,4.4Q332.238,231.772,327.758,227.37Zm76.235-32.588v36.265h-8.446l-16.01-19.323v19.323H369.487V194.782h8.443l16.009,19.324V194.782Zm12.433,0h17.147a23.98,23.98,0,0,1,10.568,2.229,16.764,16.764,0,0,1,7.149,6.32,19.361,19.361,0,0,1,0,19.169,16.765,16.765,0,0,1-7.149,6.318,23.992,23.992,0,0,1-10.568,2.229H416.425Zm16.733,28.079a10.508,10.508,0,0,0,7.485-2.64,10.864,10.864,0,0,0,0-14.612,10.509,10.509,0,0,0-7.485-2.641h-6.475v19.893Zm84.241,8.186-.1-19.219-9.326,15.646H503.41l-9.274-15.131v18.7h-9.48V194.782H493.1l12.746,20.93,12.433-20.93h8.446l.1,36.265Zm50.976-7.927v7.927H539.259V194.782H567.7v7.927H549.412v6.112h16.114v7.668H549.412v6.631Zm45.385-28.338v36.265H603.5V216.9H589.513v14.144H579.256V194.782h10.258v13.625H603.5V194.782Zm28.285,26.631h-5.593v9.634H626.193V194.782h16.579a20.687,20.687,0,0,1,8.547,1.632,13.2,13.2,0,0,1,5.727,18.653,12.48,12.48,0,0,1-5.259,4.585l7.823,11.4H648.625Zm4.869-17.151a7.08,7.08,0,0,0-4.765-1.4h-5.7v10.621h5.7a7.167,7.167,0,0,0,4.765-1.373,4.863,4.863,0,0,0,1.607-3.911A4.947,4.947,0,0,0,646.914,204.262Zm-430.8,60.688v22.666h-2.3V269.484l-8.9,15.251h-1.135l-8.9-15.156v18.037h-2.3V264.95h1.976l9.844,16.806,9.746-16.806Zm26.454,16.611H229.936l-2.719,6.055h-2.5l10.362-22.666h2.365l10.362,22.666h-2.527Zm-.876-1.941-5.438-12.178-5.439,12.178Zm33.676-14.669v22.666h-1.976l-14.571-18.391v18.391h-2.4V264.95H258.4L273,283.341V264.95Zm14.5,20.335q-2.461-2.529-2.46-7.352V264.95h2.4v12.888q0,3.947,1.78,5.892a7.828,7.828,0,0,0,10.327,0q1.784-1.941,1.784-5.892V264.95h2.331v12.984q0,4.828-2.445,7.352a10.578,10.578,0,0,1-13.714,0ZM320.5,267.021v8.9h11.721V278H320.5v9.616h-2.4V264.95h15.545v2.072Zm36.1,14.539H343.975l-2.719,6.055h-2.5l10.362-22.666h2.365l10.362,22.666h-2.526Zm-.875-1.941-5.439-12.178-5.439,12.178Zm21.758-2.656-4.629,4.7v5.958h-2.4V264.95h2.4v13.7l13.309-13.7h2.751l-9.812,10.265,10.492,12.4h-2.849Zm23.962-9.941h-7.966V264.95h18.327v2.072h-7.965v20.594h-2.4ZM422.3,285.285q-2.462-2.529-2.46-7.352V264.95h2.4v12.888q0,3.947,1.78,5.892a7.828,7.828,0,0,0,10.327,0q1.783-1.941,1.784-5.892V264.95h2.331v12.984q0,4.828-2.445,7.352a10.578,10.578,0,0,1-13.714,0Zm43.713,2.331-5.18-7.286a16.8,16.8,0,0,1-1.815.1h-6.087v7.187h-2.4V264.95h8.484a10.258,10.258,0,0,1,6.8,2.072,7.062,7.062,0,0,1,2.46,5.7,7.024,7.024,0,0,1-5.183,7.12l5.54,7.773Zm-1.91-10.716a5.85,5.85,0,0,0,0-8.4,7.9,7.9,0,0,0-5.148-1.473h-6.024v11.367h6.024A7.83,7.83,0,0,0,464.106,276.9ZM342.032,0a8.1,8.1,0,0,1,5.037,4.8c1.221,2.77,2.712,5.421,4.012,8.159.272.573.533,1.5.263,1.925-1.814,2.842-2.623,6.072-3.752,9.178a71.06,71.06,0,0,0-3.416,15.043,19.024,19.024,0,0,0,1.707,11.758,29.629,29.629,0,0,0,6.167,7.727c1.4,1.291,3.41,1.954,5.2,2.793a70.605,70.605,0,0,1,14.47,9.539c2.517,2.051,5.117,4.006,7.541,6.161a34.911,34.911,0,0,1,4.138,4.514c4.653,5.907,7,12.841,8.62,20.054a19.522,19.522,0,0,1,.383,4.617,25.576,25.576,0,0,1-3.349,12.492,62.41,62.41,0,0,1-6.874,10.391A66.392,66.392,0,0,1,373.887,137a17.371,17.371,0,0,1-5.377,2.378,4.244,4.244,0,0,1-2.679-.07,2.263,2.263,0,0,0-2.326.359,17.4,17.4,0,0,1-8.934,2.979c-1.4.056-2.8.542-4.184.505-1.749-.046-3.486-.46-5.237-.647a5.74,5.74,0,0,0-2.048.1c-3.2.857-6.335,1.988-9.572,2.628a32.745,32.745,0,0,1-10.523.19,12.718,12.718,0,0,1-3.859-1.633c-.835-.427-1.452-.934-2.463-.145-.561.438-1.623.165-2.4.4-4.652,1.419-9.055.4-13.392-1.29a65.533,65.533,0,0,0-9.115-2.666c-5.367-1.241-10.309-3.464-13.593-8.277a27.134,27.134,0,0,0-1.856-2.309,38.427,38.427,0,0,1-6.984-13.234c-2.832-8.6-3.035-17.411.52-25.918a45.608,45.608,0,0,1,9.783-15,24.5,24.5,0,0,1,6.942-5.166,25.462,25.462,0,0,0,3.437-2.038c4.388-2.914,9.327-4.7,14.068-6.883,2.493-1.148,5.068-2.137,7.648-3.077,3.722-1.356,6.2-4.138,8.36-7.227a35.065,35.065,0,0,0,4.935-11.4,71.128,71.128,0,0,1,3.068-8.79c3-7.316,6.036-14.618,9.221-21.853C338.657,5.895,340.4,3.054,342.032,0ZM283.764,135.005c.36.695.989.816,1.559,1.062l.206-.416-1.651-.761a4.72,4.72,0,0,0-2.3-1.675l-.224.365Zm66.419,1.586a5.04,5.04,0,0,0,2.145-3.867l-2.371,3.643-1.292,1.44.441.348ZM336.737,13.3c1.963-3.442,3.935-6.878,5.866-10.338.115-.207-.1-.6-.214-1.186-.438.431-.743.618-.886.891-1.431,2.73-2.874,5.456-4.219,8.229a10.567,10.567,0,0,0-.541,2.409,1.356,1.356,0,0,0-.487,1.939Q336.5,14.271,336.737,13.3ZM367.53,121.663a4.328,4.328,0,0,0-.675.726c-1.471,2.552-2.909,5.121-4.38,7.672-.363.629-.807,1.211-1.212,1.814a2.728,2.728,0,0,0,1.506-1.063c1.625-2.18,3.222-4.381,4.829-6.574q.265-.63.531-1.26c2.313-3.081,3.128-6.763,4.207-10.361a17.831,17.831,0,0,1-.514,4.179,38.566,38.566,0,0,1-9.675,16.417c-1.152,1.146-2.16,2.436-3.549,4.018a4.437,4.437,0,0,0,.869-.3c3.1-2.963,6.574-5.592,8.394-9.667a7.386,7.386,0,0,1,.716-1.049,39.332,39.332,0,0,0,6.254-14.251,67.73,67.73,0,0,0,1.223-9.62c.133-2.37-.364-4.768-.4-7.157a35.3,35.3,0,0,0-2.687-11.907,9.63,9.63,0,0,0-.73-1.267c-.151.843-.26,1.449-.368,2.056A17.62,17.62,0,0,0,368.1,76.76c.34,2.6,1.61,5.029,1.391,7.708-1.014-3.149-1.749-6.375-3.593-9.179-1.575-2.395-5.553-6.27-7.059-6.777.4.629.721,1.159,1.06,1.68,2.168,3.334,4.08,6.81,4.752,10.769a45.417,45.417,0,0,0,1.262,5.76,39.9,39.9,0,0,1,1.779,15.26c-.135,1.548-.159,3.1-.286,4.653-.381,4.647-.907,9.264-2.751,13.622-.567,1.339-1.008,2.732-1.507,4.1l.294.171,4.171-5.647.225.191q-.2,1.343-.393,2.687Zm-71.421-45.1.051.052c.816-3.676,4.208-5.473,6-8.53l-5.5,3.42-.266-.43,7.694-5.014c-6.191,2.042-11.445,5.643-16.444,9.724a25.254,25.254,0,0,1,3.243-3.257c1.109-.971,2.241-1.915,3.364-2.871l-.342-.408L287.6,74.268l-.242-.275L292.8,69.21c-3.654,1.58-6.382,4.3-9.07,7.079l-.34-.384,6.746-6.358a26.89,26.89,0,0,0-5.895,3.192c-6.419,4.769-10.685,11.193-13.686,18.5-1.488,3.623-1.91,7.508-2.264,11.374a8.151,8.151,0,0,0,.328,3.125c.143.454.86.656.806,1.453-.368,5.345,1.883,9.892,4.507,14.306a9.82,9.82,0,0,0,1.03,1.232.857.857,0,0,0,.032-.834,32.64,32.64,0,0,1-3.372-10.212c-.318-2.151-.316-4.349-.6-6.506a18.017,18.017,0,0,1,.772-8.605,35.446,35.446,0,0,0,1.064,13.736,41.694,41.694,0,0,0,6.069,12.348c.126-.468.22-.618.184-.724-.135-.4-.309-.779-.476-1.164-1.913-4.4-3.917-8.767-4.72-13.558a23.966,23.966,0,0,1,.128-7.184c.149,4.21.413,8.375,2.286,12.251a4.918,4.918,0,0,0,.006-2.08,45.982,45.982,0,0,1-.617-14.126,29.576,29.576,0,0,1,2.513-9.8,15.614,15.614,0,0,1,1.014-1.663l.514.245c-.13.483-.238.973-.4,1.447-.731,2.2-1.6,4.373-2.173,6.616a21.691,21.691,0,0,0-.414,4.421c-.1,2.385-.144,4.772-.168,7.157a1.739,1.739,0,0,0,.346,1.191c1.336,1.2,1.194,2.917,1.638,4.421.441,1.488.738,3.022,1.25,4.482a8.561,8.561,0,0,0,1.272,1.867c-.281-3.132-.833-6.091-1.332-9.06a38.46,38.46,0,0,1-.677-10.105,64.005,64.005,0,0,1,2.961-12.75,13.814,13.814,0,0,1,3.167-5.4c.229,1.895-1.036,2.752-1.364,3.922-.382,1.356-.842,2.694-1.154,4.066-.3,1.3-.467,2.638-.659,3.964s-.383,2.652-.492,3.985-.12,2.686-.165,4.028c-.048,1.415-.155,2.832-.107,4.244a32.272,32.272,0,0,0,.412,4c.211,1.322.515,2.632.841,3.933.343,1.369.7,2.743,1.161,4.074.434,1.237,1.022,2.421,1.542,3.628l.334-.109-.659-4.435c1.088,4.485,3.431,8.361,5.713,12.237,2.3,3.9,4.7,7.779,8.852,10.118a55.99,55.99,0,0,1-10.476-16.224c-2.668-6.146-3.469-12.62-3.744-19.2-.288-6.914,1.535-16.954,3.588-19.022a8.4,8.4,0,0,1-.164,1.548C286.379,90.76,286,97.842,286.431,105a18.854,18.854,0,0,0,1.537,7.424c1.288,2.59,2.64,5.15,4,7.705a18.026,18.026,0,0,0,1.2,1.748c-1.4-4.378-3.552-8.412-3.95-13.033.464,1.191.927,2.382,1.524,3.916-.157-3.938-.272-7.445-.443-10.949a28.147,28.147,0,0,1,2.269-12.345c1.058-2.533,2.571-4.882,3.551-7.44a39.05,39.05,0,0,1,9.265-13.492,38.048,38.048,0,0,1,3.347-2.7,1.875,1.875,0,0,0-1.409.3c-2.149,1.71-4.351,3.367-6.361,5.23C299.222,72.962,297.717,74.82,296.109,76.566ZM314.3,108.753a77.63,77.63,0,0,0,2.737,13.024c.724,2.485,2.539,4.746,1.89,7.6-.064.285.189.68.372.975,1.411,2.278,2.831,4.551,4.28,6.8a3.156,3.156,0,0,0,.814.633,53.283,53.283,0,0,1-6.024-17.79l2.447,5.054a3.7,3.7,0,0,0-.063-1.915c-1.292-5.8-2.493-11.611-2.066-17.6.166-2.32.418-4.641.772-6.939.654-4.252,1.133-8.56,2.205-12.71a110.182,110.182,0,0,1,4.419-13c1.55-3.9,3.066-7.975,7.7-9.981a125.1,125.1,0,0,0-7.515,20.874,5.263,5.263,0,0,1,.107-2.091c1.5-4.619,3.051-9.221,4.58-13.83.153-.464.262-.941.393-1.413a1.283,1.283,0,0,0-.91.716c-1.8,3.759-3.616,7.509-5.359,11.294a28.609,28.609,0,0,0-1.452,3.973,133.018,133.018,0,0,0-3.724,19.933,36.67,36.67,0,0,0,.577,12.586q-.082-4.066-.165-8.132a47.516,47.516,0,0,1,.909,6.491,27.676,27.676,0,0,0,.974,6.212c.7,1.965.408,4.282,2.073,5.953A107.4,107.4,0,0,1,323.1,108.11c.162-5.782.478-11.54,2.233-17.122a85.61,85.61,0,0,0,4.19,46.723c-.74-4.45-1.928-8.806-2.462-13.328-.627-5.325-1.516-11.132-.362-13.736a23.492,23.492,0,0,0,.775,9.058,50.588,50.588,0,0,1,.776-10.082c.083,1.705-.01,3.4-.006,5.1.005,1.682.078,3.366.177,5.047.1,1.758.171,3.528.441,5.265a14.72,14.72,0,0,0,1.462,5.339,10.767,10.767,0,0,0,.033-1.321c-.592-4.028-1.432-8.043-.562-12.141a3.11,3.11,0,0,0,.021-.847c-.369-5.435.432-10.781,1.254-16.137-.849,10.542-1.072,21.048,1.444,31.415.046-2.383-.2-4.756-.207-7.13,0-2.468.149-4.944.389-7.4.223-2.282.027-4.632.8-7.258.58,7.1,1.122,13.76,1.666,20.418,1.145-13.289.522-26.543-.536-39.807a39.51,39.51,0,0,1,.891,5.523c.276,3.515.47,7.036.647,10.557.19,3.8.322,7.609.476,11.414.085,2.114.141,4.23.256,6.343a6.238,6.238,0,0,0,.385,1.356,53.609,53.609,0,0,0,1.095-6.2,17.848,17.848,0,0,1,.725-4.352,7.78,7.78,0,0,0,.619-3.034c.024-3.366.069-6.734.011-10.1a81.475,81.475,0,0,0-1.106-14.327c-.6-3.046-1.053-6.119-1.573-9.179l-.047.051c.364.213.852.343,1.061.659a5.651,5.651,0,0,1,.486,1.48,18,18,0,0,0,.266-4.987c-.237-3.656-.46-7.315-.823-10.96-.266-2.657-.755-5.292-1.121-7.941-.026-.186.151-.4.234-.6a2.2,2.2,0,0,1,.361,1.076c.59,2.5-.238,5.433,2.193,7.4.086.069.06.268.1.4.517,1.609.959,3.249,1.574,4.821a22,22,0,0,1,1.591,9.112,35.033,35.033,0,0,0,.265,4.435c.478,5.76,1.152,11.51,1.4,17.279.2,4.514-.11,9.05-.218,13.576a5.737,5.737,0,0,1-.307,1.231c-.878-3.426-.134-6.776-.2-10.124-.067-3.456-.222-6.909-.336-10.363a67.044,67.044,0,0,0-1.127-9.969c-.612-3.317-.888-6.7-1.3-9.985l.691,1.123a20.355,20.355,0,0,0-2.556-8.917c.048,1.99.37,3.937.4,5.888.039,2.809-.155,5.621-.209,8.432a26.349,26.349,0,0,0,.1,3.8,134.491,134.491,0,0,1,1.2,17.722,177.665,177.665,0,0,1-1.387,24.726c-.12.824-.063,1.674-.1,2.981.366-.634.489-.8.562-.983a33.373,33.373,0,0,0,2.419-8.959c.064-.613.037-1.316,1.178-1.263-.56,5.12-2.48,9.847-3.675,14.77a61.051,61.051,0,0,0,4.011-7.927,65.924,65.924,0,0,0,2.743-8.465c1.7-6.841,1.739-13.85,1.73-20.843a51.457,51.457,0,0,0-.454-6.318c-.458-3.642-.956-7.282-1.592-10.895-.623-3.537-1.454-7.037-2.157-10.56-.176-.88-.21-1.788-.31-2.683a57.04,57.04,0,0,1,3.888,9.635,18.189,18.189,0,0,1,.859,7.07,30.1,30.1,0,0,0,.243,6.645c.151,1.755.33,3.511.372,5.27.057,2.332-.038,4.667-.015,7a86.215,86.215,0,0,1-3.136,22.985,11.587,11.587,0,0,0-.194,1.307c2.318-4.109,3.3-8.645,4.466-13.116l.517.138q-1.1,5.016-2.2,10.033a37.464,37.464,0,0,0,4.3-16.5c.619,5.077-.451,9.9-1.969,14.7a17.257,17.257,0,0,0,1.856-4,60.108,60.108,0,0,0,2.766-14.3c.1-1.916.773-3.849-.7-5.558a.632.632,0,0,1-.054-.594c.986-1.321.2-2.554-.134-3.819-.184-.707-.479-1.471.408-2.192a26.011,26.011,0,0,1,1.627,11.5,67.368,67.368,0,0,1-3.388,16.328,2.941,2.941,0,0,0-.035.837l.265.048,2.04-3.949.267.121q-1.648,4.718-3.3,9.435a39.806,39.806,0,0,0,6.257-17.471,23.208,23.208,0,0,1-.039,3.955c-.153,1.254-.578,2.471-.784,3.72-.2,1.224-.983,2.341-.881,3.866a3.683,3.683,0,0,0,.494-.505,5.506,5.506,0,0,0,.349-.767,40.809,40.809,0,0,0,2.634-16.192c-.15-2.744-.626-5.479-.633-8.219A43.012,43.012,0,0,0,357.43,80.1a3.966,3.966,0,0,0-.4-.691l-.278.107q.27,2.478.538,4.958l-.41.044c-.273-1.5-.6-3-.809-4.517-.556-4.01-1.756-7.695-4.828-10.571-.789-.737-3.705-4.932-4.429-5.887.852-.063,3.844,3.1,4.794,3.028.546.722,1.351,1.7,2.061,2.738,3.459,5.069,6.727,10.22,7.074,16.625.073,1.332.371,2.651.508,3.982.288,2.8.6,5.609.791,8.422a45.659,45.659,0,0,1-1.028,14.518c-.912,3.539-2.326,6.948-3.5,10.42a11.958,11.958,0,0,0-.3,1.436l.511.162q1.312-2.907,2.623-5.814a14.625,14.625,0,0,1-1.156,4.015c-1.12,2.356-2.388,4.641-3.582,6.961-.267.518-.482,1.062-.72,1.594,3.381-3.874,5.579-8.4,7.863-12.9-.8,4.032-3.414,7.287-5.027,11.33a7.651,7.651,0,0,0,3.447-4,46.529,46.529,0,0,0,5.218-20.341,14.282,14.282,0,0,1,.106-2.118c1.132-6.97-.274-13.581-2.855-20.545-.041,1.387-.068,2.274-.094,3.161a45.7,45.7,0,0,0-5.459-12.991c-1.579-2.413-3.255-4.775-5.06-7.021-.562-.7-1.7-.934-2.555-1.411-.562-.312-1.091-.679-.735-1.485,1.3.7,2.569,1.368,3.823,2.066a1.491,1.491,0,0,1,.394.485c2.169,3.126,4.849,5.9,6.409,9.447.411.932.933.557,1.558-.052-1.092-1.714-2.2-3.426-3.276-5.153-1.092-1.747-3.077-2.854-3.479-5.161l2.647,2.385c-.209-1.079-.328-1.686-.493-2.536a9.425,9.425,0,0,1,.948.6c1.492,1.283,2.893,2.687,4.477,3.842a26.839,26.839,0,0,1,6.452,6.956c.871,1.3,1.3,2.955,2.977,3.639.319.13.5.662.688,1.039a33.882,33.882,0,0,1,3.186,10.493,70.637,70.637,0,0,1,.466,15.165,36.648,36.648,0,0,1-3.624,13.832,20.151,20.151,0,0,0-.755,1.923l.44.165a81.1,81.1,0,0,0,4.943-10.175,20.919,20.919,0,0,1-1.109,4.264,45.587,45.587,0,0,1-5.7,10.137,3.289,3.289,0,0,0-.335.946c4.266-4.274,6.573-9.745,9.6-14.752a13.511,13.511,0,0,0,1.3-3.792,33.6,33.6,0,0,0,.849-4.763c.324-3.426-.664-6.72-1.318-10.311a23.232,23.232,0,0,1,2.885,10.978,18.3,18.3,0,0,1-1.314,8.515c-1.922,4.318-3.879,8.62-5.808,12.935a12.063,12.063,0,0,0-.417,1.3c3.691-3.677,6.053-8.112,8.118-12.779q-.435,1.9-.87,3.793l.472.118c.494-1.668,1.067-3.317,1.467-5.008,1.352-5.7,1.832-11.4-.009-17.112a4.55,4.55,0,0,1,.023-1.447c3.29,7.251,1.919,14.529.48,21.824a16.423,16.423,0,0,0,3.1-11.113,12.463,12.463,0,0,1,.549,2.657,24.313,24.313,0,0,1-.057,2.509c1.417-2.6,2.249-7.57,1.648-10.1-1.6-6.727-3.965-13.1-8.149-18.683a35.006,35.006,0,0,0-2.423-2.644c.323,1.464,1.458,2.483,1.567,4.3-2.4-2.621-3.666-5.752-6.435-7.606q.818,1.448,1.637,2.9c-3.841-3.475-6.83-7.71-11.508-10.134.034.424.385.53.617.758a49.527,49.527,0,0,1,7.435,8.954,13.529,13.529,0,0,1,.86,2.029c-1.25-1.137-2.042-2.556-3.212-3.509a6.627,6.627,0,0,1-1.947-2.121,12.359,12.359,0,0,0-3.191-3.882c-1.814-1.573-3.57-3.211-5.362-4.811a10.129,10.129,0,0,0-2.241-1.869,70.132,70.132,0,0,1-10.671-6.46,14.7,14.7,0,0,1-2.454-2.331,1.351,1.351,0,0,1-.365-1.815c1.317,1.053,2.173,2.516,3.648,3.229a2.035,2.035,0,0,0-.435-.947c-1.047-1.5-2.206-2.947-3.117-4.531a18.883,18.883,0,0,1-2.221-10.019,56.52,56.52,0,0,1,2.832-15.143c.862-2.834,1.962-5.595,2.906-8.406.165-.492.768-1.207-.549-1.606a23.834,23.834,0,0,0-1.5,3.119c-1.138,3.56-2.282,7.125-3.209,10.744a78.156,78.156,0,0,0-2.49,17.781,8.357,8.357,0,0,0,1.734,5.742c1.2,1.477,2.4,2.958,3.578,4.454.7.893,1.369,1.817,2.053,2.728l-.346.242a35.823,35.823,0,0,1-7.158-8.491,5.407,5.407,0,0,1-.662-2.211,40.819,40.819,0,0,1,.532-11.17c1.323-7.8,3-15.523,6.285-22.789.472-1.044.155-1.579-1.2-1.773a188.682,188.682,0,0,0-7.738,27.821,15.857,15.857,0,0,1-.025-2.558,11.145,11.145,0,0,1,.227-1.461,162.046,162.046,0,0,1,6.608-24.07c.355-.959.08-1.577-.725-2.439-.173.3-.284.474-.372.655a28.207,28.207,0,0,0-1.278,2.678c-3.179,8.777-5.815,17.681-6.442,27.073-.191,2.857-.926,5.65-.76,8.57a42.2,42.2,0,0,1-.469,6.094,2.444,2.444,0,0,1-1.2,2.4c.008-.99-.045-1.657.026-2.311.6-5.54,1.068-11.1,1.88-16.61.611-4.144.767-8.321,2.124-12.421,1.857-5.618,3.013-11.466,5.652-16.83a3.249,3.249,0,0,0-.458-3.508c-1.681,3.942-3.35,7.512-4.731,11.191-1.387,3.7-2.529,7.487-3.7,11.261-1.143,3.684-2.187,7.4-3.275,11.1a9.36,9.36,0,0,1,.329-3.391c1.356-4.9,2.59-9.833,4.181-14.653,1.963-5.949,4.049-11.875,7.4-17.248.149-.241-.045-.7-.115-1.43a9.489,9.489,0,0,0-.9,1.053,117.393,117.393,0,0,0-10.619,24.875c-1.271,4.334-2.427,8.706-3.849,12.99-1.087,3.275-2.486,6.451-3.8,9.647a19.738,19.738,0,0,1-1.319,2.306,1.883,1.883,0,0,1,.049-1.441c1.746-4.771,3.777-9.459,5.182-14.329,1.956-6.78,3.676-13.622,6.416-20.149a5,5,0,0,0,.2-.957,18.8,18.8,0,0,0-2.168,3.851,125.923,125.923,0,0,0-7.031,19.035,28.852,28.852,0,0,1-8.076,13.925c-.923.861-1.889,1.675-3.126,2.766l3.484-.845c-.141.606-.206.89-.272,1.175l.353.273,3.038-2.326c-.382,1.741-1.315,3.039-2.5,3.157-2.433.244-4.322,1.55-6.4,2.493-1.026.465-.989.593-.01,1.556a8.794,8.794,0,0,1-1.375,1.455,40.933,40.933,0,0,0-9.714,9.589c-.437.575-.79,1.215-1.182,1.826l.35.269c.394-.339.811-.653,1.176-1.019,1.537-1.547,3.071-3.1,4.583-4.668,1.8-1.873,3.616-3.739,5.351-5.673a6.667,6.667,0,0,0,.825-1.812c1.466.453,1.179-1.333,2.123-1.681l1.12,1.568c1.637-.987,2.8-2.439,4.6-2.925a48.89,48.89,0,0,0-15.378,19.729,7.306,7.306,0,0,1,.546-2.994c1.3-2.417,2.787-4.733,4.185-7.1a12.287,12.287,0,0,0,.555-1.212,4.213,4.213,0,0,0-1.645,1.1c-2.538,2.652-5.17,5.226-7.563,8.005A36.448,36.448,0,0,0,292.9,91.714a37.513,37.513,0,0,0-1.5,11.233,41.541,41.541,0,0,0,5.046,20.3,3.128,3.128,0,0,1,.338.958,9.164,9.164,0,0,0,3.655,5.028c-1.615-3.811-3.478-7.6-4.832-11.572-1.372-4.021-2.683-8.137-2.277-12.513.364,1.713.544,3.467.96,5.162.782,3.193,1.4,6.457,3.159,9.322a18.834,18.834,0,0,0,.625,2.206,55.982,55.982,0,0,0,6,10.632c.849,1.211,1.826,2.331,2.746,3.492l.353-.263c-.28-.448-.535-.914-.843-1.342-3.176-4.406-6.3-8.841-8.16-14.017-.1-.289-.456-.488-.694-.729l-.3-2.729c1.229,2.861,2.263,5.746,4.17,8.376.089-.334.181-.479.152-.594-1.013-4.035-2.187-8.037-3.006-12.111a44.457,44.457,0,0,1-.817-8.389,45.034,45.034,0,0,1,.844-6.271,61.8,61.8,0,0,1,3.754-14.508,10.786,10.786,0,0,1,.621-1.154,1.281,1.281,0,0,1,.25,1.1A78.472,78.472,0,0,0,299.56,97.9c-.372,2.861-1.119,5.669-.863,8.617.51,5.876,2.243,11.478,3.645,17.156a3.287,3.287,0,0,0,.328.778,3.149,3.149,0,0,0,.386.469,74.345,74.345,0,0,1-2.139-18.287c.388,2.282.645,4.58.948,6.872a52.823,52.823,0,0,0,3.786,14.709,15.594,15.594,0,0,0,3.3,5.043,3.263,3.263,0,0,0-.071-.87,57.177,57.177,0,0,1-5.892-23.019A54.783,54.783,0,0,1,304.684,93a64.891,64.891,0,0,1,3.527-11.066,3.706,3.706,0,0,0,.43-2.221,3.226,3.226,0,0,1,.345-2.219,33.2,33.2,0,0,1,1.742-3.861c1.421-2.512,2.846-5.036,4.484-7.408a7.32,7.32,0,0,1,3.23-2.923,4.519,4.519,0,0,0,2.564-2.122c.751-1.11,1.472-2.242,2.243-3.339a5.022,5.022,0,0,1,.889-.758c.049.279.094.367.068.406q-3.3,4.779-6.618,9.546c-.154.221-.448.527-.645.506-1.369-.147-1.74.985-2.292,1.792-.956,1.4-1.819,2.861-2.684,4.32-.341.575-.583,1.21-.871,1.818l.377.215c.745-1.055,1.457-2.136,2.243-3.16,1.557-2.026,3.732-3.477,5.161-5.652a20.589,20.589,0,0,1,2.66-2.695,4.433,4.433,0,0,0,1.031-1.309c1.608-4.051,4.309-7.435,6.712-10.991a11.08,11.08,0,0,0,1.7-4.051c.1-.5.155-1.006.231-1.508.626,2.235-.121,4.188-1.07,6.113-2.325,4.713-5.578,8.826-8.487,13.159-.142.213-.432.529-.588.5-1.054-.226-1.3.653-1.747,1.222-3,3.838-4.773,8.309-6.5,12.8a6.228,6.228,0,0,0-.2,1.4,3.051,3.051,0,0,0,.907-1.17c.758-1.431,1.509-2.866,2.3-4.28.035-.063.423.072.647.115l.046-.048a6.831,6.831,0,0,0-.845,1.08,56.559,56.559,0,0,0-5.685,17.427c-.1.683-.31,1.351-.469,2.026-.377-.289-.457-.5-.417-.677q1.152-5.155,2.335-10.3c.127-.549.555-1.128.454-1.61-.471-2.235.418-4.165,1.181-6.133.751-1.937,1.524-3.866,2.287-5.8a3.949,3.949,0,0,0-1.563,1.73c-1.441,3.059-2.98,6.084-4.214,9.226a72.859,72.859,0,0,0-4.328,19.352,51.1,51.1,0,0,0,.9,14.1,25.436,25.436,0,0,0,.717,2.876c.251.837.591,1.648.892,2.47a4.155,4.155,0,0,0,0-1.741,18.077,18.077,0,0,1,.043-1.853c.379,1.068.611,1.721.852,2.4.109-.109.193-.184.266-.27.045-.052.058-.141.111-.174s.117.016.234.039c1.4,6.638,3.411,12.984,9.428,17.117-4.37-4.938-6.735-10.836-8.383-17.117-1.454-5.543-1.99-16.84-.65-19.309a7.335,7.335,0,0,1,.238,1.3c-.043,2.187-.13,4.375-.176,6.563a4.869,4.869,0,0,0,.132,1.669c1.181,3.393,2.356,6.791,3.656,10.139a24.064,24.064,0,0,0,3.569,6.643,18.772,18.772,0,0,0-.729-5.4c-2.368-6.231-3.141-12.72-3.366-19.288Zm30.1-106.461-.368.208c.075,1.182.09,2.371.242,3.541.27,2.08.347,4.2,1.461,6.1A5.822,5.822,0,0,0,348.71,15c.388.136,1.123.12,1.281-.111a1.761,1.761,0,0,0,.167-1.467q-2.068-4.621-4.3-9.17A12.658,12.658,0,0,0,344.393,2.292ZM316.761,130.628l.608-.346c-1.276-2.487-2.8-4.863-3.843-7.456-1.05-2.617-1.982-5.281-3.023-8.081-.118.338-.22.475-.2.6a45.307,45.307,0,0,0,3.129,11.342c.131.31.453.838.569.809,1.193-.306,1.157.727,1.535,1.314C315.93,129.422,316.351,130.022,316.761,130.628Zm63.9-2.34c3.751-4.127,7.092-8.491,8.255-14.115-1.5,2.281-3.313,4.482-4.17,7.007C383.826,123.9,381.469,125.615,380.662,128.288ZM305.443,63.809c.869-.25,1.393.825,2.407.241,2.618-1.507,5.35-2.818,8.027-4.226a3.139,3.139,0,0,0,.61-.568l-.239-.4C312.573,60.263,308.8,61.428,305.443,63.809Zm6.2,68.7c.824,3.38,5.636,8.842,7.8,9.167ZM289.623,117.9l-.359.247a42.961,42.961,0,0,0,6.136,10.114c.119-.536.269-.8.192-.923C293.617,124.179,291.618,121.039,289.623,117.9Zm-15.58,5.611a10.2,10.2,0,0,0,5.79,6.775Zm49.9,8.713.577-.231q-.922-2.921-1.847-5.848l-1.273.625Zm-38.858-4.952.391-.182-3.8-8.13A20.4,20.4,0,0,0,285.082,127.268Zm24.639-66.852c-2.792.2-5.507,1.579-6.265,3.129Zm-8.154,79.549c2.038,1.533,4.3,2.673,7.077,2.2Zm32.543-9.159-.358-5.735C333.094,127.028,333.561,128.919,334.11,130.805Zm-56-19.831a5.767,5.767,0,0,0,1.188,4.784Q278.7,113.366,278.108,110.974Zm86.3,14.38-.344-.283-2.331,3.017C363.461,127.837,363.576,126.312,364.405,125.355Zm-45.794,6.8a3.557,3.557,0,0,0,1.921,2.938,10.054,10.054,0,0,0-1.152-1.965C319.141,132.79,318.868,132.477,318.611,132.153Zm28.913-50.337c.479-1.734.479-1.734-.415-3.109C347.271,79.912,347.4,80.865,347.524,81.817Zm-.707,48.7.394.3q.462-.945.924-1.892l-.337-.17Q347.307,129.64,346.817,130.519Zm-41.181.707-.326.293,1.288,1.471.328-.3Zm32.582-1.8-.059-.02-.031,1.04.059,0Zm-55.909.227c-.208,1.369.461,1.541,1.318,1.552Zm85.221-7.993a9.335,9.335,0,0,0-.31,1.607,2.728,2.728,0,0,0,.377.967c.177-.42.353-.84.534-1.269.981-3.174,2.056-6.312,2.908-9.509,1.086-4.076.809-8.28.737-12.437a13.3,13.3,0,0,0-1.3-5.85,2.059,2.059,0,0,0-.218,1.281,45.22,45.22,0,0,1,.782,7.977,43.3,43.3,0,0,1-2.6,15.559,11.256,11.256,0,0,1-.994,1.769ZM334.742,65.926c-.159,1.891-.454,3.781-.448,5.672a38.824,38.824,0,0,1-1.417,10.034c-.207.792-.273,1.622-.4,2.434a45.776,45.776,0,0,0,2.078-7.13,20.632,20.632,0,0,0,.413-2.93c.105-1.393.111-2.8.192-4.191.109-1.893.267-3.784.368-5.677.033-.613-.159-1.124-.94-1.046-.992,1.841-4.531,17.177-4.289,18.669,1.367-5.351,2.721-10.65,4.074-15.948ZM319.419,83.365a39.942,39.942,0,0,1,6.83-16.006c.827-1.133,1.815-2.162,2.534-3.357.635-1.056.949-2.3,1.489-3.42,2.1-4.339,3.884-8.741,3.146-13.726-.19,1.46-.31,2.934-.585,4.379a40.473,40.473,0,0,1-6.406,14.628,49.188,49.188,0,0,0-7.239,15.865c-.345,1.477-.831,2.992.123,4.551A17.975,17.975,0,0,1,319.419,83.365Zm31.9-9.227c-1.082-3.346-3.439-5.946-5.329-8.816-.035-.053-.248.011-.644.042a11.549,11.549,0,0,0,.726,1.67c.832,1.307,1.691,2.6,2.609,3.848a12.069,12.069,0,0,1,2.424,5.561c.367,2.751.589,5.521.917,8.7A21.992,21.992,0,0,0,351.319,74.138Zm-10.012-8.666c.8,3.314,1.808,6.6,2.335,9.952.531,3.384.581,6.844.843,10.271.516-6.983.334-13.865-2.668-20.331ZM337,78.214c-.075-1.3-.291-2.566.686-3.77a2.545,2.545,0,0,0,.066-2.212c-.732-1.563-.5-3.177-.6-4.775-.032-.511.023-1.027.039-1.541l-.455-.039a8.5,8.5,0,0,0-.388,3.787,46.785,46.785,0,0,1-.637,11.1c-.4,1.9-.541,3.857-.8,5.788a27.347,27.347,0,0,0,1.105-4.214c.36-1.387.045-2.945,1.031-4.173ZM316.513,76.12a7.781,7.781,0,0,1-.169,1.391c-.465,1.545-1.014,3.065-1.459,4.615a16.9,16.9,0,0,0-.313,2.286c1.305-3.462,2.461-6.618,3.685-9.747a26.318,26.318,0,0,1,5.5-8.482,7.74,7.74,0,0,0-2.134,1.615c-.883,1-1.49,2.313-2.522,3.083-1.127.841-.57,2.693-2.152,3.1-.02.005-.035.269.026.321,1.168,1-.116,1.314-.516,1.874Zm63.416,8.551c1.066,1.752,2.149,3.492,3.354,5.435a7.827,7.827,0,0,0-3.03-5.905C380.068,84.462,379.9,84.626,379.928,84.67Zm-36.8-21.61-2.135-5.886C341.31,61.365,341.635,62.27,343.127,63.061Zm-.576-13.845a6.321,6.321,0,0,0,1.75,3.849C344.342,51.061,343.839,49.939,342.551,49.215Zm-13.38-4.4-1.15,3.739.458.147q.631-1.851,1.262-3.7Zm-9.77,31.29c-.472,1.32-1.414,2.2-1.05,3.512C319.517,77.942,319.616,77.59,319.4,76.109Zm17.824-28.245c-.045,1.511-.075,2.53-.105,3.551C337.85,49.479,337.85,49.479,337.225,47.865ZM332.8,85.55q-.224,1.752-.447,3.505l.43.086q.37-1.74.74-3.479ZM353.615,82.7a2.537,2.537,0,0,0,.7,2.9A3.087,3.087,0,0,0,353.615,82.7ZM334.64,40.285c.262-.773,1.2-1.5.244-2.706C334.783,38.706,334.711,39.5,334.64,40.285ZM289.683,80.15c2.469-2.361,3.216-5.89,5.963-7.9C292.769,73.6,289.428,78,289.683,80.15Zm-4.573,30.777c-.356-1.414-.749-2.8-1.048-4.214-.3-1.429-.513-2.878-.814-4.6C282.994,107.5,283.562,110.125,285.11,110.926ZM274.751,90.778c-.265-1.495.457-2.7,1.014-3.97.253-.577.441-1.182.659-1.776-1.329,1.946-3.109,3.709-2.226,6.487C274.394,91.27,274.788,90.986,274.751,90.778ZM296.162,76.62q-.665.918-1.336,1.832l.446.244.837-2.13Z"/></g></g></svg>
