<svg xmlns="http://www.w3.org/2000/svg" width="28.222" height="21.167" viewBox="0 0 28.222 21.167"><path d="M25.576,64H2.646A2.646,2.646,0,0,0,0,66.646V82.521a2.646,2.646,0,0,0,2.646,2.646H25.576a2.646,2.646,0,0,0,2.646-2.646V66.646A2.646,2.646,0,0,0,25.576,64Zm0,2.646V68.9c-1.236,1.006-3.206,2.571-7.419,5.87-.928.73-2.767,2.484-4.047,2.464-1.279.021-3.119-1.734-4.047-2.464-4.212-3.3-6.183-4.863-7.419-5.87V66.646ZM2.646,82.521V72.29C3.909,73.3,5.7,74.708,8.43,76.846c1.2.948,3.315,3.042,5.681,3.029,2.355.013,4.438-2.05,5.68-3.029,2.73-2.138,4.522-3.55,5.785-4.556V82.521Z" transform="translate(0 -64)"/></svg>