<svg xmlns="http://www.w3.org/2000/svg" width="26.533" height="26.533" viewBox="0 0 26.533 26.533"><defs><style>.a{fill-rule:evenodd;}</style></defs><g transform="translate(-151 159)"><path class="a" d="M13.266,2.358a40.678,40.678,0,0,1,5.307.147,6.837,6.837,0,0,1,2.506.442,5.177,5.177,0,0,1,2.506,2.506,6.837,6.837,0,0,1,.442,2.506c0,1.327.147,1.769.147,5.307a40.677,40.677,0,0,1-.147,5.307,6.837,6.837,0,0,1-.442,2.506,5.177,5.177,0,0,1-2.506,2.506,6.837,6.837,0,0,1-2.506.442c-1.327,0-1.769.147-5.307.147a40.677,40.677,0,0,1-5.307-.147,6.837,6.837,0,0,1-2.506-.442,5.177,5.177,0,0,1-2.506-2.506,6.837,6.837,0,0,1-.442-2.506c0-1.327-.147-1.769-.147-5.307A40.678,40.678,0,0,1,2.506,7.96a6.837,6.837,0,0,1,.442-2.506A5.294,5.294,0,0,1,3.98,3.98,2.492,2.492,0,0,1,5.454,2.948,6.837,6.837,0,0,1,7.96,2.506a40.678,40.678,0,0,1,5.307-.147m0-2.358A43.554,43.554,0,0,0,7.812.147,9.1,9.1,0,0,0,4.57.737,5.77,5.77,0,0,0,2.211,2.211,5.77,5.77,0,0,0,.737,4.57a6.716,6.716,0,0,0-.59,3.243A43.554,43.554,0,0,0,0,13.266,43.554,43.554,0,0,0,.147,18.72a9.1,9.1,0,0,0,.59,3.243,5.77,5.77,0,0,0,1.474,2.358A5.77,5.77,0,0,0,4.57,25.8a9.1,9.1,0,0,0,3.243.59,43.554,43.554,0,0,0,5.454.147,43.554,43.554,0,0,0,5.454-.147,9.1,9.1,0,0,0,3.243-.59A6.184,6.184,0,0,0,25.8,21.963a9.1,9.1,0,0,0,.59-3.243c0-1.474.147-1.916.147-5.454a43.554,43.554,0,0,0-.147-5.454A9.1,9.1,0,0,0,25.8,4.57a5.77,5.77,0,0,0-1.474-2.358A5.77,5.77,0,0,0,21.963.737,9.1,9.1,0,0,0,18.72.147,43.554,43.554,0,0,0,13.266,0m0,6.486a6.671,6.671,0,0,0-6.781,6.781,6.781,6.781,0,1,0,6.781-6.781m0,11.2a4.343,4.343,0,0,1-4.422-4.422,4.343,4.343,0,0,1,4.422-4.422,4.343,4.343,0,0,1,4.422,4.422,4.343,4.343,0,0,1-4.422,4.422M20.342,4.57a1.621,1.621,0,1,0,1.621,1.621A1.636,1.636,0,0,0,20.342,4.57" transform="translate(151 -159)"/></g></svg>