<svg xmlns="http://www.w3.org/2000/svg" viewBox="0 0 763.92 334.86"><g id="outlines"><path d="M11.25,266.68A20.86,20.86,0,0,1,3,258.91a22.71,22.71,0,0,1,0-22.56,20.86,20.86,0,0,1,8.25-7.77,24.86,24.86,0,0,1,11.85-2.79,25.44,25.44,0,0,1,10.38,2,20,20,0,0,1,7.68,5.88l-7.56,6.84a12.44,12.44,0,0,0-9.9-4.92,12.22,12.22,0,0,0-6.09,1.5,10.41,10.41,0,0,0-4.14,4.23,14.11,14.11,0,0,0,0,12.54,10.41,10.41,0,0,0,4.14,4.23,12.22,12.22,0,0,0,6.09,1.5,12.44,12.44,0,0,0,9.9-4.92l7.56,6.84a20,20,0,0,1-7.68,5.88,25.44,25.44,0,0,1-10.38,2A24.86,24.86,0,0,1,11.25,266.68Z"/><path d="M92.4,226.63v42H80.52V252.25H64.32v16.38H52.44v-42H64.32v15.78h16.2V226.63Z"/><path d="M111.63,264.37q-5.19-5.1-5.19-14.46V226.63h11.88v22.92q0,10.08,8,10.08t7.92-10.08V226.63h11.7v23.28q0,9.36-5.19,14.46t-14.55,5.1Q116.82,269.47,111.63,264.37Z"/><path d="M168.24,236.05h-12.9v-9.42H193v9.42H180.12v32.58H168.24Z"/><path d="M243.36,226.63v42h-9.78L215,246.25v22.38H203.4v-42h9.78L231.72,249V226.63Z"/><path d="M291.48,259.45v9.18H257.76v-42H290.7v9.18H269.52v7.08h18.66v8.88H269.52v7.68Z"/><path d="M326.22,253.57v15.06H314.34V253.39l-16-26.76h12.54l10,16.68,10-16.68H342.3Z"/><path d="M379.59,264.37q-5.19-5.1-5.19-14.46V226.63h11.88v22.92q0,10.08,8,10.08t7.92-10.08V226.63h11.7v23.28q0,9.36-5.19,14.46t-14.55,5.1Q384.78,269.47,379.59,264.37Z"/><path d="M467.88,226.63v42H458.1l-18.54-22.38v22.38H427.92v-42h9.78L456.24,249V226.63Z"/><path d="M482.28,226.63h19.86a27.8,27.8,0,0,1,12.24,2.58,19.43,19.43,0,0,1,8.28,7.32,22.42,22.42,0,0,1,0,22.2,19.43,19.43,0,0,1-8.28,7.32,27.8,27.8,0,0,1-12.24,2.58H482.28Zm19.38,32.52a12.18,12.18,0,0,0,8.67-3.06q3.27-3.06,3.27-8.46t-3.27-8.46a12.18,12.18,0,0,0-8.67-3.06h-7.5v23Z"/><path d="M599.22,268.63l-.12-22.26-10.8,18.12H583L572.28,247v21.66h-11v-42h9.78l14.76,24.24,14.4-24.24H610l.12,42Z"/><path d="M658.26,259.45v9.18H624.54v-42h32.94v9.18H636.3v7.08H655v8.88H636.3v7.68Z"/><path d="M710.82,226.63v42H698.94V252.25h-16.2v16.38H670.86v-42h11.88v15.78h16.2V226.63Z"/><path d="M743.58,257.47H737.1v11.16H725.22v-42h19.2a24,24,0,0,1,9.9,1.89,15.28,15.28,0,0,1,6.63,21.6,14.41,14.41,0,0,1-6.09,5.31l9.06,13.2H751.2Zm5.64-19.86A8.21,8.21,0,0,0,743.7,236h-6.6v12.3h6.6a8.32,8.32,0,0,0,5.52-1.59,5.63,5.63,0,0,0,1.86-4.53A5.72,5.72,0,0,0,749.22,237.61Z"/><path d="M271,333.11a12.78,12.78,0,0,1-5-4.84,14.19,14.19,0,0,1,0-13.87,12.79,12.79,0,0,1,5-4.85,14.69,14.69,0,0,1,7.15-1.74,15,15,0,0,1,5.47,1,11.39,11.39,0,0,1,4.26,2.89l-1.79,1.79a10.58,10.58,0,0,0-7.87-3.16,11.46,11.46,0,0,0-5.73,1.45,10.46,10.46,0,0,0-4.05,3.95,11.57,11.57,0,0,0,0,11.25,10.46,10.46,0,0,0,4.05,4,11.56,11.56,0,0,0,5.73,1.44,10.44,10.44,0,0,0,7.87-3.19l1.79,1.79a11.65,11.65,0,0,1-4.28,2.9,15.41,15.41,0,0,1-12.62-.74Z"/><path d="M315.59,327.53H300.77l-3.19,7.1h-2.93L306.81,308h2.77l12.16,26.6h-3Zm-1-2.28L308.18,311l-6.39,14.29Z"/><path d="M335.69,310.47h-9.35V308h21.51v2.44H338.5v24.16h-2.81Z"/><path d="M376.84,332.2v2.43H358V308h18.24v2.44H360.85v9.46H374.6v2.39H360.85v9.88Z"/><path d="M407.32,334.63l-6.08-8.55a18.49,18.49,0,0,1-2.13.12H392v8.43h-2.82V308h10c3.39,0,6.06.81,8,2.44a8.26,8.26,0,0,1,2.89,6.68,8.24,8.24,0,0,1-6.08,8.36l6.5,9.12Zm-2.24-12.57a6.87,6.87,0,0,0,0-9.87,9.3,9.3,0,0,0-6.05-1.72H392V323.8H399A9.24,9.24,0,0,0,405.08,322.06Z"/><path d="M422.33,308h2.81v26.6h-2.81Z"/><path d="M461.73,308v26.6h-2.31l-17.1-21.58v21.58H439.5V308h2.32L459,329.62V308Z"/><path d="M494.83,321.33h2.7v10.15a13.08,13.08,0,0,1-4.41,2.51,16.46,16.46,0,0,1-5.36.87,14.65,14.65,0,0,1-7.18-1.75,12.81,12.81,0,0,1-5-4.84,14.06,14.06,0,0,1,0-13.87,12.84,12.84,0,0,1,5-4.85,14.86,14.86,0,0,1,7.22-1.74,15.73,15.73,0,0,1,5.59,1,11.22,11.22,0,0,1,4.29,2.87l-1.75,1.79a10.91,10.91,0,0,0-8-3.12,12,12,0,0,0-5.84,1.43,10.54,10.54,0,0,0-4.08,3.95,11,11,0,0,0-1.48,5.64A10.83,10.83,0,0,0,478,327a10.7,10.7,0,0,0,4.06,4,11.76,11.76,0,0,0,5.82,1.44,11.57,11.57,0,0,0,6.95-2.05Z"/><path d="M395.91,0a9.4,9.4,0,0,1,5.87,5.59c1.43,3.23,3.16,6.32,4.68,9.51.32.67.62,1.75.31,2.24-2.12,3.32-3.06,7.08-4.38,10.7a83.35,83.35,0,0,0-4,17.53c-.61,4.66-.34,9.36,2,13.7a34.62,34.62,0,0,0,7.19,9c1.63,1.5,4,2.27,6.05,3.25A82.25,82.25,0,0,1,430.5,82.64c2.94,2.39,6,4.67,8.79,7.18a41.42,41.42,0,0,1,4.82,5.26c5.43,6.89,8.16,15,10.05,23.37a22.53,22.53,0,0,1,.44,5.38,29.79,29.79,0,0,1-3.9,14.56,72.18,72.18,0,0,1-8,12.11,78,78,0,0,1-9.65,9.14c-1.73,1.39-4.11,2-6.27,2.77a5,5,0,0,1-3.12-.08,2.62,2.62,0,0,0-2.71.42,20.33,20.33,0,0,1-10.41,3.47c-1.64.06-3.26.63-4.88.59-2-.06-4.06-.54-6.1-.76a6.84,6.84,0,0,0-2.39.12c-3.72,1-7.38,2.31-11.15,3.06a37.92,37.92,0,0,1-12.26.22,14.82,14.82,0,0,1-4.5-1.9c-1-.5-1.69-1.09-2.87-.17-.65.51-1.89.19-2.8.47-5.42,1.65-10.55.47-15.6-1.5a76.48,76.48,0,0,0-10.62-3.11c-6.26-1.45-12-4-15.85-9.64a30.77,30.77,0,0,0-2.16-2.7,44.72,44.72,0,0,1-8.14-15.42c-3.3-10-3.53-20.28.61-30.2a53.11,53.11,0,0,1,11.4-17.48,28.66,28.66,0,0,1,8.09-6,29.42,29.42,0,0,0,4-2.37c5.11-3.4,10.87-5.48,16.4-8,2.9-1.34,5.9-2.49,8.91-3.59,4.34-1.58,7.22-4.82,9.74-8.42a40.78,40.78,0,0,0,5.75-13.28,82.79,82.79,0,0,1,3.58-10.24c3.49-8.53,7-17,10.74-25.47C392,6.87,394,3.56,395.91,0ZM328,157.32c.42.81,1.15,1,1.81,1.24l.24-.49-1.92-.89a5.57,5.57,0,0,0-2.68-2c-.08.15-.17.29-.26.43Zm77.39,1.85a5.88,5.88,0,0,0,2.5-4.51l-2.76,4.25-1.51,1.67.52.41ZM389.75,15.5c2.28-4,4.58-8,6.83-12,.13-.24-.11-.69-.25-1.38-.51.5-.86.72-1,1-1.67,3.18-3.35,6.35-4.92,9.59a12.69,12.69,0,0,0-.63,2.8,1.58,1.58,0,0,0-.56,2.26C389.37,17,389.56,16.25,389.75,15.5Zm35.88,126.27a4.86,4.86,0,0,0-.79.85c-1.71,3-3.39,6-5.1,8.94-.43.73-.94,1.41-1.42,2.11a3.15,3.15,0,0,0,1.76-1.24c1.89-2.54,3.75-5.1,5.63-7.66l.61-1.47c2.7-3.59,3.65-7.88,4.91-12.07a21.22,21.22,0,0,1-.6,4.87,45,45,0,0,1-11.28,19.13c-1.34,1.33-2.51,2.84-4.13,4.68a5.32,5.32,0,0,0,1-.35c3.61-3.46,7.66-6.52,9.78-11.27a8.84,8.84,0,0,1,.84-1.22,46,46,0,0,0,7.29-16.61,79.53,79.53,0,0,0,1.42-11.21c.16-2.76-.42-5.55-.47-8.34A41.1,41.1,0,0,0,432,97a13.25,13.25,0,0,0-.85-1.48c-.18,1-.3,1.69-.43,2.4a20.58,20.58,0,0,0-4.38-8.51c.39,3,1.87,5.86,1.62,9-1.19-3.67-2-7.43-4.19-10.7-1.84-2.79-6.47-7.3-8.23-7.9.47.74.84,1.36,1.24,2,2.53,3.89,4.75,7.94,5.54,12.55a51.48,51.48,0,0,0,1.47,6.71,46.53,46.53,0,0,1,2.07,17.78c-.16,1.81-.19,3.62-.33,5.43-.45,5.41-1.06,10.79-3.21,15.87-.66,1.56-1.17,3.18-1.75,4.78l.34.2,4.86-6.58.26.22c-.15,1-.3,2.09-.46,3.13ZM342.4,89.22l.06.06c1-4.28,4.91-6.38,7-9.94l-6.41,4-.31-.5,9-5.85c-7.21,2.38-13.33,6.58-19.16,11.33a30.08,30.08,0,0,1,3.78-3.79c1.29-1.13,2.61-2.23,3.92-3.35l-.4-.47-7.35,5.84-.28-.32,6.34-5.57c-4.26,1.84-7.44,5-10.57,8.25l-.4-.45L335.44,81a31.34,31.34,0,0,0-6.87,3.72c-7.48,5.56-12.45,13-15.95,21.55-1.73,4.22-2.22,8.75-2.63,13.26a9.53,9.53,0,0,0,.38,3.64c.17.53,1,.76.94,1.69-.43,6.23,2.19,11.53,5.25,16.67a11.6,11.6,0,0,0,1.2,1.44,1,1,0,0,0,0-1,37.8,37.8,0,0,1-3.93-11.9c-.37-2.51-.37-5.07-.71-7.59a21.11,21.11,0,0,1,.9-10,41.54,41.54,0,0,0,1.24,16,48.56,48.56,0,0,0,7.08,14.39c.14-.54.25-.72.21-.84-.16-.46-.36-.91-.55-1.36-2.23-5.13-4.57-10.21-5.5-15.8a28,28,0,0,1,.14-8.37c.18,4.91.49,9.76,2.67,14.28a5.86,5.86,0,0,0,0-2.43,53.49,53.49,0,0,1-.72-16.46,34.24,34.24,0,0,1,2.92-11.41,18.32,18.32,0,0,1,1.19-1.94l.6.28c-.16.57-.28,1.14-.47,1.69-.85,2.57-1.86,5.09-2.53,7.71a25.19,25.19,0,0,0-.48,5.15c-.12,2.78-.17,5.56-.2,8.34a2.06,2.06,0,0,0,.41,1.39c1.55,1.4,1.39,3.4,1.91,5.15s.86,3.52,1.45,5.22a9.93,9.93,0,0,0,1.49,2.18c-.33-3.65-1-7.1-1.56-10.56a45.1,45.1,0,0,1-.79-11.77A75.3,75.3,0,0,1,326,98.51a16.16,16.16,0,0,1,3.69-6.29c.27,2.21-1.2,3.2-1.59,4.57-.44,1.58-1,3.14-1.34,4.74s-.54,3.07-.77,4.61-.44,3.09-.57,4.65-.14,3.13-.19,4.69-.18,3.3-.13,5a38.37,38.37,0,0,0,.48,4.65c.25,1.55.6,3.07,1,4.59s.81,3.19,1.36,4.75,1.19,2.82,1.79,4.22l.39-.12c-.26-1.73-.51-3.45-.77-5.17,1.27,5.22,4,9.74,6.66,14.26s5.48,9.06,10.32,11.79a65,65,0,0,1-12.21-18.91c-3.11-7.16-4-14.7-4.36-22.37-.34-8.06,1.79-19.76,4.18-22.17a9.76,9.76,0,0,1-.19,1.8c-2.7,8-3.14,16.26-2.64,24.6a22.18,22.18,0,0,0,1.79,8.65c1.51,3,3.08,6,4.66,9a23,23,0,0,0,1.4,2c-1.63-5.1-4.13-9.8-4.6-15.19.54,1.39,1.08,2.78,1.78,4.56-.19-4.59-.32-8.67-.52-12.75a33,33,0,0,1,2.64-14.39c1.24-3,3-5.69,4.14-8.67,2.35-6.13,6.25-11.15,10.8-15.72a42.59,42.59,0,0,1,3.9-3.15,2.18,2.18,0,0,0-1.64.34c-2.51,2-5.07,3.93-7.42,6.1C346,85,344.28,87.19,342.4,89.22Zm21.2,37.51a89.35,89.35,0,0,0,3.19,15.17c.84,2.9,2.95,5.53,2.2,8.85-.08.34.22.8.43,1.14,1.65,2.65,3.3,5.3,5,7.93.2.32.62.49.95.74a61.88,61.88,0,0,1-7-20.73l2.85,5.89a4.31,4.31,0,0,0-.08-2.24c-1.5-6.75-2.9-13.53-2.4-20.51.19-2.7.48-5.41.9-8.08a149.23,149.23,0,0,1,2.57-14.81,126.84,126.84,0,0,1,5.15-15.15c1.8-4.55,3.57-9.3,9-11.63a145.72,145.72,0,0,0-8.75,24.32,6.21,6.21,0,0,1,.12-2.44c1.75-5.38,3.56-10.74,5.34-16.11.18-.54.3-1.1.46-1.65a1.46,1.46,0,0,0-1.06.84c-2.1,4.37-4.22,8.74-6.25,13.15A34.64,34.64,0,0,0,374.47,96c-2.21,7.6-3.31,15.4-4.34,23.23a42.79,42.79,0,0,0,.67,14.67c-.06-3.16-.13-6.32-.19-9.48a54.91,54.91,0,0,1,1.06,7.57,32.56,32.56,0,0,0,1.13,7.23c.82,2.29.48,5,2.42,6.94A125.78,125.78,0,0,1,373.85,126c.19-6.74.56-13.45,2.6-20a99.75,99.75,0,0,0,4.89,54.45c-.87-5.19-2.25-10.26-2.87-15.53-.73-6.21-1.77-13-.43-16a27.47,27.47,0,0,0,.91,10.56,58.41,58.41,0,0,1,.9-11.75c.1,2,0,4,0,5.94s.09,3.93.2,5.88.2,4.12.52,6.14a16.85,16.85,0,0,0,1.7,6.22,13.31,13.31,0,0,0,0-1.54c-.69-4.69-1.67-9.37-.66-14.15a3.57,3.57,0,0,0,0-1c-.43-6.34.5-12.57,1.46-18.81-1,12.29-1.25,24.53,1.68,36.61.06-2.78-.24-5.54-.24-8.31s.17-5.76.45-8.62c.26-2.66,0-5.4.94-8.46.67,8.28,1.31,16,1.94,23.79,1.33-15.49.61-30.93-.63-46.39a45.7,45.7,0,0,1,1,6.44c.32,4.09.55,8.2.76,12.3.22,4.43.37,8.87.55,13.3.1,2.46.16,4.93.3,7.39a7.22,7.22,0,0,0,.45,1.58,61.56,61.56,0,0,0,1.27-7.23c.24-1.7.21-3.53.85-5.07a9.06,9.06,0,0,0,.72-3.53c0-3.93.08-7.85,0-11.77a94.49,94.49,0,0,0-1.29-16.7c-.69-3.54-1.22-7.13-1.83-10.69l-.05.06c.42.25,1,.4,1.23.77a6.69,6.69,0,0,1,.57,1.72,21.17,21.17,0,0,0,.31-5.81c-.28-4.26-.54-8.53-1-12.77-.31-3.1-.88-6.17-1.31-9.26,0-.21.18-.46.28-.7a2.63,2.63,0,0,1,.42,1.26c.68,2.92-.28,6.33,2.55,8.62.1.08.07.31.12.46.6,1.88,1.12,3.79,1.84,5.62A25.57,25.57,0,0,1,397,91.67a42.7,42.7,0,0,0,.31,5.17c.56,6.71,1.34,13.41,1.64,20.13.23,5.26-.13,10.55-.26,15.82a6.33,6.33,0,0,1-.36,1.44c-1-4-.15-7.9-.23-11.8s-.25-8.05-.39-12.08a78.3,78.3,0,0,0-1.31-11.61c-.71-3.87-1-7.8-1.52-11.64l.81,1.31a23.86,23.86,0,0,0-3-10.39c.05,2.32.43,4.59.46,6.86,0,3.28-.18,6.55-.24,9.83a29.77,29.77,0,0,0,.11,4.43,156.74,156.74,0,0,1,1.39,20.65c-.05,9.62-.22,19.25-1.61,28.81a33.22,33.22,0,0,0-.12,3.47c.42-.74.57-.93.65-1.14a38.64,38.64,0,0,0,2.82-10.44c.08-.72,0-1.53,1.37-1.47-.65,6-2.89,11.47-4.28,17.21A72.17,72.17,0,0,0,397.9,147a77.62,77.62,0,0,0,3.19-9.86c2-8,2-16.14,2-24.29a62.49,62.49,0,0,0-.53-7.36c-.54-4.25-1.12-8.49-1.86-12.7s-1.69-8.2-2.51-12.3c-.21-1-.25-2.09-.36-3.13a66.8,66.8,0,0,1,4.53,11.23,21.36,21.36,0,0,1,1,8.24,35,35,0,0,0,.28,7.74c.18,2,.39,4.09.44,6.14.06,2.72-.05,5.44,0,8.16a100.61,100.61,0,0,1-3.65,26.78,12.65,12.65,0,0,0-.23,1.52c2.7-4.79,3.84-10.07,5.2-15.28l.61.16q-1.29,5.85-2.56,11.69a43.67,43.67,0,0,0,5-19.23c.73,5.91-.52,11.54-2.29,17.13a19.67,19.67,0,0,0,2.16-4.66,70,70,0,0,0,3.23-16.67c.11-2.23.9-4.48-.81-6.47a.75.75,0,0,1-.07-.69c1.15-1.54.23-3-.15-4.45-.22-.83-.56-1.72.47-2.56a30.24,30.24,0,0,1,1.9,13.4,78.31,78.31,0,0,1-3.95,19,3.52,3.52,0,0,0,0,1l.31.05c.79-1.53,1.58-3.07,2.38-4.6l.31.14-3.84,11c4.2-6.17,6.3-13.07,7.29-20.36a27.14,27.14,0,0,1-.05,4.6c-.18,1.46-.67,2.88-.91,4.34s-1.15,2.73-1,4.5a4.74,4.74,0,0,0,.58-.58,7.25,7.25,0,0,0,.4-.9,47.27,47.27,0,0,0,3.07-18.87c-.17-3.19-.73-6.38-.73-9.57a50.22,50.22,0,0,0-2.82-16,4.3,4.3,0,0,0-.47-.8l-.32.12.63,5.78-.48,0c-.32-1.75-.7-3.5-.94-5.26-.65-4.68-2-9-5.63-12.32-.92-.86-4.32-5.75-5.16-6.86,1-.08,4.48,3.61,5.59,3.53.63.84,1.57,2,2.4,3.19,4,5.9,7.84,11.9,8.24,19.37.09,1.55.43,3.09.59,4.64.34,3.27.71,6.54.93,9.81a53.42,53.42,0,0,1-1.2,16.92c-1.07,4.12-2.71,8.1-4.08,12.14a13.77,13.77,0,0,0-.35,1.67l.59.19,3.06-6.77a17.16,17.16,0,0,1-1.35,4.68c-1.3,2.74-2.78,5.41-4.17,8.11-.31.6-.56,1.24-.84,1.86,3.94-4.52,6.5-9.8,9.16-15-.93,4.7-4,8.49-5.86,13.2,2.28-1.16,3.14-2.88,4-4.66a54.31,54.31,0,0,0,6.08-23.71,17,17,0,0,1,.12-2.47c1.32-8.12-.32-15.82-3.32-23.94-.05,1.62-.08,2.65-.11,3.69a53.57,53.57,0,0,0-6.36-15.14c-1.85-2.81-3.8-5.57-5.9-8.18-.66-.82-2-1.09-3-1.65-.65-.36-1.27-.79-.86-1.73,1.52.82,3,1.6,4.46,2.41.2.11.32.37.46.57,2.53,3.64,5.65,6.88,7.47,11,.48,1.09,1.08.65,1.81-.06-1.27-2-2.56-4-3.82-6s-3.58-3.33-4-6l3.09,2.78c-.25-1.25-.39-2-.58-3a11.65,11.65,0,0,1,1.11.69c1.73,1.5,3.37,3.14,5.21,4.48a31.21,31.21,0,0,1,7.52,8.11c1,1.51,1.52,3.44,3.47,4.24.37.15.59.77.8,1.21a39.3,39.3,0,0,1,3.71,12.22,82.91,82.91,0,0,1,.55,17.68,42.67,42.67,0,0,1-4.23,16.11c-.36.72-.59,1.5-.88,2.25l.52.19a95.45,95.45,0,0,0,5.76-11.86,24.21,24.21,0,0,1-1.3,5,52.81,52.81,0,0,1-6.64,11.81,4.21,4.21,0,0,0-.39,1.1c5-5,7.66-11.35,11.19-17.19a15.67,15.67,0,0,0,1.52-4.41,40.6,40.6,0,0,0,1-5.55c.38-4-.78-7.83-1.54-12a27,27,0,0,1,3.36,12.79,21.27,21.27,0,0,1-1.53,9.93c-2.24,5-4.52,10-6.77,15.07a15.59,15.59,0,0,0-.48,1.51c4.3-4.28,7.05-9.45,9.46-14.89l-1,4.42.55.14c.58-1.95,1.25-3.87,1.71-5.84,1.58-6.64,2.14-13.29,0-19.94a5.29,5.29,0,0,1,0-1.68c3.83,8.45,2.24,16.93.56,25.43a19.14,19.14,0,0,0,3.61-13,14.29,14.29,0,0,1,.64,3.09,28.71,28.71,0,0,1-.06,2.93c1.65-3,2.62-8.82,1.92-11.77-1.86-7.84-4.62-15.27-9.5-21.78-.83-1.1-1.88-2-2.82-3.08.37,1.71,1.7,2.9,1.82,5-2.79-3.06-4.27-6.71-7.5-8.87.64,1.13,1.28,2.25,1.91,3.38-4.47-4-8-9-13.41-11.81,0,.49.45.62.72.88A57.36,57.36,0,0,1,433,92a15.52,15.52,0,0,1,1,2.36c-1.46-1.32-2.38-3-3.75-4.09A7.68,7.68,0,0,1,428,87.75a14.4,14.4,0,0,0-3.72-4.52c-2.12-1.84-4.16-3.75-6.25-5.61a11.82,11.82,0,0,0-2.61-2.18,81.06,81.06,0,0,1-12.44-7.53,17,17,0,0,1-2.86-2.71c-.43-.49-1-1.09-.42-2.12,1.53,1.23,2.53,2.93,4.25,3.77a2.38,2.38,0,0,0-.51-1.11c-1.22-1.75-2.57-3.43-3.63-5.28a22,22,0,0,1-2.59-11.67,65.93,65.93,0,0,1,3.3-17.65c1-3.3,2.29-6.52,3.39-9.79.19-.58.89-1.41-.64-1.87a27.58,27.58,0,0,0-1.75,3.63c-1.32,4.15-2.66,8.3-3.74,12.52a91,91,0,0,0-2.9,20.72,9.77,9.77,0,0,0,2,6.69c1.4,1.72,2.8,3.45,4.17,5.19.82,1,1.6,2.12,2.39,3.18l-.4.28a41.63,41.63,0,0,1-8.34-9.89,6.2,6.2,0,0,1-.77-2.58,47.64,47.64,0,0,1,.61-13c1.55-9.09,3.5-18.09,7.33-26.56.55-1.22.18-1.84-1.4-2.07a220.69,220.69,0,0,0-9,32.42,19.82,19.82,0,0,1,0-3,12.27,12.27,0,0,1,.27-1.7,187.78,187.78,0,0,1,7.7-28c.41-1.12.09-1.84-.85-2.84-.2.35-.33.55-.43.76a31.77,31.77,0,0,0-1.49,3.12c-3.7,10.23-6.78,20.61-7.51,31.55-.22,3.33-1.08,6.58-.88,10a50.16,50.16,0,0,1-.55,7.1c-.08.91,0,1.93-1.4,2.8,0-1.15-.05-1.93,0-2.69.7-6.46,1.24-12.94,2.19-19.36.71-4.83.89-9.69,2.47-14.47,2.17-6.55,3.52-13.36,6.59-19.61.6-1.22.55-2.46-.53-4.09-2,4.59-3.91,8.75-5.51,13s-2.95,8.72-4.32,13.12-2.54,8.62-3.81,12.94a11,11,0,0,1,.38-4c1.58-5.71,3-11.46,4.87-17.08,2.29-6.93,4.72-13.84,8.62-20.1.18-.28-.05-.81-.13-1.66a10,10,0,0,0-1,1.22,137.1,137.1,0,0,0-12.38,29c-1.48,5.05-2.83,10.14-4.48,15.13-1.27,3.82-2.9,7.52-4.43,11.25a23.16,23.16,0,0,1-1.54,2.68,2.23,2.23,0,0,1,.06-1.68c2-5.56,4.4-11,6-16.69,2.28-7.9,4.28-15.88,7.47-23.48a5.87,5.87,0,0,0,.24-1.12,21.75,21.75,0,0,0-2.53,4.49,146,146,0,0,0-8.19,22.18A33.71,33.71,0,0,1,366.91,65c-1.08,1-2.2,1.95-3.65,3.22l4.06-1c-.16.7-.24,1-.31,1.36l.41.32L371,66.25c-.45,2-1.53,3.54-2.91,3.68-2.83.28-5,1.81-7.46,2.9-1.19.55-1.15.7,0,1.82a10.3,10.3,0,0,1-1.6,1.69,47.88,47.88,0,0,0-11.32,11.18c-.51.67-.92,1.41-1.38,2.13l.41.31c.46-.4.94-.76,1.37-1.19,1.79-1.8,3.58-3.61,5.34-5.44,2.1-2.18,4.21-4.35,6.23-6.61a7.84,7.84,0,0,0,1-2.11c1.7.53,1.37-1.55,2.47-2l1.3,1.83c1.91-1.15,3.26-2.84,5.37-3.41-8.1,6-13.79,13.85-17.92,23a8.54,8.54,0,0,1,.64-3.49c1.51-2.81,3.24-5.51,4.87-8.27a12,12,0,0,0,.65-1.41,4.87,4.87,0,0,0-1.92,1.28c-2.95,3.09-6,6.09-8.81,9.33a42.43,42.43,0,0,0-8.59,15.37A43.91,43.91,0,0,0,336.91,120a48.58,48.58,0,0,0,5.88,23.66,3.69,3.69,0,0,1,.4,1.11,10.64,10.64,0,0,0,4.26,5.86c-1.89-4.44-4.06-8.86-5.63-13.48s-3.13-9.48-2.66-14.58c.43,2,.64,4,1.12,6,.91,3.72,1.63,7.53,3.68,10.87a22.81,22.81,0,0,0,.73,2.57,65.32,65.32,0,0,0,7,12.38c1,1.41,2.13,2.72,3.2,4.07l.41-.3c-.32-.53-.62-1.07-1-1.57-3.7-5.13-7.34-10.3-9.51-16.33-.12-.34-.53-.57-.81-.85-.11-1.06-.23-2.12-.35-3.18,1.43,3.33,2.64,6.69,4.86,9.76.1-.39.21-.56.18-.69-1.18-4.7-2.55-9.37-3.51-14.11a52.62,52.62,0,0,1-.95-9.78,52.53,52.53,0,0,1,1-7.31,72,72,0,0,1,4.38-16.9,12.53,12.53,0,0,1,.72-1.35,1.47,1.47,0,0,1,.29,1.28,91.94,91.94,0,0,0-4.17,17c-.43,3.33-1.3,6.61-1,10,.59,6.85,2.61,13.38,4.25,20a3.44,3.44,0,0,0,.38.91,3.22,3.22,0,0,0,.45.54c-1.54-7.11-2.74-14.12-2.49-21.3.45,2.65.75,5.33,1.1,8a61.55,61.55,0,0,0,4.41,17.14,18.27,18.27,0,0,0,3.84,5.88,4.07,4.07,0,0,0-.08-1,66.53,66.53,0,0,1-6.87-26.82,63.94,63.94,0,0,1,2-19.07,76.52,76.52,0,0,1,4.11-12.9,4.32,4.32,0,0,0,.51-2.58,3.7,3.7,0,0,1,.4-2.59,38.69,38.69,0,0,1,2-4.5c1.65-2.93,3.31-5.87,5.22-8.63,1-1.38,2.29-2.94,3.77-3.41a5.26,5.26,0,0,0,3-2.47c.88-1.29,1.72-2.61,2.62-3.89a5.58,5.58,0,0,1,1-.88c.06.32.11.42.08.47q-3.84,5.57-7.71,11.12c-.18.26-.52.62-.75.59-1.6-.17-2,1.15-2.67,2.09-1.12,1.63-2.12,3.34-3.13,5a22.88,22.88,0,0,0-1,2.12c.14.09.29.17.44.25.86-1.23,1.69-2.49,2.61-3.68,1.81-2.36,4.35-4.05,6-6.59a24.1,24.1,0,0,1,3.1-3.13,5.27,5.27,0,0,0,1.2-1.53c1.88-4.72,5-8.66,7.83-12.81a13,13,0,0,0,2-4.72c.12-.58.18-1.17.27-1.76.73,2.61-.14,4.88-1.25,7.13-2.71,5.49-6.49,10.28-9.89,15.33-.16.25-.5.62-.68.58-1.23-.26-1.52.76-2,1.42-3.5,4.47-5.56,9.69-7.57,14.92a7.81,7.81,0,0,0-.24,1.63,3.59,3.59,0,0,0,1.06-1.37c.88-1.66,1.76-3.34,2.68-5,0-.08.49.08.75.13l.05-.06a8.22,8.22,0,0,0-1,1.26,65.61,65.61,0,0,0-6.62,20.31c-.12.8-.37,1.57-.55,2.36-.44-.34-.53-.58-.49-.79q1.35-6,2.72-12c.15-.64.65-1.32.53-1.88-.55-2.6.49-4.85,1.38-7.15s1.77-4.5,2.66-6.75a4.59,4.59,0,0,0-1.82,2c-1.68,3.57-3.47,7.09-4.91,10.75a85.1,85.1,0,0,0-5,22.55,59.72,59.72,0,0,0,1.05,16.44,30.38,30.38,0,0,0,.84,3.35c.29,1,.69,1.92,1,2.87a4.89,4.89,0,0,0,0-2c-.05-.56,0-1.13,0-2.16.45,1.24.72,2,1,2.8l.31-.32c.05-.06.06-.16.13-.2s.13,0,.27.05c1.64,7.73,4,15.13,11,19.94-5.09-5.75-7.84-12.63-9.76-19.94-1.7-6.46-2.32-19.63-.76-22.51a9.85,9.85,0,0,1,.28,1.52c-.05,2.55-.16,5.1-.21,7.65a5.94,5.94,0,0,0,.15,1.94c1.38,4,2.75,7.91,4.27,11.82a28.12,28.12,0,0,0,4.15,7.74c-.14-2.15-.11-4.37-.85-6.3-2.76-7.26-3.65-14.82-3.92-22.48M398.67,2.67l-.43.24c.09,1.38.1,2.76.28,4.13.31,2.42.4,4.9,1.7,7.11a6.8,6.8,0,0,0,3.48,3.33c.45.15,1.31.14,1.49-.13a2,2,0,0,0,.19-1.71q-2.4-5.38-5-10.69A14.75,14.75,0,0,0,398.67,2.67Zm-32.2,149.55.71-.41c-1.49-2.9-3.27-5.66-4.48-8.68s-2.31-6.16-3.53-9.42c-.13.39-.25.55-.23.69a53,53,0,0,0,3.64,13.22c.16.36.53,1,.67.94,1.39-.35,1.35.85,1.79,1.53S366,151.51,366.47,152.22Zm74.46-2.73c4.37-4.81,8.26-9.89,9.62-16.45-1.75,2.66-3.86,5.22-4.86,8.17C444.62,144.38,441.87,146.38,440.93,149.49ZM353.28,74.36c1-.3,1.62,1,2.8.28,3.05-1.76,6.24-3.29,9.36-4.93a4,4,0,0,0,.71-.66l-.28-.47C361.59,70.22,357.19,71.58,353.28,74.36Zm7.23,80.05c1,3.94,6.57,10.3,9.08,10.68Zm-25.67-17-.41.29a49.57,49.57,0,0,0,7.15,11.78c.14-.62.31-.93.22-1.07C339.5,144.7,337.17,141,334.84,137.38Zm-18.15,6.54a11.88,11.88,0,0,0,6.75,7.89Zm58.14,10.15.68-.27c-.72-2.27-1.44-4.53-2.16-6.81l-1.48.73C372.87,149.85,373.85,152,374.83,154.07Zm-45.28-5.77.46-.21q-2.22-4.74-4.43-9.47A23.62,23.62,0,0,0,329.55,148.3Zm28.71-77.9c-3.25.23-6.41,1.84-7.3,3.65Zm-9.5,92.7c2.38,1.78,5,3.11,8.25,2.56Zm37.92-10.68c-.14-2.22-.27-4.45-.41-6.68C385.5,148,386,150.23,386.68,152.42Zm-65.25-23.11a6.7,6.7,0,0,0,1.38,5.58ZM422,146.07l-.4-.33-2.72,3.52C420.89,149,421,147.19,422,146.07ZM368.62,154a4.16,4.16,0,0,0,2.24,3.43,11.36,11.36,0,0,0-1.34-2.29C369.24,154.74,368.92,154.37,368.62,154Zm33.7-58.65c.55-2,.55-2-.49-3.62Zm-.83,56.75.46.35,1.08-2.2-.4-.2Zm-48,.82-.38.35,1.51,1.71.38-.35Zm38-2.09-.07,0,0,1.21h.06C391.45,151.61,391.46,151.22,391.47,150.82Zm-65.15.27c-.24,1.59.54,1.79,1.54,1.8Z"/><path d="M425.53,141.88a12,12,0,0,0,1.16-2.06,50.57,50.57,0,0,0,3-18.13,52.62,52.62,0,0,0-.91-9.3,2.37,2.37,0,0,1,.25-1.49,15.48,15.48,0,0,1,1.52,6.82c.08,4.84.4,9.74-.86,14.49-1,3.73-2.25,7.38-3.39,11.08-.21.5-.42,1-.62,1.48-.16-.38-.46-.76-.44-1.13a10.28,10.28,0,0,1,.36-1.87Z"/><path d="M387,76.69c-1.58,6.17-3.16,12.35-4.75,18.58-.28-1.73,3.84-19.61,5-21.75.91-.09,1.13.5,1.09,1.22-.12,2.21-.3,4.41-.43,6.61-.09,1.63-.1,3.26-.22,4.89a24.55,24.55,0,0,1-.48,3.41A54.55,54.55,0,0,1,384.78,98a27.12,27.12,0,0,1,.47-2.84,45.63,45.63,0,0,0,1.65-11.69c0-2.2.34-4.41.52-6.61Z"/><path d="M369.44,100.54c-1.11-1.82-.55-3.58-.14-5.3a57,57,0,0,1,8.43-18.49c3.44-5.22,6.28-10.8,7.47-17,.32-1.68.46-3.4.68-5.1.86,5.81-1.23,10.94-3.67,16-.63,1.3-1,2.75-1.73,4-.84,1.39-2,2.59-3,3.91a46.54,46.54,0,0,0-7.95,18.65A20.24,20.24,0,0,0,369.44,100.54Z"/><path d="M407.56,99.22c-.39-3.71-.64-6.94-1.07-10.14a14,14,0,0,0-2.83-6.48c-1.07-1.46-2.07-3-3-4.49a12.44,12.44,0,0,1-.84-1.94c.46,0,.71-.11.75,0,2.2,3.34,5,6.37,6.21,10.27A25.67,25.67,0,0,1,407.56,99.22Z"/><path d="M395.66,76.17c3.5,7.53,3.71,15.55,3.11,23.69-.3-4-.36-8-1-12s-1.79-7.74-2.72-11.6Z"/><path d="M390.11,91.08c-1.15,1.43-.78,3.24-1.2,4.86a30.9,30.9,0,0,1-1.29,4.91c.3-2.25.47-4.53.93-6.74a54.45,54.45,0,0,0,.75-12.93,9.81,9.81,0,0,1,.45-4.41l.53,0c0,.6-.08,1.2,0,1.8.12,1.86-.15,3.74.7,5.56a2.94,2.94,0,0,1-.08,2.58c-1.14,1.4-.88,2.87-.8,4.39Z"/><path d="M366.12,88.76c.47-.65,2-1,.6-2.18-.07-.06-.05-.37,0-.38,1.85-.47,1.2-2.62,2.51-3.6s1.91-2.43,2.94-3.6a9.22,9.22,0,0,1,2.49-1.88A30.66,30.66,0,0,0,368.21,87c-1.43,3.65-2.77,7.33-4.29,11.36a19.1,19.1,0,0,1,.36-2.66c.52-1.81,1.16-3.58,1.7-5.38a8.65,8.65,0,0,0,.2-1.62Z"/><path d="M440.45,98.12A9.09,9.09,0,0,1,444,105c-1.4-2.27-2.66-4.3-3.9-6.34C440,98.61,440.24,98.42,440.45,98.12Z"/><path d="M394.7,66.62c.79,2.17,1.57,4.34,2.49,6.86C395.45,72.56,395.07,71.51,394.7,66.62Z"/><path d="M398.56,61.83a7.34,7.34,0,0,1-2-4.48C398,58.19,398.61,59.5,398.56,61.83Z"/><path d="M381.59,52.44l-1.47,4.32-.53-.18c.45-1.45.89-2.9,1.34-4.35Z"/><path d="M368.32,92.78c-.42-1.53.68-2.55,1.23-4.09C369.79,90.41,369.68,90.82,368.32,92.78Z"/><path d="M390.19,59.91c0-1.19.07-2.37.12-4.13C391,57.66,391,57.66,390.19,59.91Z"/><path d="M386,99.82l-.87,4.05-.5-.1c.18-1.36.35-2.72.52-4.08Z"/><path d="M410.23,99.75a3,3,0,0,1-.82-3.38A3.58,3.58,0,0,1,410.23,99.75Z"/><path d="M387.59,43.79c1.12,1.41,0,2.25-.29,3.15C387.38,46,387.47,45.1,387.59,43.79Z"/><path d="M341.86,84.19c-3.2,2.34-4.07,6.45-6.95,9.21C334.62,90.89,338.51,85.76,341.86,84.19Z"/><path d="M327.42,119c.35,2,.59,3.7.94,5.37s.81,3.26,1.23,4.91C327.78,128.32,327.12,125.27,327.42,119Z"/><path d="M316.87,106.64c-1-3.23,1.05-5.29,2.59-7.55-.25.69-.47,1.39-.76,2.06-.65,1.48-1.49,2.89-1.18,4.63C317.56,106,317.1,106.35,316.87,106.64Z"/><path d="M342.4,89.22c-.32.83-.65,1.66-1,2.48l-.52-.28c.52-.71,1-1.42,1.55-2.14Z"/></g></svg>