<svg xmlns="http://www.w3.org/2000/svg" viewBox="0 0 1588.26 90.81"><g id="Layer_2" data-name="Layer 2"><path d="M23.39,85A43.25,43.25,0,0,1,6.24,68.86,44.53,44.53,0,0,1,0,45.41,44.57,44.57,0,0,1,6.24,22,43.32,43.32,0,0,1,23.39,5.8,51.63,51.63,0,0,1,48,0,53,53,0,0,1,69.61,4.24a41.58,41.58,0,0,1,16,12.23L69.86,30.69Q61.37,20.46,49.28,20.46a25.4,25.4,0,0,0-12.67,3.12A21.6,21.6,0,0,0,28,32.37a27.06,27.06,0,0,0-3.06,13,27,27,0,0,0,3.06,13,21.57,21.57,0,0,0,8.6,8.8,25.4,25.4,0,0,0,12.67,3.12q12.09,0,20.58-10.23L85.58,74.35a41.56,41.56,0,0,1-16,12.22A52.87,52.87,0,0,1,48,90.81,51.63,51.63,0,0,1,23.39,85Z"/><path d="M192.11,1.75V89.07h-24.7V55H133.73V89.07H109V1.75h24.7V34.56h33.68V1.75Z"/><path d="M232.09,80.21q-10.8-10.6-10.79-30.06V1.75H246V49.4q0,21,16.59,21t16.47-21V1.75h24.32v48.4q0,19.45-10.79,30.06t-30.25,10.6Q242.89,90.81,232.09,80.21Z"/><path d="M349.79,21.33H323V1.75h78.21V21.33H374.49V89.07h-24.7Z"/><path d="M506,1.75V89.07H485.64L447.09,42.54V89.07h-24.2V1.75h20.33l38.55,46.53V1.75Z"/><path d="M606,70V89.07H535.91V1.75H604.4V20.83h-44V35.55h38.8V54h-38.8V70Z"/><path d="M678.25,57.76V89.07H653.54V57.38L620.24,1.75h26.07L667,36.43,687.73,1.75h23.95Z"/><path d="M789.2,80.21q-10.79-10.6-10.79-30.06V1.75h24.7V49.4q0,21,16.59,21t16.47-21V1.75H860.5v48.4q0,19.45-10.79,30.06t-30.26,10.6Q800,90.81,789.2,80.21Z"/><path d="M972.77,1.75V89.07H952.43L913.89,42.54V89.07h-24.2V1.75H910l38.55,46.53V1.75Z"/><path d="M1002.71,1.75H1044q14.34,0,25.45,5.36a40.4,40.4,0,0,1,17.21,15.22q6.1,9.86,6.11,23.08t-6.11,23.07a40.27,40.27,0,0,1-17.21,15.22A57.79,57.79,0,0,1,1044,89.07h-41.29ZM1043,69.36q11.22,0,18-6.36t6.79-17.59q0-11.23-6.79-17.59t-18-6.36h-15.59v47.9Z"/><path d="M1245.83,89.07l-.25-46.28-22.45,37.67h-11L1189.82,44v45H1167V1.75h20.33L1218,52.14,1248,1.75h20.34l.25,87.32Z"/><path d="M1368.59,70V89.07h-70.11V1.75H1367V20.83h-44V35.55h38.79V54h-38.79V70Z"/><path d="M1477.86,1.75V89.07h-24.7V55h-33.68V89.07h-24.7V1.75h24.7V34.56h33.68V1.75Z"/><path d="M1546,65.87H1532.5v23.2h-24.7V1.75h39.92q11.85,0,20.58,3.92a30.66,30.66,0,0,1,13.48,11.23,30.82,30.82,0,0,1,4.74,17.16,30.38,30.38,0,0,1-4.43,16.52,29.91,29.91,0,0,1-12.66,11l18.83,27.45h-26.44Zm11.73-41.29q-3.87-3.37-11.48-3.37H1532.5V46.78h13.72q7.62,0,11.48-3.31t3.87-9.41Q1561.57,27.94,1557.7,24.58Z"/></g></svg>