<svg xmlns="http://www.w3.org/2000/svg" width="541.334" height="239.824" viewBox="0 0 541.334 239.824"><g transform="translate(-88.75 -75.093)"><g transform="translate(88.75 235.097)"><path d="M96.722,329.862a14.765,14.765,0,0,1-5.846-5.506,16.09,16.09,0,0,1,0-15.987,14.775,14.775,0,0,1,5.846-5.506,17.609,17.609,0,0,1,8.4-1.977,18.036,18.036,0,0,1,7.356,1.446,14.168,14.168,0,0,1,5.443,4.167l-5.358,4.847a8.815,8.815,0,0,0-7.015-3.486,8.664,8.664,0,0,0-4.316,1.063,7.374,7.374,0,0,0-2.934,3,10,10,0,0,0,0,8.886,7.369,7.369,0,0,0,2.934,3,8.657,8.657,0,0,0,4.316,1.063,8.813,8.813,0,0,0,7.015-3.486l5.358,4.847a14.14,14.14,0,0,1-5.443,4.167,18.036,18.036,0,0,1-7.356,1.446A17.609,17.609,0,0,1,96.722,329.862Z" transform="translate(-88.75 -300.886)"/><path d="M169.506,301.726v29.763h-8.419V319.881H149.608v11.607h-8.419V301.726h8.419v11.182h11.479V301.726Z" transform="translate(-104.029 -301.131)"/><path d="M198.866,328.47q-3.678-3.613-3.677-10.247v-16.5h8.419v16.242q0,7.143,5.655,7.143,5.612,0,5.612-7.143V301.726h8.29v16.5q0,6.633-3.677,10.247t-10.311,3.614Q202.545,332.084,198.866,328.47Z" transform="translate(-119.763 -301.131)"/><path d="M253.231,308.4h-9.142v-6.675h26.659V308.4h-9.1v23.087h-8.419Z" transform="translate(-134.011 -301.131)"/><path d="M320.466,301.726v29.763h-6.93L300.4,315.629v15.859h-8.248V301.726h6.93l13.138,15.859V301.726Z" transform="translate(-148.014 -301.131)"/><path d="M370.4,324.983v6.505h-23.9V301.726h23.342v6.505H354.842v5.017h13.223v6.293H354.842v5.442Z" transform="translate(-163.853 -301.131)"/><path d="M406.84,320.817v10.671h-8.419v-10.8l-11.352-18.963h8.886l7.058,11.82,7.058-11.82h8.163Z" transform="translate(-175.671 -301.131)"/><path d="M466.825,328.47q-3.678-3.613-3.678-10.247v-16.5h8.419v16.242q0,7.143,5.655,7.143,5.613,0,5.612-7.143V301.726h8.291v16.5q0,6.633-3.678,10.247t-10.311,3.614Q470.5,332.084,466.825,328.47Z" transform="translate(-197.838 -301.131)"/><path d="M544.984,301.726v29.763h-6.93l-13.138-15.859v15.859h-8.248V301.726H523.6l13.137,15.859V301.726Z" transform="translate(-213.432 -301.131)"/><path d="M571.027,301.726H585.1a19.7,19.7,0,0,1,8.674,1.828,13.778,13.778,0,0,1,5.868,5.187,15.9,15.9,0,0,1,0,15.732,13.768,13.768,0,0,1-5.868,5.187,19.69,19.69,0,0,1-8.674,1.828H571.027Zm13.733,23.045A8.631,8.631,0,0,0,590.9,322.6a8.916,8.916,0,0,0,0-11.99,8.631,8.631,0,0,0-6.144-2.168h-5.315v16.326Z" transform="translate(-229.271 -301.131)"/><path d="M676.916,331.489l-.085-15.774-7.653,12.84h-3.742l-7.611-12.415v15.349h-7.781V301.726h6.931L667.435,318.9l10.2-17.177h6.93l.085,29.763Z" transform="translate(-252.294 -301.131)"/><path d="M737.18,324.983v6.505H713.286V301.726h23.342v6.505H721.619v5.017h13.224v6.293H721.619v5.442Z" transform="translate(-270.72 -301.131)"/><path d="M787.922,301.726v29.763H779.5V319.881h-11.48v11.607H759.6V301.726h8.419v11.182H779.5V301.726Z" transform="translate(-284.216 -301.131)"/><path d="M826.976,323.58h-4.592v7.908h-8.418V301.726h13.606a16.976,16.976,0,0,1,7.015,1.339,10.826,10.826,0,0,1,4.7,15.306,10.2,10.2,0,0,1-4.316,3.763l6.421,9.354h-9.015Zm4-14.073a5.8,5.8,0,0,0-3.912-1.149h-4.677v8.716h4.677a5.883,5.883,0,0,0,3.912-1.127,3.991,3.991,0,0,0,1.318-3.21A4.055,4.055,0,0,0,830.972,309.507Z" transform="translate(-300.055 -301.131)"/><path d="M182.064,383.126v18.85h-1.912V386.9l-7.405,12.683H171.8l-7.405-12.6v15h-1.912v-18.85h1.643l8.186,13.976,8.105-13.976Z" transform="translate(-110.235 -324.848)"/><path d="M215.058,396.94h-10.5l-2.262,5.036H200.22l8.617-18.85H210.8l8.617,18.85h-2.1Zm-.728-1.616L209.807,385.2l-4.524,10.125Z" transform="translate(-121.229 -324.848)"/><path d="M253.176,383.126v18.85h-1.643l-12.117-15.3v15.3h-1.993v-18.85h1.643l12.144,15.3v-15.3Z" transform="translate(-132.068 -324.848)"/><path d="M275.835,400.037a8.413,8.413,0,0,1-2.047-6.113v-10.8h1.993v10.717a7.05,7.05,0,0,0,1.481,4.9,6.519,6.519,0,0,0,8.59,0,7.053,7.053,0,0,0,1.481-4.9V383.126h1.939v10.8a8.448,8.448,0,0,1-2.033,6.113,8.79,8.79,0,0,1-11.4,0Z" transform="translate(-142.664 -324.848)"/><path d="M311.8,384.849v7.405h9.747v1.723H311.8v8h-1.993v-18.85h12.925v1.723Z" transform="translate(-153.161 -324.848)"/><path d="M348.893,396.94h-10.5l-2.261,5.036h-2.073l8.616-18.85h1.966l8.617,18.85h-2.1Zm-.728-1.616L343.642,385.2l-4.524,10.125Z" transform="translate(-160.225 -324.848)"/><path d="M377.1,393.116l-3.85,3.9v4.955h-1.993v-18.85h1.993v11.391l11.067-11.391h2.288l-8.158,8.536,8.724,10.313H384.8Z" transform="translate(-171.064 -324.848)"/><path d="M404.9,384.849h-6.624v-1.723h15.241v1.723h-6.624v17.126H404.9Z" transform="translate(-178.936 -324.848)"/><path d="M431.255,400.037a8.41,8.41,0,0,1-2.047-6.113v-10.8H431.2v10.717a7.05,7.05,0,0,0,1.481,4.9,6.519,6.519,0,0,0,8.59,0,7.053,7.053,0,0,0,1.481-4.9V383.126h1.939v10.8a8.448,8.448,0,0,1-2.033,6.113,8.79,8.79,0,0,1-11.4,0Z" transform="translate(-187.949 -324.848)"/><path d="M478.1,401.976l-4.308-6.059a13.669,13.669,0,0,1-1.509.081h-5.062v5.977h-1.992v-18.85h7.054a8.514,8.514,0,0,1,5.655,1.723,5.864,5.864,0,0,1,2.047,4.739,6.126,6.126,0,0,1-1.118,3.73,6.189,6.189,0,0,1-3.19,2.195l4.6,6.463Zm-1.589-8.913a4.862,4.862,0,0,0,0-6.988,6.564,6.564,0,0,0-4.282-1.225h-5.009V394.3h5.009A6.513,6.513,0,0,0,476.515,393.062Z" transform="translate(-198.445 -324.848)"/><path d="M517.665,377.73h1.75L510.529,403.1h-1.75Z" transform="translate(-211.133 -323.276)"/><path d="M550.6,400.833a9.07,9.07,0,0,1-3.528-3.434,10.08,10.08,0,0,1,0-9.829,9.047,9.047,0,0,1,3.541-3.433,10.366,10.366,0,0,1,5.063-1.239,10.5,10.5,0,0,1,3.878.7,8.042,8.042,0,0,1,3.016,2.047L561.3,386.91a7.511,7.511,0,0,0-5.574-2.235,8.187,8.187,0,0,0-4.066,1.023,7.471,7.471,0,0,0-2.868,2.8,8.179,8.179,0,0,0,0,7.971,7.466,7.466,0,0,0,2.868,2.8,8.187,8.187,0,0,0,4.066,1.023,7.407,7.407,0,0,0,5.574-2.262l1.266,1.266a8.155,8.155,0,0,1-3.029,2.059,10.41,10.41,0,0,1-3.891.714A10.289,10.289,0,0,1,550.6,400.833Z" transform="translate(-221.917 -324.782)"/><path d="M591.065,396.94h-10.5l-2.262,5.036h-2.073l8.617-18.85h1.966l8.617,18.85h-2.1Zm-.727-1.616L585.814,385.2l-4.523,10.125Z" transform="translate(-230.786 -324.848)"/><path d="M614.544,384.849H607.92v-1.723h15.241v1.723h-6.624v17.126h-1.993Z" transform="translate(-240.02 -324.848)"/><path d="M652.941,400.252v1.723H639.612v-18.85h12.925v1.723H641.6v6.705h9.749v1.7H641.6v7Z" transform="translate(-249.254 -324.848)"/><path d="M683.606,401.976l-4.308-6.059a13.657,13.657,0,0,1-1.508.081h-5.063v5.977h-1.992v-18.85h7.055a8.513,8.513,0,0,1,5.654,1.723,5.864,5.864,0,0,1,2.047,4.739,6.126,6.126,0,0,1-1.117,3.73,6.191,6.191,0,0,1-3.191,2.195l4.6,6.463Zm-1.589-8.913a4.862,4.862,0,0,0,0-6.988,6.561,6.561,0,0,0-4.282-1.225h-5.009V394.3h5.009A6.509,6.509,0,0,0,682.017,393.062Z" transform="translate(-258.322 -324.848)"/><path d="M703.908,383.126H705.9v18.85h-1.992Z" transform="translate(-267.988 -324.848)"/><path d="M736.836,383.126v18.85h-1.642l-12.118-15.3v15.3h-1.992v-18.85h1.643l12.145,15.3v-15.3Z" transform="translate(-272.993 -324.848)"/><path d="M770.266,392.484h1.911v7.19a9.2,9.2,0,0,1-3.123,1.777,11.6,11.6,0,0,1-3.8.619,10.42,10.42,0,0,1-5.089-1.238,9.142,9.142,0,0,1-3.555-3.434,9.989,9.989,0,0,1,0-9.829,9.146,9.146,0,0,1,3.555-3.433,10.476,10.476,0,0,1,5.116-1.239,11.041,11.041,0,0,1,3.958.687,7.866,7.866,0,0,1,3.043,2.033l-1.239,1.266a7.748,7.748,0,0,0-5.681-2.208,8.451,8.451,0,0,0-4.133,1.01,7.4,7.4,0,0,0-2.895,2.8,8.108,8.108,0,0,0,0,7.984,7.563,7.563,0,0,0,2.881,2.8,8.3,8.3,0,0,0,4.121,1.023,8.213,8.213,0,0,0,4.928-1.454Z" transform="translate(-282.968 -324.782)"/></g><g transform="translate(307.52 75.093)"><path d="M459.259,75.093a6.688,6.688,0,0,1,4.159,3.964c1.008,2.288,2.24,4.476,3.313,6.738.225.473.441,1.24.218,1.589-1.5,2.348-2.166,5.014-3.1,7.58a58.721,58.721,0,0,0-2.821,12.422,15.706,15.706,0,0,0,1.409,9.709,24.484,24.484,0,0,0,5.092,6.381,16.554,16.554,0,0,0,4.29,2.306,58.338,58.338,0,0,1,11.95,7.877c2.078,1.694,4.225,3.309,6.227,5.088a28.8,28.8,0,0,1,3.417,3.727c3.842,4.878,5.777,10.6,7.117,16.559a16.113,16.113,0,0,1,.317,3.812,21.12,21.12,0,0,1-2.766,10.316,51.533,51.533,0,0,1-5.676,8.581,54.87,54.87,0,0,1-6.843,6.476,14.372,14.372,0,0,1-4.44,1.964,3.513,3.513,0,0,1-2.212-.058,1.868,1.868,0,0,0-1.921.3,14.368,14.368,0,0,1-7.377,2.46c-1.156.045-2.308.447-3.455.417-1.445-.038-2.879-.38-4.325-.534a4.736,4.736,0,0,0-1.691.082c-2.64.707-5.231,1.641-7.9,2.17a27.034,27.034,0,0,1-8.689.157,10.5,10.5,0,0,1-3.187-1.349c-.69-.352-1.2-.771-2.033-.119-.463.361-1.341.137-1.983.333-3.841,1.171-7.477.332-11.058-1.065a53.971,53.971,0,0,0-7.526-2.2c-4.432-1.025-8.513-2.861-11.225-6.835A22.391,22.391,0,0,0,405,182.029a31.734,31.734,0,0,1-5.767-10.928c-2.339-7.1-2.506-14.377.429-21.4a37.676,37.676,0,0,1,8.078-12.385,20.233,20.233,0,0,1,5.733-4.265,21.039,21.039,0,0,0,2.837-1.684c3.623-2.406,7.7-3.88,11.617-5.683,2.059-.948,4.184-1.764,6.316-2.54,3.073-1.12,5.118-3.418,6.9-5.968a28.943,28.943,0,0,0,4.076-9.412,58.638,58.638,0,0,1,2.533-7.258c2.475-6.041,4.984-12.071,7.614-18.045C456.473,79.961,457.916,77.616,459.259,75.093Zm-48.114,111.48c.3.574.816.675,1.287.877l.17-.343-1.363-.629a3.9,3.9,0,0,0-1.9-1.383l-.185.3Zm54.846,1.31a4.161,4.161,0,0,0,1.771-3.192q-.979,1.5-1.958,3.007l-1.067,1.19.364.287Zm-11.1-101.808c1.621-2.842,3.248-5.68,4.843-8.537.1-.17-.08-.492-.176-.979-.361.356-.614.51-.732.735-1.181,2.255-2.372,4.505-3.484,6.8a8.759,8.759,0,0,0-.446,1.99,1.119,1.119,0,0,0-.4,1.6Q454.688,86.878,454.888,86.075Zm25.426,89.482a3.575,3.575,0,0,0-.557.6c-1.215,2.107-2.4,4.228-3.617,6.334-.3.519-.666,1-1,1.5a2.249,2.249,0,0,0,1.244-.878c1.341-1.8,2.661-3.618,3.987-5.428l.438-1.041c1.91-2.544,2.584-5.585,3.474-8.556a14.672,14.672,0,0,1-.424,3.451,31.845,31.845,0,0,1-7.988,13.556c-.951.946-1.784,2.012-2.931,3.318a3.644,3.644,0,0,0,.718-.25c2.556-2.446,5.429-4.617,6.931-7.983a6.078,6.078,0,0,1,.592-.865,32.5,32.5,0,0,0,5.164-11.768,55.89,55.89,0,0,0,1.01-7.944c.11-1.957-.3-3.938-.334-5.91a29.143,29.143,0,0,0-2.219-9.832,8.111,8.111,0,0,0-.6-1.047c-.125.7-.215,1.2-.3,1.7a14.557,14.557,0,0,0-3.107-6.033c.28,2.151,1.329,4.153,1.148,6.366-.838-2.6-1.444-5.264-2.967-7.58-1.3-1.978-4.585-5.177-5.828-5.6.327.519.6.957.875,1.387a23.771,23.771,0,0,1,3.924,8.893,37.468,37.468,0,0,0,1.042,4.756,32.949,32.949,0,0,1,1.469,12.6c-.112,1.278-.132,2.563-.237,3.841a35.851,35.851,0,0,1-2.271,11.248c-.468,1.106-.832,2.256-1.244,3.386l.242.142,3.444-4.663.186.157q-.163,1.11-.325,2.219Zm-58.975-37.239.042.043c.675-3.034,3.475-4.518,4.956-7.042l-4.541,2.824-.219-.356,6.353-4.141c-5.112,1.686-9.451,4.66-13.579,8.029a20.92,20.92,0,0,1,2.677-2.689c.916-.8,1.852-1.581,2.779-2.37l-.283-.337-5.208,4.141-.2-.227,4.488-3.948c-3.018,1.305-5.27,3.554-7.49,5.845l-.281-.317,5.571-5.25a22.145,22.145,0,0,0-4.868,2.636c-5.3,3.938-8.822,9.243-11.3,15.272a32.111,32.111,0,0,0-1.87,9.391,6.743,6.743,0,0,0,.271,2.582c.118.374.71.541.665,1.2-.3,4.413,1.555,8.168,3.722,11.813a8.1,8.1,0,0,0,.85,1.018.706.706,0,0,0,.026-.689,26.973,26.973,0,0,1-2.785-8.433c-.262-1.777-.261-3.591-.5-5.373a14.884,14.884,0,0,1,.637-7.106,29.26,29.26,0,0,0,.879,11.343,34.433,34.433,0,0,0,5.011,10.2c.1-.386.182-.511.152-.6-.111-.327-.255-.643-.393-.961-1.58-3.634-3.234-7.239-3.9-11.2a19.775,19.775,0,0,1,.1-5.932c.123,3.477.342,6.916,1.888,10.116a4.058,4.058,0,0,0,0-1.718,37.96,37.96,0,0,1-.51-11.664,24.427,24.427,0,0,1,2.075-8.092,12.951,12.951,0,0,1,.838-1.373l.424.2c-.108.4-.2.8-.327,1.195-.6,1.82-1.319,3.61-1.794,5.463a17.9,17.9,0,0,0-.342,3.651c-.084,1.969-.119,3.94-.139,5.91a1.436,1.436,0,0,0,.286.984c1.1.993.986,2.409,1.353,3.65s.609,2.5,1.032,3.7a7.067,7.067,0,0,0,1.051,1.541c-.233-2.586-.688-5.03-1.1-7.481a31.73,31.73,0,0,1-.559-8.344,52.858,52.858,0,0,1,2.444-10.529,11.407,11.407,0,0,1,2.616-4.458c.189,1.565-.855,2.273-1.127,3.239-.315,1.12-.694,2.224-.952,3.358-.246,1.076-.386,2.178-.544,3.273s-.317,2.19-.407,3.29-.1,2.217-.137,3.326c-.04,1.169-.128,2.339-.089,3.5a26.765,26.765,0,0,0,.34,3.3c.174,1.092.427,2.174.7,3.248.283,1.131.574,2.265.959,3.365.358,1.021.844,2,1.273,2.995l.275-.089q-.272-1.831-.544-3.662c.9,3.7,2.832,6.9,4.717,10.105,1.9,3.224,3.88,6.422,7.31,8.354a46.216,46.216,0,0,1-8.65-13.4c-2.2-5.075-2.865-10.421-3.092-15.857-.237-5.709,1.268-14,2.964-15.707a6.941,6.941,0,0,1-.135,1.278,45.412,45.412,0,0,0-1.866,17.43,15.578,15.578,0,0,0,1.268,6.13c1.064,2.139,2.18,4.252,3.3,6.362a14.918,14.918,0,0,0,.992,1.444c-1.159-3.615-2.933-6.947-3.262-10.763.383.984.766,1.967,1.259,3.234-.13-3.253-.225-6.148-.366-9.041a23.247,23.247,0,0,1,1.874-10.194c.874-2.091,2.122-4.031,2.932-6.143A32.254,32.254,0,0,1,429,131.683a31.31,31.31,0,0,1,2.764-2.231,1.55,1.55,0,0,0-1.164.244c-1.774,1.412-3.593,2.781-5.253,4.318C423.91,135.342,422.666,136.876,421.339,138.318Zm15.018,26.577a64.128,64.128,0,0,0,2.261,10.755c.6,2.052,2.1,3.919,1.56,6.273-.054.235.156.561.307.8,1.166,1.881,2.338,3.757,3.534,5.618a2.6,2.6,0,0,0,.672.522,44.023,44.023,0,0,1-4.975-14.689l2.021,4.173a3.061,3.061,0,0,0-.052-1.581c-1.067-4.788-2.059-9.588-1.706-14.535.137-1.916.346-3.832.638-5.731.541-3.511.935-7.068,1.821-10.495a90.911,90.911,0,0,1,3.649-10.736c1.28-3.223,2.532-6.585,6.361-8.241a103.255,103.255,0,0,0-6.206,17.236,4.343,4.343,0,0,1,.089-1.727c1.238-3.814,2.519-7.614,3.781-11.42.127-.383.218-.777.325-1.166a1.058,1.058,0,0,0-.751.592c-1.485,3.1-2.985,6.2-4.425,9.325a23.727,23.727,0,0,0-1.2,3.28,109.75,109.75,0,0,0-3.075,16.46,30.274,30.274,0,0,0,.476,10.393q-.068-3.358-.137-6.716a39.217,39.217,0,0,1,.75,5.361,22.868,22.868,0,0,0,.8,5.129c.58,1.623.337,3.536,1.712,4.916a88.771,88.771,0,0,1-.97-14.331c.134-4.774.4-9.529,1.845-14.139a70.686,70.686,0,0,0,3.459,38.581c-.612-3.674-1.592-7.271-2.032-11.006-.518-4.4-1.252-9.192-.3-11.342a19.4,19.4,0,0,0,.64,7.48,41.737,41.737,0,0,1,.641-8.325c.068,1.408-.009,2.81,0,4.211s.065,2.781.146,4.168c.085,1.452.14,2.914.364,4.347a12.125,12.125,0,0,0,1.207,4.408,9.03,9.03,0,0,0,.028-1.091c-.49-3.326-1.183-6.641-.464-10.025a2.592,2.592,0,0,0,.018-.7,60.549,60.549,0,0,1,1.036-13.325c-.7,8.7-.886,17.38,1.192,25.94.038-1.968-.169-3.927-.171-5.888,0-2.037.124-4.082.322-6.111a28.769,28.769,0,0,1,.662-5.994c.478,5.866.927,11.363,1.375,16.86.945-10.973.432-21.918-.443-32.871a32.692,32.692,0,0,1,.736,4.56c.227,2.9.388,5.81.533,8.718.157,3.141.267,6.283.393,9.425.07,1.746.116,3.493.211,5.238a5.2,5.2,0,0,0,.317,1.12,44.26,44.26,0,0,0,.9-5.122,14.72,14.72,0,0,1,.6-3.593,6.434,6.434,0,0,0,.511-2.505c.021-2.78.057-5.561.01-8.339a67.42,67.42,0,0,0-.913-11.831c-.492-2.516-.87-5.053-1.3-7.58l-.039.043c.3.176.7.283.876.544a4.661,4.661,0,0,1,.4,1.222,14.85,14.85,0,0,0,.22-4.119c-.195-3.019-.379-6.04-.68-9.05-.22-2.195-.624-4.37-.925-6.558-.021-.153.125-.33.193-.5a1.817,1.817,0,0,1,.3.889c.488,2.068-.2,4.486,1.811,6.108.071.057.05.221.085.331.427,1.329.792,2.684,1.3,3.981A18.154,18.154,0,0,1,460,140.054a28.909,28.909,0,0,0,.219,3.662c.4,4.756.951,9.5,1.16,14.268.164,3.727-.091,7.474-.181,11.211a4.693,4.693,0,0,1-.253,1.017c-.725-2.83-.111-5.6-.164-8.36-.055-2.853-.183-5.705-.278-8.557a55.418,55.418,0,0,0-.93-8.231c-.506-2.739-.734-5.529-1.077-8.245l.571.928a16.825,16.825,0,0,0-2.111-7.363c.04,1.643.3,3.251.327,4.862.033,2.32-.128,4.642-.172,6.963a21.54,21.54,0,0,0,.079,3.138,110.958,110.958,0,0,1,.988,14.633,146.6,146.6,0,0,1-1.146,20.418c-.1.68-.052,1.382-.084,2.461.3-.524.4-.66.465-.811a27.564,27.564,0,0,0,2-7.4c.054-.506.031-1.086.974-1.043-.463,4.228-2.048,8.132-3.034,12.2a50.54,50.54,0,0,0,3.312-6.546,54.506,54.506,0,0,0,2.265-6.99c1.407-5.649,1.436-11.437,1.429-17.211a42.321,42.321,0,0,0-.376-5.217c-.378-3.007-.789-6.013-1.315-9-.514-2.921-1.2-5.811-1.781-8.72-.145-.726-.173-1.476-.255-2.215a47.121,47.121,0,0,1,3.209,7.957,15.019,15.019,0,0,1,.71,5.838,24.837,24.837,0,0,0,.2,5.487c.125,1.449.273,2.9.308,4.352.046,1.925-.032,3.854-.013,5.78a71.187,71.187,0,0,1-2.589,18.979,9.226,9.226,0,0,0-.16,1.079c1.914-3.394,2.722-7.139,3.687-10.831l.427.114-1.813,8.285a30.922,30.922,0,0,0,3.549-13.628c.512,4.192-.372,8.177-1.625,12.14a14.284,14.284,0,0,0,1.533-3.3,49.635,49.635,0,0,0,2.284-11.811c.079-1.582.638-3.178-.575-4.589a.521.521,0,0,1-.045-.491c.814-1.091.163-2.108-.111-3.154-.152-.583-.4-1.214.337-1.809a21.471,21.471,0,0,1,1.344,9.5,55.654,55.654,0,0,1-2.8,13.484,2.374,2.374,0,0,0-.029.691l.218.04,1.684-3.26.22.1-2.722,7.791a32.871,32.871,0,0,0,5.167-14.427,19.221,19.221,0,0,1-.032,3.265c-.126,1.035-.477,2.04-.647,3.072-.167,1.01-.813,1.933-.727,3.192a3.153,3.153,0,0,0,.408-.417,4.619,4.619,0,0,0,.288-.633,33.709,33.709,0,0,0,2.175-13.371c-.124-2.265-.517-4.524-.522-6.787a35.508,35.508,0,0,0-2-11.3,3.272,3.272,0,0,0-.329-.57l-.229.089.444,4.094-.338.036c-.225-1.242-.494-2.48-.668-3.73-.46-3.312-1.451-6.354-3.987-8.729-.651-.609-3.06-4.073-3.657-4.862.7-.051,3.175,2.558,3.959,2.5.451.6,1.116,1.4,1.7,2.261,2.856,4.186,5.554,8.439,5.841,13.728.06,1.1.306,2.189.419,3.288.238,2.316.5,4.632.653,6.954a37.717,37.717,0,0,1-.849,11.989c-.754,2.922-1.921,5.736-2.889,8.6a9.969,9.969,0,0,0-.251,1.186l.422.134,2.166-4.8a12.1,12.1,0,0,1-.955,3.316c-.924,1.945-1.971,3.832-2.957,5.748-.22.428-.4.877-.6,1.317,2.792-3.2,4.608-6.941,6.493-10.651-.663,3.33-2.82,6.018-4.151,9.355a6.315,6.315,0,0,0,2.846-3.3,38.411,38.411,0,0,0,4.309-16.8,11.876,11.876,0,0,1,.089-1.749c.934-5.755-.227-11.215-2.358-16.965-.034,1.145-.056,1.878-.078,2.611a37.741,37.741,0,0,0-4.508-10.728c-1.3-1.992-2.687-3.943-4.177-5.8-.465-.579-1.4-.771-2.11-1.165-.465-.258-.9-.561-.607-1.226,1.074.576,2.122,1.13,3.157,1.7a1.245,1.245,0,0,1,.325.4c1.791,2.582,4,4.876,5.293,7.8.339.77.77.461,1.285-.043-.9-1.415-1.813-2.829-2.7-4.255-.9-1.443-2.541-2.356-2.873-4.262l2.186,1.97c-.173-.891-.271-1.392-.407-2.094a7.736,7.736,0,0,1,.783.492c1.232,1.059,2.389,2.219,3.7,3.173A22.135,22.135,0,0,1,481.692,138c.719,1.075,1.075,2.439,2.458,3,.264.108.416.546.568.858a27.948,27.948,0,0,1,2.631,8.664,58.373,58.373,0,0,1,.385,12.522,30.27,30.27,0,0,1-2.993,11.422,16.733,16.733,0,0,0-.624,1.588l.364.137a67.06,67.06,0,0,0,4.082-8.4,17.3,17.3,0,0,1-.916,3.52,37.648,37.648,0,0,1-4.705,8.371,2.723,2.723,0,0,0-.277.78c3.523-3.53,5.428-8.047,7.926-12.181a11.151,11.151,0,0,0,1.077-3.131,27.7,27.7,0,0,0,.7-3.933c.268-2.83-.549-5.549-1.088-8.514a19.187,19.187,0,0,1,2.383,9.065,15.11,15.11,0,0,1-1.086,7.031c-1.586,3.566-3.2,7.118-4.8,10.68a10.013,10.013,0,0,0-.344,1.073,33.43,33.43,0,0,0,6.7-10.552l-.719,3.131.389.1c.408-1.378.881-2.74,1.212-4.135,1.117-4.7,1.513-9.417-.007-14.131a3.772,3.772,0,0,1,.019-1.195c2.717,5.988,1.585,12,.4,18.021a13.567,13.567,0,0,0,2.561-9.176,10.343,10.343,0,0,1,.453,2.194,20.041,20.041,0,0,1-.047,2.072,14.839,14.839,0,0,0,1.361-8.341,40.846,40.846,0,0,0-6.729-15.428,28.88,28.88,0,0,0-2-2.183c.266,1.208,1.2,2.05,1.294,3.551-1.981-2.165-3.027-4.749-5.314-6.281l1.352,2.392c-3.172-2.869-5.64-6.366-9.5-8.368.028.35.317.438.509.626a40.91,40.91,0,0,1,6.14,7.393,11.17,11.17,0,0,1,.71,1.676c-1.032-.939-1.686-2.11-2.652-2.9a5.472,5.472,0,0,1-1.607-1.752,10.207,10.207,0,0,0-2.636-3.205c-1.5-1.3-2.948-2.652-4.428-3.973a8.353,8.353,0,0,0-1.85-1.543,57.915,57.915,0,0,1-8.811-5.335,12.157,12.157,0,0,1-2.027-1.925,1.116,1.116,0,0,1-.3-1.5c1.088.869,1.795,2.077,3.012,2.666a1.668,1.668,0,0,0-.359-.782c-.865-1.243-1.822-2.433-2.574-3.742a15.6,15.6,0,0,1-1.834-8.274,46.67,46.67,0,0,1,2.339-12.5c.712-2.34,1.619-4.62,2.4-6.94.137-.407.634-1-.453-1.327A19.665,19.665,0,0,0,463.2,91.47c-.94,2.939-1.884,5.884-2.65,8.872a64.556,64.556,0,0,0-2.056,14.682,6.9,6.9,0,0,0,1.431,4.742c.992,1.22,1.981,2.443,2.955,3.677.582.738,1.131,1.5,1.694,2.252l-.286.2a29.6,29.6,0,0,1-5.911-7.011,4.476,4.476,0,0,1-.546-1.825,33.7,33.7,0,0,1,.439-9.224c1.093-6.439,2.478-12.818,5.191-18.818.39-.862.128-1.3-.993-1.464a155.865,155.865,0,0,0-6.389,22.972,13.078,13.078,0,0,1-.021-2.112,9.057,9.057,0,0,1,.188-1.206A133.8,133.8,0,0,1,461.7,87.332c.293-.792.067-1.3-.6-2.014-.142.25-.234.391-.307.541a23.176,23.176,0,0,0-1.055,2.211c-2.625,7.248-4.8,14.6-5.32,22.356-.157,2.359-.764,4.665-.626,7.076a34.92,34.92,0,0,1-.388,5.032,2.018,2.018,0,0,1-.993,1.986c.006-.818-.037-1.368.022-1.908.493-4.576.881-9.167,1.551-13.716.5-3.422.634-6.871,1.754-10.257,1.534-4.639,2.488-9.467,4.667-13.9a2.681,2.681,0,0,0-.378-2.9c-1.388,3.254-2.766,6.2-3.906,9.241s-2.088,6.183-3.055,9.3c-.944,3.042-1.806,6.11-2.7,9.166a7.71,7.71,0,0,1,.272-2.8c1.119-4.043,2.139-8.12,3.452-12.1a64.861,64.861,0,0,1,6.108-14.242c.123-.2-.037-.574-.095-1.181a7.893,7.893,0,0,0-.739.87,96.925,96.925,0,0,0-8.769,20.54c-1.049,3.579-2,7.188-3.178,10.726-.9,2.706-2.052,5.327-3.137,7.967a16.274,16.274,0,0,1-1.089,1.9,1.553,1.553,0,0,1,.04-1.19c1.442-3.94,3.119-7.811,4.279-11.833,1.615-5.6,3.035-11.248,5.3-16.638a4.18,4.18,0,0,0,.164-.79,15.48,15.48,0,0,0-1.79,3.18,103.922,103.922,0,0,0-5.806,15.719,23.828,23.828,0,0,1-6.669,11.5c-.762.711-1.56,1.383-2.581,2.285l2.876-.7c-.116.5-.17.736-.225.97l.292.225,2.509-1.921c-.315,1.437-1.086,2.509-2.061,2.607-2.009.2-3.569,1.28-5.286,2.058-.847.384-.816.49-.009,1.285a7.254,7.254,0,0,1-1.136,1.2,33.809,33.809,0,0,0-8.021,7.918c-.361.475-.652,1-.975,1.508l.289.222c.325-.279.669-.539.97-.841,1.269-1.277,2.535-2.557,3.784-3.854,1.49-1.546,2.986-3.087,4.419-4.685a5.505,5.505,0,0,0,.682-1.5c1.21.373.973-1.1,1.753-1.388l.924,1.295c1.352-.814,2.309-2.014,3.8-2.415a40.371,40.371,0,0,0-12.7,16.291,6.026,6.026,0,0,1,.451-2.472c1.073-2,2.3-3.909,3.456-5.862a10.217,10.217,0,0,0,.458-1,3.468,3.468,0,0,0-1.358.907c-2.1,2.19-4.27,4.315-6.245,6.61a30.087,30.087,0,0,0-6.089,10.894,30.975,30.975,0,0,0-1.238,9.275,34.3,34.3,0,0,0,4.167,16.763,2.584,2.584,0,0,1,.279.792,7.569,7.569,0,0,0,3.018,4.152c-1.333-3.146-2.871-6.279-3.99-9.556-1.133-3.32-2.216-6.719-1.88-10.333.3,1.415.45,2.863.793,4.263.645,2.637,1.153,5.331,2.608,7.7a15.573,15.573,0,0,0,.517,1.821,46.183,46.183,0,0,0,4.954,8.779c.7,1,1.509,1.925,2.268,2.884l.291-.218c-.231-.37-.441-.754-.7-1.108-2.622-3.639-5.2-7.3-6.737-11.575-.086-.238-.377-.4-.573-.6l-.251-2.253a34.076,34.076,0,0,0,3.443,6.917c.074-.276.15-.4.125-.49-.836-3.333-1.806-6.637-2.482-10a36.806,36.806,0,0,1-.675-6.928,37.364,37.364,0,0,1,.7-5.179,51.067,51.067,0,0,1,3.1-11.98,9.023,9.023,0,0,1,.513-.952,1.056,1.056,0,0,1,.207.908,64.693,64.693,0,0,0-2.954,12.03c-.308,2.363-.924,4.681-.713,7.115.42,4.852,1.852,9.478,3.009,14.166a2.7,2.7,0,0,0,.271.642,2.647,2.647,0,0,0,.319.388,61.372,61.372,0,0,1-1.766-15.1c.32,1.884.532,3.781.782,5.674a43.585,43.585,0,0,0,3.126,12.146,12.858,12.858,0,0,0,2.721,4.163,2.726,2.726,0,0,0-.059-.718,47.215,47.215,0,0,1-4.866-19.008,45.246,45.246,0,0,1,1.406-13.514,53.682,53.682,0,0,1,2.912-9.138,3.061,3.061,0,0,0,.355-1.835,2.665,2.665,0,0,1,.286-1.832,27.264,27.264,0,0,1,1.439-3.188c1.173-2.075,2.35-4.159,3.7-6.117a6.035,6.035,0,0,1,2.667-2.414,3.735,3.735,0,0,0,2.117-1.752c.62-.917,1.215-1.852,1.852-2.757a4.091,4.091,0,0,1,.734-.626c.04.23.077.3.055.335q-2.724,3.946-5.464,7.882c-.128.183-.369.436-.532.418-1.131-.122-1.437.813-1.893,1.48-.789,1.155-1.5,2.363-2.217,3.567-.282.475-.482,1-.719,1.5l.312.178c.615-.872,1.2-1.764,1.852-2.609,1.285-1.673,3.081-2.871,4.261-4.668a17.078,17.078,0,0,1,2.2-2.225,3.665,3.665,0,0,0,.851-1.081c1.328-3.345,3.558-6.14,5.543-9.076a9.172,9.172,0,0,0,1.4-3.345c.085-.411.128-.831.19-1.246a6.85,6.85,0,0,1-.884,5.048c-1.92,3.892-4.605,7.288-7.008,10.866-.118.175-.356.437-.485.41-.871-.187-1.076.539-1.443,1.008-2.481,3.169-3.942,6.861-5.367,10.568a5.174,5.174,0,0,0-.167,1.156,2.518,2.518,0,0,0,.749-.967c.626-1.181,1.246-2.366,1.9-3.533.028-.052.349.059.534.094l.038-.039a5.632,5.632,0,0,0-.7.891,46.677,46.677,0,0,0-4.694,14.39c-.081.565-.256,1.116-.388,1.674-.312-.239-.378-.41-.344-.56q.951-4.256,1.928-8.506c.1-.453.458-.931.374-1.329-.388-1.846.345-3.439.975-5.065.621-1.6,1.259-3.193,1.888-4.789a3.269,3.269,0,0,0-1.291,1.429c-1.19,2.526-2.461,5.023-3.479,7.618a60.159,60.159,0,0,0-3.574,15.98,42.2,42.2,0,0,0,.746,11.644,21.16,21.16,0,0,0,.592,2.374c.208.692.488,1.361.736,2.04a3.416,3.416,0,0,0,0-1.437,14.923,14.923,0,0,1,.035-1.531l.7,1.984c.089-.09.159-.152.219-.223.037-.044.048-.117.091-.145s.1.014.193.033c1.159,5.481,2.817,10.722,7.785,14.134-3.608-4.078-5.562-8.948-6.923-14.135-1.2-4.576-1.643-13.9-.536-15.944a6.031,6.031,0,0,1,.2,1.073c-.035,1.806-.107,3.613-.145,5.419a4.053,4.053,0,0,0,.109,1.379c.975,2.8,1.946,5.607,3.019,8.372a19.876,19.876,0,0,0,2.947,5.484,15.485,15.485,0,0,0-.6-4.462,48.989,48.989,0,0,1-2.78-15.927m25.939-82.834-.3.171c.062.976.074,1.957.2,2.925a12.656,12.656,0,0,0,1.207,5.038,4.8,4.8,0,0,0,2.462,2.358c.32.113.927.1,1.057-.091a1.45,1.45,0,0,0,.138-1.211q-1.707-3.817-3.549-7.573A10.474,10.474,0,0,0,461.209,76.986ZM438.392,182.959l.5-.286c-1.054-2.054-2.315-4.017-3.173-6.157-.867-2.161-1.636-4.361-2.5-6.672-.1.279-.181.392-.167.492a37.373,37.373,0,0,0,2.584,9.366c.108.256.374.692.47.668.985-.252.955.6,1.268,1.085C437.705,181.962,438.053,182.458,438.392,182.959Zm52.766-1.932c3.1-3.409,5.857-7.012,6.816-11.656-1.239,1.884-2.736,3.7-3.443,5.786C493.77,177.4,491.825,178.82,491.158,181.027Zm-62.112-53.243c.717-.208,1.151.68,1.987.2,2.162-1.245,4.418-2.327,6.629-3.489a2.606,2.606,0,0,0,.5-.469l-.2-.332C434.933,124.855,431.815,125.818,429.047,127.784Zm5.122,56.727c.68,2.791,4.654,7.3,6.437,7.57Zm-18.186-12.065-.3.2A35.477,35.477,0,0,0,420.753,181c.1-.442.223-.661.159-.763C419.281,177.634,417.63,175.041,415.983,172.446Zm-12.865,4.633a8.424,8.424,0,0,0,4.782,5.594Zm41.2,7.194.478-.19q-.762-2.412-1.526-4.829l-1.052.516Zm-32.086-4.089.322-.15-3.141-6.712A16.829,16.829,0,0,0,412.234,180.184Zm20.345-55.2c-2.305.166-4.547,1.3-5.173,2.584Zm-6.733,65.687a7.413,7.413,0,0,0,5.843,1.817Zm26.873-7.563q-.148-2.367-.295-4.736A7.7,7.7,0,0,0,452.718,183.105ZM406.475,166.73a4.764,4.764,0,0,0,.981,3.95Q406.965,168.7,406.475,166.73ZM477.734,178.6l-.283-.234-1.925,2.491C476.954,180.654,477.049,179.395,477.734,178.6Zm-37.814,5.614a2.935,2.935,0,0,0,1.586,2.426,8.326,8.326,0,0,0-.951-1.623C440.357,184.744,440.133,184.486,439.92,184.219Zm23.874-41.565c.4-1.431.4-1.431-.342-2.567C463.585,141.081,463.689,141.867,463.794,142.653Zm-.584,40.216.325.251.763-1.562-.279-.14Zm-34.005.584-.269.242L430,184.91l.27-.244Zm26.9-1.484-.048-.016-.026.86.049,0Q456.1,182.389,456.109,181.969Zm-46.166.188c-.172,1.131.381,1.273,1.088,1.282Z" transform="translate(-397.473 -75.093)"/><path d="M514.2,207.947a9.292,9.292,0,0,0,.821-1.46,35.778,35.778,0,0,0,2.144-12.847,37.386,37.386,0,0,0-.646-6.587,1.7,1.7,0,0,1,.18-1.059,10.989,10.989,0,0,1,1.074,4.831c.06,3.433.288,6.9-.609,10.27-.7,2.64-1.592,5.231-2.4,7.852L514.327,210a2.255,2.255,0,0,1-.312-.8,7.843,7.843,0,0,1,.256-1.327Z" transform="translate(-431.429 -107.406)"/><path d="M474.348,150.858l-3.365,13.168c-.2-1.232,2.723-13.9,3.542-15.416.646-.064.8.358.777.864-.084,1.564-.214,3.124-.3,4.688-.067,1.153-.071,2.31-.158,3.462a17.151,17.151,0,0,1-.341,2.419,37.925,37.925,0,0,1-1.716,5.887c.108-.671.162-1.356.333-2.01a32.066,32.066,0,0,0,1.171-8.286c0-1.56.238-3.122.37-4.683Z" transform="translate(-418.888 -96.512)"/><path d="M458,162.247c-.787-1.287-.385-2.538-.1-3.757a40.611,40.611,0,0,1,5.978-13.1,33.422,33.422,0,0,0,5.29-12.08c.227-1.193.326-2.409.483-3.615.609,4.116-.868,7.751-2.6,11.335-.446.925-.706,1.952-1.231,2.824-.593.986-1.409,1.836-2.091,2.771a32.967,32.967,0,0,0-5.639,13.217A14.75,14.75,0,0,0,458,162.247Z" transform="translate(-414.974 -91.002)"/><path d="M494.039,167.575c-.271-2.63-.454-4.917-.758-7.188a9.969,9.969,0,0,0-2-4.592c-.759-1.03-1.468-2.1-2.155-3.178a9.577,9.577,0,0,1-.6-1.38c.327-.025.5-.078.531-.035,1.56,2.371,3.507,4.518,4.4,7.28A18.164,18.164,0,0,1,494.039,167.575Z" transform="translate(-424.003 -97.264)"/><path d="M484.24,151.26c2.479,5.34,2.63,11.021,2.2,16.788-.215-2.83-.257-5.686-.7-8.481-.434-2.772-1.268-5.481-1.927-8.218Z" transform="translate(-422.632 -97.286)"/><path d="M478.135,162c-.814,1.015-.554,2.3-.852,3.447a22.58,22.58,0,0,1-.912,3.479c.213-1.594.33-3.209.66-4.779a38.678,38.678,0,0,0,.526-9.163,7.023,7.023,0,0,1,.32-3.126l.376.031c-.013.424-.059.851-.032,1.273.082,1.319-.111,2.652.493,3.943a2.1,2.1,0,0,1-.054,1.827c-.807.993-.629,2.037-.567,3.114Z" transform="translate(-420.461 -97.46)"/><path d="M454.228,160.462c.331-.461,1.39-.721.426-1.546-.05-.043-.038-.261-.021-.266,1.306-.332.846-1.861,1.777-2.556a16.935,16.935,0,0,0,2.083-2.545,6.374,6.374,0,0,1,1.762-1.334,21.736,21.736,0,0,0-4.546,7c-1.01,2.584-1.965,5.189-3.043,8.048a14.082,14.082,0,0,1,.258-1.888c.368-1.28.822-2.535,1.205-3.81a6.356,6.356,0,0,0,.139-1.148Z" transform="translate(-413.554 -97.564)"/><path d="M529.091,173.21a6.462,6.462,0,0,1,2.5,4.876c-1-1.605-1.89-3.042-2.769-4.488C528.8,173.561,528.939,173.426,529.091,173.21Z" transform="translate(-435.744 -103.681)"/><path d="M483.453,141.717l1.763,4.861C483.983,145.925,483.715,145.177,483.453,141.717Z" transform="translate(-422.525 -94.505)"/><path d="M486.715,135.621a5.218,5.218,0,0,1-1.445-3.178C486.334,133.04,486.748,133.967,486.715,135.621Z" transform="translate(-423.054 -91.803)"/><path d="M469.759,127.472l-1.042,3.058-.378-.122q.474-1.544.949-3.088Z" transform="translate(-418.121 -90.31)"/><path d="M457.042,166.681c-.3-1.086.478-1.811.868-2.9C458.087,165,458,165.295,457.042,166.681Z" transform="translate(-414.81 -100.934)"/><path d="M478.941,133.8c.025-.843.05-1.684.087-2.932C479.544,132.2,479.544,132.2,478.941,133.8Z" transform="translate(-421.21 -91.344)"/><path d="M474.349,174.875q-.305,1.436-.611,2.872l-.355-.07q.185-1.448.369-2.895Z" transform="translate(-419.591 -104.139)"/><path d="M498.68,173.856a2.093,2.093,0,0,1-.58-2.393A2.548,2.548,0,0,1,498.68,173.856Z" transform="translate(-426.748 -103.172)"/><path d="M476.252,118.883c.794,1,.015,1.6-.2,2.234C476.11,120.465,476.169,119.813,476.252,118.883Z" transform="translate(-420.368 -87.852)"/><path d="M428.584,159.284c-2.268,1.66-2.885,4.573-4.924,6.523C423.448,164.03,426.208,160.4,428.584,159.284Z" transform="translate(-405.099 -99.624)"/><path d="M416.147,194.076c.248,1.426.421,2.622.671,3.8s.572,2.313.865,3.48C416.4,200.7,415.937,198.528,416.147,194.076Z" transform="translate(-402.9 -109.761)"/><path d="M405.54,179.536c-.729-2.294.741-3.75,1.838-5.357-.18.49-.335.99-.544,1.466a5.557,5.557,0,0,0-.838,3.278C406.027,179.095,405.7,179.33,405.54,179.536Z" transform="translate(-399.766 -103.964)"/><path d="M430.716,164.314q-.345.879-.692,1.759l-.368-.2q.553-.756,1.1-1.514Z" transform="translate(-406.85 -101.089)"/></g></g></svg>