<svg xmlns="http://www.w3.org/2000/svg" width="312.014" height="138.229" viewBox="0 0 312.014 138.229"><g transform="translate(-485.993 -9.122)"><g transform="translate(642 78.237)"><g transform="translate(-156.007 -69.115)"><g transform="translate(0 92.223)"><path d="M4.595,242.494a8.516,8.516,0,0,1-3.37-3.174,9.275,9.275,0,0,1,0-9.215,8.515,8.515,0,0,1,3.37-3.173,10.15,10.15,0,0,1,4.84-1.14,10.4,10.4,0,0,1,4.239.833,8.155,8.155,0,0,1,3.137,2.4l-3.088,2.794a5.08,5.08,0,0,0-4.044-2.01,5,5,0,0,0-2.488.613A4.249,4.249,0,0,0,5.5,232.152a5.761,5.761,0,0,0,0,5.121A4.242,4.242,0,0,0,7.192,239a4.992,4.992,0,0,0,2.488.613,5.08,5.08,0,0,0,4.044-2.009l3.088,2.794a8.155,8.155,0,0,1-3.137,2.4,10.4,10.4,0,0,1-4.239.833A10.15,10.15,0,0,1,4.595,242.494Z" transform="translate(0 -225.793)"/><path d="M68.76,226.633v17.154H63.908V237.1H57.291v6.69H52.439V226.633h4.852v6.445h6.617v-6.445Z" transform="translate(-31.021 -226.29)"/><path d="M108.559,242.047a7.907,7.907,0,0,1-2.12-5.906v-9.508h4.852v9.361q0,4.116,3.26,4.117,3.234,0,3.235-4.117v-9.361h4.778v9.508a7.909,7.909,0,0,1-2.12,5.906,9.519,9.519,0,0,1-11.886,0Z" transform="translate(-62.965 -226.29)"/><path d="M160.609,230.48H155.34v-3.848h15.366v3.848h-5.244v13.307h-4.852Z" transform="translate(-91.893 -226.29)"/><path d="M219.72,226.633v17.154h-3.995l-7.572-9.141v9.141H203.4V226.633h3.995l7.573,9.141v-9.141Z" transform="translate(-120.323 -226.29)"/><path d="M271.532,240.038v3.749H257.76V226.633h13.454v3.749h-8.65v2.892h7.621V236.9h-7.621v3.137Z" transform="translate(-152.481 -226.29)"/><path d="M309.715,237.636v6.151h-4.853v-6.225l-6.543-10.929h5.122l4.068,6.812,4.068-6.812h4.705Z" transform="translate(-176.474 -226.29)"/><path d="M376.517,242.047a7.907,7.907,0,0,1-2.12-5.906v-9.508h4.852v9.361q0,4.116,3.26,4.117,3.235,0,3.235-4.117v-9.361h4.779v9.508a7.909,7.909,0,0,1-2.12,5.906,9.519,9.519,0,0,1-11.886,0Z" transform="translate(-221.478 -226.29)"/><path d="M444.239,226.633v17.154h-3.995l-7.572-9.141v9.141h-4.754V226.633h3.995l7.572,9.141v-9.141Z" transform="translate(-253.139 -226.29)"/><path d="M482.277,226.633h8.112a11.358,11.358,0,0,1,5,1.054,7.94,7.94,0,0,1,3.382,2.99,9.158,9.158,0,0,1,0,9.067,7.935,7.935,0,0,1-3.382,2.99,11.358,11.358,0,0,1-5,1.054h-8.112Zm7.916,13.282a4.974,4.974,0,0,0,3.541-1.249,5.138,5.138,0,0,0,0-6.911,4.974,4.974,0,0,0-3.541-1.25h-3.063v9.41Z" transform="translate(-285.296 -226.29)"/><path d="M576.784,243.787l-.049-9.092-4.411,7.4h-2.156l-4.387-7.156v8.847H561.3V226.633h3.995l6.029,9.9,5.881-9.9H581.2l.049,17.154Z" transform="translate(-332.04 -226.29)"/><path d="M638.309,240.038v3.749H624.536V226.633H637.99v3.749h-8.651v2.892h7.621V236.9h-7.621v3.137Z" transform="translate(-369.451 -226.29)"/><path d="M687.176,226.633v17.154h-4.852V237.1h-6.617v6.69h-4.852V226.633h4.852v6.445h6.617v-6.445Z" transform="translate(-396.851 -226.29)"/><path d="M732.715,239.229h-2.646v4.558h-4.852V226.633h7.842a9.79,9.79,0,0,1,4.043.772,6.24,6.24,0,0,1,2.708,8.823,5.882,5.882,0,0,1-2.487,2.169l3.7,5.391h-5.2Zm2.3-8.112a3.348,3.348,0,0,0-2.255-.662h-2.7v5.024h2.7a3.391,3.391,0,0,0,2.255-.649,2.3,2.3,0,0,0,.759-1.85A2.339,2.339,0,0,0,735.019,231.118Z" transform="translate(-429.009 -226.29)"/><path d="M85.021,308.033V318.9h-1.1v-8.692l-4.268,7.311h-.543l-4.268-7.264V318.9h-1.1V308.033h.947l4.718,8.055,4.672-8.055Z" transform="translate(-43.62 -274.443)"/><path d="M120.023,315.995H113.97l-1.3,2.9h-1.195l4.967-10.865h1.133l4.967,10.865h-1.21Zm-.419-.931L117,309.228l-2.607,5.836Z" transform="translate(-65.942 -274.443)"/><path d="M157.753,308.033V318.9h-.947l-6.984-8.816V318.9h-1.149V308.033h.947l7,8.816v-8.816Z" transform="translate(-87.949 -274.443)"/><path d="M186.218,317.78a4.846,4.846,0,0,1-1.18-3.523v-6.223h1.149v6.177a4.063,4.063,0,0,0,.853,2.825,3.758,3.758,0,0,0,4.952,0,4.066,4.066,0,0,0,.853-2.825v-6.177h1.118v6.223a4.868,4.868,0,0,1-1.172,3.523,5.066,5.066,0,0,1-6.573,0Z" transform="translate(-109.461 -274.443)"/><path d="M222.211,309.026v4.268h5.619v.993h-5.619v4.61h-1.148V308.033h7.45v.993Z" transform="translate(-130.772 -274.443)"/><path d="M253.859,315.995h-6.053l-1.3,2.9h-1.195l4.966-10.865h1.133l4.967,10.865h-1.21Zm-.419-.931-2.607-5.836-2.607,5.836Z" transform="translate(-145.114 -274.443)"/><path d="M285.876,313.791l-2.22,2.25V318.9h-1.148V308.033h1.148V314.6l6.379-6.565h1.319l-4.7,4.92,5.029,5.944h-1.366Z" transform="translate(-167.121 -274.443)"/><path d="M313.344,309.026h-3.818v-.993h8.785v.993h-3.818V318.9h-1.149Z" transform="translate(-183.103 -274.443)"/><path d="M341.638,317.78a4.846,4.846,0,0,1-1.18-3.523v-6.223h1.149v6.177a4.063,4.063,0,0,0,.853,2.825,3.757,3.757,0,0,0,4.951,0,4.064,4.064,0,0,0,.854-2.825v-6.177h1.118v6.223a4.866,4.866,0,0,1-1.172,3.523,5.066,5.066,0,0,1-6.573,0Z" transform="translate(-201.401 -274.443)"/><path d="M383.9,318.9l-2.483-3.492a7.875,7.875,0,0,1-.869.047h-2.918V318.9h-1.149V308.033h4.066a4.909,4.909,0,0,1,3.259.993,3.379,3.379,0,0,1,1.18,2.731,3.37,3.37,0,0,1-2.483,3.415l2.654,3.725Zm-.916-5.137a2.8,2.8,0,0,0,0-4.028,3.785,3.785,0,0,0-2.468-.706h-2.886v5.448h2.886A3.753,3.753,0,0,0,382.985,313.76Z" transform="translate(-222.712 -274.443)"/><path d="M425.151,302.637h1.009l-5.122,14.621h-1.009Z" transform="translate(-248.472 -271.251)"/><path d="M459.81,318.142a5.224,5.224,0,0,1-2.033-1.979,5.807,5.807,0,0,1,0-5.665,5.216,5.216,0,0,1,2.041-1.978,5.974,5.974,0,0,1,2.917-.714,6.048,6.048,0,0,1,2.235.4,4.633,4.633,0,0,1,1.739,1.18l-.729.729a4.328,4.328,0,0,0-3.213-1.289,4.721,4.721,0,0,0-2.344.59,4.312,4.312,0,0,0-1.653,1.614,4.714,4.714,0,0,0,0,4.594,4.312,4.312,0,0,0,1.653,1.614,4.72,4.72,0,0,0,2.344.589,4.27,4.27,0,0,0,3.213-1.3l.729.729a4.692,4.692,0,0,1-1.747,1.187,6,6,0,0,1-2.243.411A5.93,5.93,0,0,1,459.81,318.142Z" transform="translate(-270.367 -274.308)"/><path d="M496.031,315.995h-6.053l-1.3,2.9h-1.195l4.967-10.865h1.133l4.967,10.865h-1.211Zm-.419-.931L493,309.228l-2.607,5.836Z" transform="translate(-288.373 -274.443)"/><path d="M522.989,309.026h-3.818v-.993h8.785v.993h-3.818V318.9h-1.148Z" transform="translate(-307.121 -274.443)"/><path d="M558.545,317.9v.993h-7.683V308.033h7.45v.993h-6.3v3.865h5.619v.978h-5.619V317.9Z" transform="translate(-325.868 -274.443)"/><path d="M589.4,318.9l-2.483-3.492a7.873,7.873,0,0,1-.869.047h-2.918V318.9h-1.149V308.033h4.067a4.908,4.908,0,0,1,3.259.993,3.379,3.379,0,0,1,1.18,2.731,3.37,3.37,0,0,1-2.483,3.415l2.654,3.725Zm-.916-5.137a2.8,2.8,0,0,0,0-4.028,3.782,3.782,0,0,0-2.468-.706h-2.887v5.448h2.887A3.75,3.75,0,0,0,588.487,313.76Z" transform="translate(-344.279 -274.443)"/><path d="M615.158,308.033h1.148V318.9h-1.148Z" transform="translate(-363.903 -274.443)"/><path d="M641.413,308.033V318.9h-.946l-6.984-8.816V318.9h-1.149V308.033h.947l7,8.816v-8.816Z" transform="translate(-374.064 -274.443)"/><path d="M675.184,313.33h1.1v4.144a5.3,5.3,0,0,1-1.8,1.024,6.681,6.681,0,0,1-2.188.357,6.006,6.006,0,0,1-2.933-.714,5.262,5.262,0,0,1-2.049-1.979,5.754,5.754,0,0,1,0-5.665,5.269,5.269,0,0,1,2.049-1.978,6.038,6.038,0,0,1,2.949-.714,6.374,6.374,0,0,1,2.282.4,4.546,4.546,0,0,1,1.754,1.172l-.714.73a4.466,4.466,0,0,0-3.275-1.273,4.877,4.877,0,0,0-2.383.582,4.273,4.273,0,0,0-1.668,1.614,4.677,4.677,0,0,0,0,4.6,4.365,4.365,0,0,0,1.661,1.614,4.781,4.781,0,0,0,2.375.589,4.732,4.732,0,0,0,2.84-.838Z" transform="translate(-394.316 -274.308)"/></g><g transform="translate(126.095)"><path d="M344.336,0a3.854,3.854,0,0,1,2.4,2.285c.581,1.318,1.291,2.58,1.909,3.883.129.272.254.714.126.916a21.333,21.333,0,0,0-1.786,4.368,33.826,33.826,0,0,0-1.626,7.16,9.057,9.057,0,0,0,.812,5.6,14.114,14.114,0,0,0,2.935,3.678,9.547,9.547,0,0,0,2.473,1.329,33.611,33.611,0,0,1,6.887,4.54c1.2.976,2.435,1.907,3.589,2.932a16.575,16.575,0,0,1,1.97,2.149,23.2,23.2,0,0,1,4.1,9.544,9.281,9.281,0,0,1,.182,2.2,12.173,12.173,0,0,1-1.594,5.946,29.735,29.735,0,0,1-3.272,4.946A31.625,31.625,0,0,1,359.5,65.2a8.266,8.266,0,0,1-2.559,1.132,2.02,2.02,0,0,1-1.275-.033,1.077,1.077,0,0,0-1.108.171,8.281,8.281,0,0,1-4.252,1.417c-.666.027-1.33.258-1.991.241-.833-.022-1.66-.219-2.493-.308a2.739,2.739,0,0,0-.975.048c-1.522.408-3.016.946-4.556,1.251a15.6,15.6,0,0,1-5.008.091,6.061,6.061,0,0,1-1.837-.777c-.4-.2-.691-.444-1.172-.069-.267.209-.772.079-1.143.192a9.464,9.464,0,0,1-6.374-.613,31.084,31.084,0,0,0-4.338-1.269,10.088,10.088,0,0,1-6.47-3.939,12.854,12.854,0,0,0-.883-1.1,18.3,18.3,0,0,1-3.324-6.3A17.262,17.262,0,0,1,309.988,43a21.709,21.709,0,0,1,4.656-7.139,11.651,11.651,0,0,1,3.3-2.458,12.124,12.124,0,0,0,1.635-.97,48.1,48.1,0,0,1,6.7-3.276c1.187-.546,2.412-1.017,3.64-1.464a8.518,8.518,0,0,0,3.979-3.44,16.693,16.693,0,0,0,2.349-5.425,33.775,33.775,0,0,1,1.461-4.183c1.427-3.482,2.872-6.957,4.389-10.4C342.73,2.806,343.561,1.454,344.336,0ZM316.6,64.255c.171.33.471.388.742.506l.1-.2-.786-.362a2.243,2.243,0,0,0-1.093-.8l-.106.174Zm31.612.755a2.4,2.4,0,0,0,1.021-1.84L348.108,64.9l-.615.685.21.166Zm-6.4-58.68c.934-1.638,1.873-3.274,2.792-4.92.055-.1-.046-.284-.1-.564-.208.205-.354.294-.422.424-.681,1.3-1.368,2.6-2.008,3.917a5.011,5.011,0,0,0-.257,1.147.645.645,0,0,0-.232.923Q341.7,6.792,341.816,6.33ZM356.472,57.9a2.08,2.08,0,0,0-.321.346c-.7,1.214-1.385,2.437-2.085,3.651-.172.3-.384.576-.577.863a1.3,1.3,0,0,0,.717-.506c.773-1.037,1.533-2.085,2.3-3.128l.252-.6a14.949,14.949,0,0,0,2-4.932,8.463,8.463,0,0,1-.245,1.99,18.347,18.347,0,0,1-4.6,7.813c-.548.546-1.028,1.16-1.689,1.913a2.088,2.088,0,0,0,.413-.144c1.474-1.41,3.129-2.662,4-4.6a3.538,3.538,0,0,1,.341-.5,18.72,18.72,0,0,0,2.976-6.783,32.135,32.135,0,0,0,.582-4.578c.064-1.128-.173-2.27-.192-3.406a16.789,16.789,0,0,0-1.279-5.667,4.656,4.656,0,0,0-.347-.6l-.175.979a8.389,8.389,0,0,0-1.79-3.477c.161,1.24.766,2.393.661,3.669a17.26,17.26,0,0,0-1.71-4.369,11.561,11.561,0,0,0-3.359-3.225c.189.3.343.551.5.8a13.7,13.7,0,0,1,2.262,5.125,21.6,21.6,0,0,0,.6,2.741,18.975,18.975,0,0,1,.847,7.263c-.064.736-.076,1.478-.136,2.215a20.685,20.685,0,0,1-1.309,6.483c-.27.638-.48,1.3-.717,1.952l.14.082,1.985-2.688.107.091q-.093.64-.187,1.279ZM322.48,36.441l.024.025c.388-1.749,2-2.6,2.857-4.059l-2.618,1.628-.126-.205,3.662-2.387a24.731,24.731,0,0,0-7.827,4.628,12.036,12.036,0,0,1,1.543-1.55c.528-.462,1.067-.912,1.6-1.366l-.163-.194-3,2.387-.115-.131L320.9,32.94a13.8,13.8,0,0,0-4.317,3.369l-.162-.183,3.211-3.026a12.784,12.784,0,0,0-2.806,1.52,20.12,20.12,0,0,0-6.513,8.8,18.5,18.5,0,0,0-1.077,5.413,3.885,3.885,0,0,0,.156,1.488c.068.216.41.312.384.692-.175,2.544.9,4.708,2.145,6.809a4.665,4.665,0,0,0,.49.587.407.407,0,0,0,.015-.4,15.529,15.529,0,0,1-1.605-4.861c-.151-1.024-.151-2.07-.287-3.1a8.579,8.579,0,0,1,.368-4.1,16.865,16.865,0,0,0,.507,6.538,19.827,19.827,0,0,0,2.888,5.877c.06-.223.1-.294.088-.345-.065-.188-.147-.371-.227-.554a27.913,27.913,0,0,1-2.246-6.453,11.412,11.412,0,0,1,.06-3.419,14.2,14.2,0,0,0,1.088,5.831,2.345,2.345,0,0,0,0-.99,21.9,21.9,0,0,1-.294-6.723,14.076,14.076,0,0,1,1.2-4.664,7.326,7.326,0,0,1,.483-.792l.244.116c-.062.23-.113.463-.188.689-.348,1.049-.76,2.081-1.034,3.149a10.311,10.311,0,0,0-.2,2.1c-.048,1.135-.069,2.271-.08,3.406a.827.827,0,0,0,.165.567c.635.573.568,1.388.78,2.1s.351,1.438.595,2.133a4.081,4.081,0,0,0,.605.888c-.134-1.491-.4-2.9-.634-4.312a18.309,18.309,0,0,1-.322-4.809,30.457,30.457,0,0,1,1.409-6.069,6.576,6.576,0,0,1,1.507-2.569c.109.9-.493,1.31-.649,1.867-.182.646-.4,1.283-.549,1.935-.141.621-.222,1.256-.313,1.887s-.183,1.262-.234,1.9-.058,1.278-.079,1.917c-.022.673-.074,1.348-.051,2.02a15.405,15.405,0,0,0,.2,1.9c.1.629.245,1.254.4,1.872.163.652.331,1.306.553,1.939.206.589.486,1.152.734,1.726l.158-.052q-.156-1.055-.313-2.111a21.693,21.693,0,0,0,2.719,5.824c1.095,1.858,2.236,3.7,4.213,4.816a26.661,26.661,0,0,1-4.985-7.722,25.162,25.162,0,0,1-1.782-9.14c-.137-3.29.73-8.069,1.708-9.053a3.99,3.99,0,0,1-.078.736,26.175,26.175,0,0,0-1.076,10.047,8.977,8.977,0,0,0,.731,3.533c.613,1.233,1.256,2.451,1.9,3.667a8.513,8.513,0,0,0,.572.832c-.669-2.084-1.691-4-1.88-6.2l.725,1.864c-.075-1.874-.13-3.543-.212-5.211a13.4,13.4,0,0,1,1.08-5.875c.5-1.205,1.224-2.324,1.691-3.541a18.585,18.585,0,0,1,4.409-6.421,18.089,18.089,0,0,1,1.593-1.286.894.894,0,0,0-.671.141c-1.022.814-2.07,1.6-3.027,2.489C323.961,34.726,323.245,35.61,322.48,36.441Zm8.656,15.319a36.974,36.974,0,0,0,1.3,6.2c.344,1.183,1.208,2.259.9,3.616-.031.135.09.323.177.464.671,1.084,1.347,2.166,2.037,3.238a1.5,1.5,0,0,0,.387.3,25.375,25.375,0,0,1-2.867-8.467l1.165,2.4a1.764,1.764,0,0,0-.03-.911,28.944,28.944,0,0,1-.983-8.378c.079-1.1.2-2.209.367-3.3.312-2.023.539-4.074,1.05-6.049a52.48,52.48,0,0,1,2.1-6.188c.738-1.858,1.459-3.8,3.667-4.75a59.572,59.572,0,0,0-3.576,9.935,2.5,2.5,0,0,1,.051-1c.714-2.2,1.452-4.388,2.179-6.582.073-.221.125-.448.187-.673a.611.611,0,0,0-.433.341c-.856,1.789-1.721,3.574-2.551,5.375a13.628,13.628,0,0,0-.691,1.891,63.312,63.312,0,0,0-1.773,9.487,17.455,17.455,0,0,0,.275,5.99q-.04-1.935-.079-3.87a22.53,22.53,0,0,1,.433,3.089,13.16,13.16,0,0,0,.464,2.957c.334.935.194,2.038.987,2.833a51.124,51.124,0,0,1-.559-8.26,29.626,29.626,0,0,1,1.063-8.149,40.738,40.738,0,0,0,1.994,22.237c-.352-2.118-.918-4.191-1.172-6.343-.3-2.534-.722-5.3-.172-6.537a11.169,11.169,0,0,0,.369,4.311,24.057,24.057,0,0,1,.369-4.8c.04.812,0,1.62,0,2.428s.037,1.6.084,2.4c.049.837.081,1.68.21,2.506a7,7,0,0,0,.7,2.541,5.127,5.127,0,0,0,.016-.629,16.128,16.128,0,0,1-.268-5.778,1.493,1.493,0,0,0,.011-.4,34.908,34.908,0,0,1,.6-7.68,46.866,46.866,0,0,0,.687,14.951c.022-1.134-.1-2.264-.1-3.393,0-1.175.071-2.353.185-3.523a16.587,16.587,0,0,1,.381-3.455c.276,3.381.534,6.55.793,9.718a114.277,114.277,0,0,0-.255-18.945,18.779,18.779,0,0,1,.424,2.628c.131,1.673.224,3.349.308,5.025.09,1.81.154,3.621.227,5.432.04,1.006.067,2.014.122,3.019a2.965,2.965,0,0,0,.183.645,25.484,25.484,0,0,0,.521-2.952,8.49,8.49,0,0,1,.346-2.071,3.707,3.707,0,0,0,.294-1.444c.011-1.6.033-3.2.005-4.807a38.818,38.818,0,0,0-.526-6.819c-.283-1.45-.5-2.912-.748-4.369l-.023.025c.173.1.406.163.5.314a2.665,2.665,0,0,1,.232.7,8.556,8.556,0,0,0,.126-2.373c-.112-1.74-.218-3.482-.392-5.216-.127-1.265-.359-2.519-.533-3.78-.012-.089.072-.19.112-.286a1.045,1.045,0,0,1,.172.512c.281,1.192-.113,2.586,1.044,3.521.041.033.029.127.049.191.246.766.456,1.546.749,2.294a10.464,10.464,0,0,1,.758,4.337,16.76,16.76,0,0,0,.126,2.111c.228,2.741.549,5.478.669,8.224.094,2.148-.052,4.307-.1,6.462a2.727,2.727,0,0,1-.146.586c-.418-1.631-.064-3.225-.095-4.818-.031-1.644-.105-3.288-.16-4.932a31.936,31.936,0,0,0-.536-4.744c-.291-1.579-.423-3.187-.62-4.752l.329.535a9.688,9.688,0,0,0-1.217-4.244c.023.947.176,1.874.189,2.8.019,1.337-.074,2.675-.1,4.013a12.537,12.537,0,0,0,.046,1.809,63.946,63.946,0,0,1,.57,8.434,84.549,84.549,0,0,1-.66,11.768c-.057.392-.03.8-.048,1.419.174-.3.232-.38.268-.468a15.886,15.886,0,0,0,1.151-4.264c.031-.292.018-.627.561-.6a55.465,55.465,0,0,1-1.749,7.029,29.01,29.01,0,0,0,1.909-3.772,31.481,31.481,0,0,0,1.306-4.029,40.543,40.543,0,0,0,.823-9.92,24.469,24.469,0,0,0-.216-3.007c-.218-1.733-.455-3.466-.758-5.186-.3-1.683-.692-3.349-1.027-5.026-.084-.419-.1-.85-.147-1.276a27.144,27.144,0,0,1,1.85,4.586,8.65,8.65,0,0,1,.409,3.365,14.343,14.343,0,0,0,.116,3.163c.072.835.157,1.671.177,2.508.027,1.11-.018,2.221-.007,3.331a41.054,41.054,0,0,1-1.492,10.94,5.513,5.513,0,0,0-.092.622,25.4,25.4,0,0,0,2.126-6.242l.246.066-1.045,4.775a17.833,17.833,0,0,0,2.046-7.856,16.387,16.387,0,0,1-.937,7,8.206,8.206,0,0,0,.883-1.9,28.606,28.606,0,0,0,1.316-6.808c.046-.912.368-1.832-.332-2.645a.3.3,0,0,1-.026-.283c.469-.629.094-1.216-.064-1.818-.088-.336-.228-.7.194-1.043a12.373,12.373,0,0,1,.774,5.473,32.057,32.057,0,0,1-1.612,7.772,1.385,1.385,0,0,0-.017.4l.126.022.971-1.879.127.058-1.568,4.49a18.945,18.945,0,0,0,2.977-8.315,11.031,11.031,0,0,1-.018,1.882c-.073.6-.275,1.176-.373,1.771a6.865,6.865,0,0,0-.419,1.84,1.785,1.785,0,0,0,.235-.241,2.61,2.61,0,0,0,.166-.364,19.423,19.423,0,0,0,1.254-7.707c-.071-1.306-.3-2.608-.3-3.912a20.479,20.479,0,0,0-1.151-6.513,1.888,1.888,0,0,0-.19-.329l-.132.051.256,2.359-.2.021c-.13-.716-.285-1.429-.385-2.15a8.008,8.008,0,0,0-2.3-5.031c-.375-.351-1.763-2.347-2.108-2.8.406-.029,1.83,1.474,2.281,1.441.26.343.643.807.981,1.3,1.646,2.413,3.2,4.865,3.367,7.913.034.634.176,1.262.241,1.9.137,1.335.286,2.67.376,4.008a21.723,21.723,0,0,1-.489,6.91c-.434,1.684-1.107,3.307-1.665,4.96a5.766,5.766,0,0,0-.144.683l.243.078,1.249-2.767a6.966,6.966,0,0,1-.551,1.912c-.533,1.121-1.136,2.208-1.7,3.313-.127.246-.229.505-.343.758A28.85,28.85,0,0,0,354.2,56.51c-.382,1.919-1.625,3.468-2.393,5.392a3.642,3.642,0,0,0,1.641-1.9,22.145,22.145,0,0,0,2.483-9.681,6.8,6.8,0,0,1,.051-1.008,18.886,18.886,0,0,0-1.359-9.778c-.02.66-.032,1.082-.045,1.5a21.75,21.75,0,0,0-2.6-6.183c-.752-1.149-1.549-2.273-2.408-3.342-.268-.334-.808-.444-1.216-.671-.268-.149-.519-.323-.35-.707.618.332,1.223.651,1.82.983a.713.713,0,0,1,.187.231,28.046,28.046,0,0,1,3.05,4.5c.2.444.444.265.741-.025-.52-.816-1.045-1.63-1.559-2.453s-1.465-1.358-1.656-2.457l1.26,1.135c-.1-.513-.156-.8-.235-1.207a4.448,4.448,0,0,1,.451.284c.71.61,1.377,1.279,2.13,1.829a12.765,12.765,0,0,1,3.071,3.31c.414.62.62,1.406,1.416,1.732.152.062.24.315.328.5a16.13,16.13,0,0,1,1.517,4.994,33.619,33.619,0,0,1,.221,7.218,17.438,17.438,0,0,1-1.725,6.583,9.742,9.742,0,0,0-.359.915l.21.079a38.618,38.618,0,0,0,2.353-4.843,9.944,9.944,0,0,1-.527,2.03,21.689,21.689,0,0,1-2.712,4.824,1.572,1.572,0,0,0-.159.45c2.03-2.034,3.128-4.638,4.568-7.021a6.435,6.435,0,0,0,.621-1.8,15.982,15.982,0,0,0,.4-2.267,18.126,18.126,0,0,0-.627-4.907,11.057,11.057,0,0,1,1.373,5.225,8.709,8.709,0,0,1-.626,4.053c-.914,2.055-1.846,4.1-2.764,6.156a5.672,5.672,0,0,0-.2.618,19.294,19.294,0,0,0,3.863-6.082l-.414,1.8.224.056c.235-.794.507-1.579.7-2.383a14.835,14.835,0,0,0,0-8.145,2.175,2.175,0,0,1,.011-.689c1.566,3.451.914,6.914.229,10.387a7.817,7.817,0,0,0,1.476-5.289,5.9,5.9,0,0,1,.261,1.265,11.557,11.557,0,0,1-.027,1.194,8.558,8.558,0,0,0,.784-4.808,23.548,23.548,0,0,0-3.879-8.892,16.657,16.657,0,0,0-1.153-1.258c.154.7.694,1.182.746,2.047-1.142-1.248-1.745-2.738-3.063-3.62l.779,1.379c-1.828-1.654-3.251-3.67-5.477-4.824.016.2.183.252.293.361a23.571,23.571,0,0,1,3.539,4.261,6.482,6.482,0,0,1,.409.966c-.6-.542-.972-1.217-1.529-1.67a3.153,3.153,0,0,1-.927-1.01,5.891,5.891,0,0,0-1.519-1.847c-.863-.749-1.7-1.529-2.552-2.29a4.815,4.815,0,0,0-1.066-.89,33.421,33.421,0,0,1-5.079-3.075,6.988,6.988,0,0,1-1.168-1.109.643.643,0,0,1-.174-.863c.627.5,1.034,1.2,1.736,1.537a.966.966,0,0,0-.207-.451c-.5-.717-1.05-1.4-1.483-2.157a8.979,8.979,0,0,1-1.057-4.769A26.892,26.892,0,0,1,346.2,12.72c.41-1.349.934-2.663,1.383-4,.078-.234.366-.574-.261-.764a11.226,11.226,0,0,0-.714,1.484c-.542,1.695-1.086,3.392-1.528,5.114a37.211,37.211,0,0,0-1.185,8.463,3.979,3.979,0,0,0,.825,2.733c.572.7,1.142,1.408,1.7,2.119.335.425.652.865.977,1.3l-.165.115a17.063,17.063,0,0,1-3.407-4.041,2.579,2.579,0,0,1-.315-1.052,19.459,19.459,0,0,1,.253-5.316,43.835,43.835,0,0,1,2.992-10.847c.225-.5.074-.752-.572-.844A89.838,89.838,0,0,0,342.5,20.423a7.493,7.493,0,0,1-.011-1.217,5.2,5.2,0,0,1,.108-.7,77.13,77.13,0,0,1,3.144-11.456c.169-.456.038-.75-.345-1.16-.083.144-.135.225-.177.312a13.339,13.339,0,0,0-.609,1.274,47.048,47.048,0,0,0-3.066,12.885,32.633,32.633,0,0,0-.362,4.079,20.123,20.123,0,0,1-.223,2.9,1.163,1.163,0,0,1-.572,1.144c0-.471-.021-.788.012-1.1.284-2.637.508-5.283.895-7.905a34.032,34.032,0,0,1,1.01-5.912c.884-2.674,1.434-5.457,2.69-8.01a1.546,1.546,0,0,0-.218-1.67c-.8,1.876-1.595,3.575-2.251,5.326s-1.2,3.564-1.761,5.36c-.544,1.753-1.041,3.522-1.559,5.283a4.451,4.451,0,0,1,.157-1.614c.645-2.33,1.233-4.68,1.99-6.974a37.373,37.373,0,0,1,3.52-8.209c.071-.115-.021-.331-.055-.681a4.454,4.454,0,0,0-.426.5,55.878,55.878,0,0,0-5.054,11.839c-.6,2.063-1.156,4.143-1.832,6.182-.517,1.559-1.183,3.07-1.808,4.592a9.3,9.3,0,0,1-.628,1.1.9.9,0,0,1,.024-.686c.831-2.271,1.8-4.5,2.466-6.82a86.033,86.033,0,0,1,3.054-9.59,2.384,2.384,0,0,0,.095-.456,8.925,8.925,0,0,0-1.032,1.833,59.945,59.945,0,0,0-3.346,9.06,13.734,13.734,0,0,1-3.843,6.628c-.439.41-.9.8-1.488,1.316l1.658-.4-.129.559.168.13,1.445-1.107c-.182.828-.626,1.446-1.188,1.5a9.675,9.675,0,0,0-3.047,1.186c-.488.221-.471.283,0,.741a4.193,4.193,0,0,1-.655.692,19.488,19.488,0,0,0-4.623,4.564c-.208.274-.376.578-.562.869l.167.128c.187-.161.386-.31.56-.485.732-.736,1.461-1.474,2.181-2.222.858-.891,1.721-1.78,2.547-2.7a3.17,3.17,0,0,0,.393-.862c.7.216.561-.635,1.01-.8l.533.746a9.206,9.206,0,0,1,2.191-1.392,23.27,23.27,0,0,0-7.319,9.39,3.483,3.483,0,0,1,.26-1.425c.619-1.151,1.327-2.253,1.992-3.378a5.786,5.786,0,0,0,.264-.577,2.011,2.011,0,0,0-.783.523c-1.208,1.262-2.461,2.487-3.6,3.81a17.344,17.344,0,0,0-3.509,6.279A17.841,17.841,0,0,0,320.237,49a19.769,19.769,0,0,0,2.4,9.662,1.5,1.5,0,0,1,.161.456,4.364,4.364,0,0,0,1.74,2.393c-.769-1.814-1.655-3.62-2.3-5.508a14.324,14.324,0,0,1-1.084-5.956c.174.816.26,1.65.457,2.457a14.954,14.954,0,0,0,1.5,4.437,8.961,8.961,0,0,0,.3,1.05,26.609,26.609,0,0,0,2.855,5.06c.4.576.87,1.109,1.307,1.662l.168-.125c-.133-.213-.254-.435-.4-.638a27.536,27.536,0,0,1-3.883-6.671c-.049-.138-.217-.232-.33-.347l-.145-1.3a19.62,19.62,0,0,0,1.985,3.987c.043-.159.086-.228.072-.283-.482-1.92-1.041-3.825-1.431-5.764a21.177,21.177,0,0,1-.389-3.993,21.418,21.418,0,0,1,.4-2.985,29.433,29.433,0,0,1,1.786-6.905,5.131,5.131,0,0,1,.3-.549.611.611,0,0,1,.119.524,37.315,37.315,0,0,0-1.7,6.934,18.831,18.831,0,0,0-.411,4.1,53.445,53.445,0,0,0,1.735,8.165,1.568,1.568,0,0,0,.156.37,1.528,1.528,0,0,0,.184.223,35.352,35.352,0,0,1-1.018-8.7c.185,1.086.307,2.179.451,3.27a25.132,25.132,0,0,0,1.8,7,7.426,7.426,0,0,0,1.568,2.4,1.554,1.554,0,0,0-.034-.414,27.211,27.211,0,0,1-2.8-10.956,26.063,26.063,0,0,1,.81-7.789A30.9,30.9,0,0,1,328.239,39a1.762,1.762,0,0,0,.2-1.057,1.536,1.536,0,0,1,.164-1.056,15.768,15.768,0,0,1,.829-1.838c.676-1.2,1.354-2.4,2.134-3.526a3.479,3.479,0,0,1,1.537-1.391,2.153,2.153,0,0,0,1.22-1.01c.357-.529.7-1.067,1.068-1.589a2.371,2.371,0,0,1,.423-.361c.023.132.045.174.032.193q-1.57,2.275-3.15,4.543c-.073.1-.213.251-.307.241-.652-.07-.828.468-1.091.853-.455.665-.866,1.362-1.278,2.056-.163.274-.278.576-.415.865l.179.1c.355-.5.693-1.017,1.068-1.5.741-.964,1.776-1.655,2.456-2.69a9.814,9.814,0,0,1,1.266-1.282,2.117,2.117,0,0,0,.491-.623,28.141,28.141,0,0,1,3.194-5.231,5.273,5.273,0,0,0,.807-1.928c.049-.237.074-.479.11-.718a3.95,3.95,0,0,1-.509,2.91,55.871,55.871,0,0,1-4.039,6.263c-.068.1-.205.252-.28.236-.5-.107-.62.311-.832.581a22.912,22.912,0,0,0-3.094,6.091,3.012,3.012,0,0,0-.1.666,1.447,1.447,0,0,0,.432-.557c.361-.681.718-1.364,1.094-2.036.017-.03.2.034.308.054l.022-.023a3.223,3.223,0,0,0-.4.514,26.9,26.9,0,0,0-2.706,8.294c-.046.326-.147.643-.223.964-.18-.137-.218-.236-.2-.323q.548-2.453,1.111-4.9c.06-.261.264-.536.216-.766a5.012,5.012,0,0,1,.562-2.919c.357-.922.725-1.84,1.089-2.76a1.878,1.878,0,0,0-.744.823c-.686,1.456-1.419,2.9-2.005,4.391a34.682,34.682,0,0,0-2.059,9.211,24.3,24.3,0,0,0,.43,6.711,12,12,0,0,0,.341,1.369c.12.4.281.784.424,1.176a1.984,1.984,0,0,0,0-.829,8.6,8.6,0,0,1,.02-.882l.406,1.143c.052-.051.092-.087.127-.128.021-.025.027-.067.053-.083s.055.008.111.019c.669,3.159,1.624,6.18,4.487,8.147a19.265,19.265,0,0,1-3.99-8.147c-.692-2.638-.947-8.014-.309-9.19a3.485,3.485,0,0,1,.114.618c-.02,1.042-.062,2.082-.084,3.124a2.327,2.327,0,0,0,.063.795c.562,1.615,1.122,3.232,1.74,4.825a11.466,11.466,0,0,0,1.7,3.161,8.927,8.927,0,0,0-.347-2.572,28.237,28.237,0,0,1-1.6-9.18M345.46,1.091l-.175.1c.036.562.043,1.128.115,1.685a7.313,7.313,0,0,0,.7,2.9,2.769,2.769,0,0,0,1.419,1.359c.185.065.535.057.61-.053a.84.84,0,0,0,.08-.7q-.985-2.2-2.045-4.365A6.041,6.041,0,0,0,345.46,1.091ZM332.308,62.171l.29-.165c-.608-1.184-1.335-2.315-1.829-3.548s-.943-2.514-1.439-3.846c-.056.161-.1.226-.1.283a21.537,21.537,0,0,0,1.489,5.4c.062.147.216.4.271.385.568-.146.551.346.731.625S332.113,61.883,332.308,62.171Zm30.414-1.114a14.45,14.45,0,0,0,3.929-6.718,15.619,15.619,0,0,0-1.985,3.335C364.227,58.969,363.106,59.785,362.722,61.058Zm-35.8-30.688c.414-.119.663.393,1.146.115,1.246-.718,2.546-1.342,3.82-2.011a1.5,1.5,0,0,0,.29-.27l-.114-.192A22.1,22.1,0,0,0,326.922,30.37Zm2.952,32.7c.392,1.608,2.683,4.208,3.71,4.363Zm-10.482-6.954-.171.117a20.459,20.459,0,0,0,2.92,4.814c.057-.255.128-.381.091-.44C321.293,59.1,320.342,57.608,319.392,56.112Zm-7.415,2.67a4.857,4.857,0,0,0,2.756,3.224Zm23.748,4.146L336,62.82l-.879-2.783-.606.3Zm-18.494-2.357.186-.087-1.811-3.869A9.705,9.705,0,0,0,317.231,60.572Zm11.727-31.818a3.811,3.811,0,0,0-2.982,1.489Zm-3.881,37.861a4.274,4.274,0,0,0,3.368,1.047Zm15.489-4.359-.17-2.73A4.44,4.44,0,0,0,340.566,62.256Zm-26.654-9.439a2.743,2.743,0,0,0,.565,2.277Zm41.072,6.844-.164-.135-1.109,1.436C354.535,60.843,354.589,60.117,354.984,59.662Zm-21.8,3.236a1.693,1.693,0,0,0,.914,1.4,4.792,4.792,0,0,0-.549-.935C333.441,63.2,333.311,63.052,333.189,62.9ZM346.95,38.94c.228-.825.228-.825-.2-1.48Zm-.336,23.179.187.145.44-.9-.161-.081Zm-19.6.337-.155.14.613.7.156-.141ZM342.52,61.6l-.028-.009q-.007.248-.015.5h.029Q342.513,61.843,342.52,61.6Zm-26.609.108c-.1.652.219.733.627.739Z" transform="translate(-308.724)"/><path d="M425.375,123.554a5.384,5.384,0,0,0,.473-.842,20.612,20.612,0,0,0,1.236-7.405,21.466,21.466,0,0,0-.372-3.8.981.981,0,0,1,.1-.61,6.331,6.331,0,0,1,.619,2.784,21.3,21.3,0,0,1-.351,5.92c-.405,1.522-.917,3.015-1.383,4.526l-.255.6a1.31,1.31,0,0,1-.179-.461,4.445,4.445,0,0,1,.147-.765Z" transform="translate(-377.665 -65.605)"/><path d="M384.169,74.81,382.23,82.4a51.868,51.868,0,0,1,2.041-8.886c.372-.038.464.206.448.5-.048.9-.123,1.8-.175,2.7-.038.665-.041,1.332-.091,1.995a9.808,9.808,0,0,1-.2,1.394,21.83,21.83,0,0,1-.989,3.394c.062-.387.093-.782.192-1.159a18.5,18.5,0,0,0,.674-4.775c0-.9.138-1.8.213-2.7Z" transform="translate(-352.204 -43.486)"/><path d="M369.054,73.364A2.652,2.652,0,0,1,369,71.2a23.4,23.4,0,0,1,3.446-7.551,19.265,19.265,0,0,0,3.049-6.962c.131-.687.188-1.389.278-2.084.351,2.373-.5,4.468-1.5,6.533-.257.533-.407,1.124-.709,1.627-.342.569-.812,1.059-1.206,1.6a19.009,19.009,0,0,0-3.25,7.618A8.51,8.51,0,0,0,369.054,73.364Z" transform="translate(-344.256 -32.3)"/><path d="M402.954,85.539c-.156-1.515-.262-2.834-.436-4.143a5.748,5.748,0,0,0-1.154-2.646c-.437-.594-.846-1.21-1.242-1.831a5.491,5.491,0,0,1-.345-.8c.188-.014.29-.045.306-.02a18.051,18.051,0,0,1,2.537,4.2A10.464,10.464,0,0,1,402.954,85.539Z" transform="translate(-362.587 -45.014)"/><path d="M395.313,76.167c1.429,3.078,1.515,6.352,1.27,9.676-.124-1.631-.148-3.278-.4-4.889s-.732-3.159-1.111-4.737Z" transform="translate(-359.803 -45.057)"/><path d="M388.639,82.611c-.469.584-.319,1.326-.491,1.986a13.056,13.056,0,0,1-.526,2.006c.122-.919.19-1.85.38-2.755a22.271,22.271,0,0,0,.3-5.281,4.049,4.049,0,0,1,.184-1.8l.217.018c-.007.244-.034.49-.018.733a5.869,5.869,0,0,0,.285,2.273,1.213,1.213,0,0,1-.031,1.053,2.3,2.3,0,0,0-.326,1.794Z" transform="translate(-355.397 -45.411)"/><path d="M364.816,81.875c.191-.266.8-.415.246-.892-.029-.025-.022-.15-.012-.153.753-.191.488-1.073,1.024-1.473a9.77,9.77,0,0,0,1.2-1.468,3.673,3.673,0,0,1,1.015-.769,12.524,12.524,0,0,0-2.62,4.037c-.582,1.489-1.133,2.991-1.754,4.639a8.1,8.1,0,0,1,.149-1.088c.211-.738.473-1.461.694-2.2a3.7,3.7,0,0,0,.08-.662Z" transform="translate(-341.373 -45.622)"/><path d="M440.227,98.117a3.725,3.725,0,0,1,1.442,2.81c-.574-.925-1.089-1.753-1.6-2.587C440.06,98.319,440.14,98.241,440.227,98.117Z" transform="translate(-386.424 -58.042)"/><path d="M394.7,66.623l1.017,2.8C395.009,69.048,394.854,68.617,394.7,66.623Z" transform="translate(-359.586 -39.412)"/><path d="M397.353,59.181a3.006,3.006,0,0,1-.833-1.831A1.77,1.77,0,0,1,397.353,59.181Z" transform="translate(-360.66 -33.926)"/><path d="M380.408,52.314l-.6,1.762-.218-.07.547-1.78Z" transform="translate(-350.645 -30.895)"/><path d="M368.265,90.36c-.173-.626.275-1.044.5-1.672C368.866,89.393,368.819,89.56,368.265,90.36Z" transform="translate(-343.923 -52.464)"/><path d="M390.191,57.465c.015-.486.029-.971.051-1.69C390.539,56.543,390.539,56.543,390.191,57.465Z" transform="translate(-356.916 -32.994)"/><path d="M385.191,99.742l-.352,1.656-.2-.04.212-1.669Z" transform="translate(-353.629 -58.971)"/><path d="M409.621,97.748a1.205,1.205,0,0,1-.334-1.379A1.47,1.47,0,0,1,409.621,97.748Z" transform="translate(-368.161 -57.008)"/><path d="M387.418,43.79c.458.575.009.92-.116,1.288C387.336,44.7,387.369,44.326,387.418,43.79Z" transform="translate(-355.207 -25.904)"/><path d="M337.743,84.191c-1.307.956-1.662,2.636-2.838,3.76C334.784,86.927,336.374,84.833,337.743,84.191Z" transform="translate(-324.208 -49.804)"/><path d="M327.377,118.983c.143.822.243,1.511.387,2.191s.329,1.333.5,2.006C327.526,122.8,327.255,121.549,327.377,118.983Z" transform="translate(-319.741 -70.386)"/><path d="M316.708,102.173c-.421-1.322.427-2.161,1.059-3.087-.1.282-.193.571-.314.845a3.2,3.2,0,0,0-.482,1.889C316.988,101.919,316.8,102.055,316.708,102.173Z" transform="translate(-313.38 -58.615)"/><path d="M341.519,89.221l-.4,1.014-.212-.116q.319-.436.635-.872Z" transform="translate(-327.763 -52.78)"/></g></g></g></g></svg>