<?xml version="1.0" encoding="utf-8"?>
<!-- Generator: Adobe Illustrator 25.4.1, SVG Export Plug-In . SVG Version: 6.00 Build 0)  -->
<svg version="1.1" id="Layer_1" xmlns="http://www.w3.org/2000/svg" xmlns:xlink="http://www.w3.org/1999/xlink" x="0px" y="0px"
	 viewBox="0 0 312 139.7" style="enable-background:new 0 0 312 139.7;" xml:space="preserve">
<g>
	<g>
		<path d="M4.6,108.9c-1.4-0.8-2.6-1.8-3.4-3.2c-0.8-1.4-1.2-2.9-1.2-4.6s0.4-3.3,1.2-4.6c0.8-1.4,1.9-2.4,3.4-3.2
			c1.4-0.8,3-1.1,4.8-1.1c1.6,0,3,0.3,4.2,0.8c1.3,0.6,2.3,1.4,3.1,2.4l-3.1,2.8c-1.1-1.3-2.5-2-4-2c-0.9,0-1.8,0.2-2.5,0.6
			c-0.7,0.4-1.3,1-1.7,1.7c-0.4,0.7-0.6,1.6-0.6,2.6s0.2,1.8,0.6,2.6c0.4,0.7,1,1.3,1.7,1.7c0.7,0.4,1.6,0.6,2.5,0.6
			c1.6,0,2.9-0.7,4-2l3.1,2.8c-0.8,1-1.9,1.8-3.1,2.4c-1.3,0.6-2.7,0.8-4.2,0.8C7.6,110.1,6,109.7,4.6,108.9z"/>
		<path d="M37.7,92.6v17.2h-4.9V103h-6.6v6.7h-4.9V92.6h4.9V99h6.6v-6.4H37.7z"/>
		<path d="M45.6,108c-1.4-1.4-2.1-3.4-2.1-5.9v-9.5h4.9v9.4c0,2.7,1.1,4.1,3.3,4.1c2.2,0,3.2-1.4,3.2-4.1v-9.4h4.8v9.5
			c0,2.5-0.7,4.5-2.1,5.9c-1.4,1.4-3.4,2.1-5.9,2.1C49,110.1,47,109.4,45.6,108z"/>
		<path d="M68.7,96.4h-5.3v-3.8h15.4v3.8h-5.2v13.3h-4.9V96.4z"/>
		<path d="M99.4,92.6v17.2h-4l-7.6-9.1v9.1h-4.8V92.6h4l7.6,9.1v-9.1H99.4z"/>
		<path d="M119.1,106v3.7h-13.8V92.6h13.5v3.7h-8.7v2.9h7.6v3.6h-7.6v3.1H119.1z"/>
		<path d="M133.2,103.6v6.2h-4.9v-6.2l-6.5-10.9h5.1l4.1,6.8l4.1-6.8h4.7L133.2,103.6z"/>
		<path d="M155,108c-1.4-1.4-2.1-3.4-2.1-5.9v-9.5h4.9v9.4c0,2.7,1.1,4.1,3.3,4.1c2.2,0,3.2-1.4,3.2-4.1v-9.4h4.8v9.5
			c0,2.5-0.7,4.5-2.1,5.9c-1.4,1.4-3.4,2.1-5.9,2.1C158.4,110.1,156.5,109.4,155,108z"/>
		<path d="M191.1,92.6v17.2h-4l-7.6-9.1v9.1h-4.8V92.6h4l7.6,9.1v-9.1H191.1z"/>
		<path d="M197,92.6h8.1c1.9,0,3.5,0.4,5,1.1c1.5,0.7,2.6,1.7,3.4,3c0.8,1.3,1.2,2.8,1.2,4.5s-0.4,3.2-1.2,4.5
			c-0.8,1.3-1.9,2.3-3.4,3c-1.5,0.7-3.1,1.1-5,1.1H197V92.6z M204.9,105.8c1.5,0,2.7-0.4,3.5-1.3c0.9-0.8,1.3-2,1.3-3.5
			s-0.4-2.6-1.3-3.5c-0.9-0.8-2.1-1.3-3.5-1.3h-3.1v9.4H204.9z"/>
		<path d="M244.7,109.7l0-9.1l-4.4,7.4h-2.2l-4.4-7.2v8.8h-4.5V92.6h4l6,9.9l5.9-9.9h4l0,17.2H244.7z"/>
		<path d="M268.9,106v3.7h-13.8V92.6h13.5v3.7h-8.7v2.9h7.6v3.6h-7.6v3.1H268.9z"/>
		<path d="M290.3,92.6v17.2h-4.9V103h-6.6v6.7H274V92.6h4.9V99h6.6v-6.4H290.3z"/>
		<path d="M303.7,105.2h-2.6v4.6h-4.9V92.6h7.8c1.6,0,2.9,0.3,4,0.8c1.1,0.5,2,1.3,2.6,2.2c0.6,1,0.9,2.1,0.9,3.4
			c0,1.2-0.3,2.3-0.9,3.2c-0.6,0.9-1.4,1.6-2.5,2.2l3.7,5.4h-5.2L303.7,105.2z M306,97.1c-0.5-0.4-1.3-0.7-2.3-0.7h-2.7v5h2.7
			c1,0,1.7-0.2,2.3-0.6c0.5-0.4,0.8-1.1,0.8-1.9C306.8,98.1,306.5,97.5,306,97.1z"/>
		<path d="M41.7,125.8v10.9h-1.1V128l-4.3,7.3h-0.5l-4.3-7.3v8.6h-1.1v-10.9h0.9l4.7,8.1l4.7-8.1H41.7z"/>
		<path d="M54.4,133.8h-6.1l-1.3,2.9h-1.2l5-10.9h1.1l5,10.9h-1.2L54.4,133.8z M54,132.8l-2.6-5.8l-2.6,5.8H54z"/>
		<path d="M70.1,125.8v10.9h-0.9l-7-8.8v8.8H61v-10.9H62l7,8.8v-8.8H70.1z"/>
		<path d="M77.1,135.6c-0.8-0.8-1.2-2-1.2-3.5v-6.2H77v6.2c0,1.3,0.3,2.2,0.9,2.8c0.6,0.6,1.4,0.9,2.5,0.9c1.1,0,1.9-0.3,2.5-0.9
			c0.6-0.6,0.9-1.6,0.9-2.8v-6.2h1.1v6.2c0,1.5-0.4,2.7-1.2,3.5c-0.8,0.8-1.9,1.2-3.3,1.2C79,136.8,77.9,136.4,77.1,135.6z"/>
		<path d="M91.7,126.8v4.3h5.6v1h-5.6v4.6h-1.1v-10.9h7.4v1H91.7z"/>
		<path d="M109.1,133.8H103l-1.3,2.9h-1.2l5-10.9h1.1l5,10.9h-1.2L109.1,133.8z M108.6,132.8L106,127l-2.6,5.8H108.6z"/>
		<path d="M119.1,131.6l-2.2,2.3v2.9h-1.1v-10.9h1.1v6.6l6.4-6.6h1.3l-4.7,4.9l5,5.9h-1.4L119.1,131.6z"/>
		<path d="M130.6,126.8h-3.8v-1h8.8v1h-3.8v9.9h-1.1V126.8z"/>
		<path d="M140.5,135.6c-0.8-0.8-1.2-2-1.2-3.5v-6.2h1.1v6.2c0,1.3,0.3,2.2,0.9,2.8c0.6,0.6,1.4,0.9,2.5,0.9c1.1,0,1.9-0.3,2.5-0.9
			c0.6-0.6,0.9-1.6,0.9-2.8v-6.2h1.1v6.2c0,1.5-0.4,2.7-1.2,3.5c-0.8,0.8-1.9,1.2-3.3,1.2C142.4,136.8,141.3,136.4,140.5,135.6z"/>
		<path d="M161.5,136.7l-2.5-3.5c-0.3,0-0.6,0-0.9,0h-2.9v3.4h-1.1v-10.9h4.1c1.4,0,2.5,0.3,3.3,1c0.8,0.7,1.2,1.6,1.2,2.7
			c0,0.8-0.2,1.6-0.6,2.1c-0.4,0.6-1,1-1.8,1.3l2.7,3.7H161.5z M160.6,131.5c0.6-0.5,0.9-1.1,0.9-2c0-0.9-0.3-1.6-0.9-2
			c-0.6-0.5-1.4-0.7-2.5-0.7h-2.9v5.4h2.9C159.2,132.3,160,132,160.6,131.5z"/>
		<path d="M174,125.2h1v14.5h-1V125.2z"/>
		<path d="M189.1,136.1c-0.9-0.5-1.5-1.1-2-2c-0.5-0.8-0.7-1.8-0.7-2.8c0-1,0.2-2,0.7-2.8c0.5-0.8,1.2-1.5,2-2
			c0.9-0.5,1.8-0.7,2.9-0.7c0.8,0,1.6,0.1,2.2,0.4c0.7,0.3,1.3,0.7,1.7,1.2l-0.7,0.7c-0.8-0.9-1.9-1.3-3.2-1.3
			c-0.9,0-1.6,0.2-2.3,0.6c-0.7,0.4-1.3,0.9-1.7,1.6c-0.4,0.7-0.6,1.4-0.6,2.3c0,0.8,0.2,1.6,0.6,2.3c0.4,0.7,1,1.2,1.7,1.6
			c0.7,0.4,1.5,0.6,2.3,0.6c1.3,0,2.4-0.4,3.2-1.3l0.7,0.7c-0.5,0.5-1.1,0.9-1.7,1.2s-1.4,0.4-2.2,0.4
			C191,136.8,190,136.5,189.1,136.1z"/>
		<path d="M207.3,133.8h-6.1l-1.3,2.9h-1.2l5-10.9h1.1l5,10.9h-1.2L207.3,133.8z M206.9,132.8l-2.6-5.8l-2.6,5.8H206.9z"/>
		<path d="M215.6,126.8h-3.8v-1h8.8v1h-3.8v9.9h-1.1V126.8z"/>
		<path d="M232.4,135.7v1h-7.7v-10.9h7.5v1h-6.3v3.9h5.6v1h-5.6v4H232.4z"/>
		<path d="M244.8,136.7l-2.5-3.5c-0.3,0-0.6,0-0.9,0h-2.9v3.4h-1.1v-10.9h4.1c1.4,0,2.5,0.3,3.3,1c0.8,0.7,1.2,1.6,1.2,2.7
			c0,0.8-0.2,1.6-0.6,2.1c-0.4,0.6-1,1-1.8,1.3l2.7,3.7H244.8z M243.9,131.5c0.6-0.5,0.9-1.1,0.9-2c0-0.9-0.3-1.6-0.9-2
			c-0.6-0.5-1.4-0.7-2.5-0.7h-2.9v5.4h2.9C242.5,132.3,243.3,132,243.9,131.5z"/>
		<path d="M250.9,125.8h1.1v10.9h-1.1V125.8z"/>
		<path d="M267,125.8v10.9h-0.9l-7-8.8v8.8H258v-10.9h0.9l7,8.8v-8.8H267z"/>
		<path d="M280.6,131.2h1.1v4.1c-0.5,0.4-1.1,0.8-1.8,1s-1.4,0.4-2.2,0.4c-1.1,0-2.1-0.2-2.9-0.7c-0.9-0.5-1.6-1.1-2-2
			c-0.5-0.8-0.7-1.8-0.7-2.8c0-1,0.2-2,0.7-2.8c0.5-0.8,1.2-1.5,2-2c0.9-0.5,1.9-0.7,2.9-0.7c0.8,0,1.6,0.1,2.3,0.4s1.3,0.7,1.8,1.2
			L281,128c-0.9-0.8-2-1.3-3.3-1.3c-0.9,0-1.7,0.2-2.4,0.6c-0.7,0.4-1.3,0.9-1.7,1.6c-0.4,0.7-0.6,1.5-0.6,2.3
			c0,0.8,0.2,1.6,0.6,2.3c0.4,0.7,1,1.2,1.7,1.6c0.7,0.4,1.5,0.6,2.4,0.6c1.1,0,2.1-0.3,2.8-0.8V131.2z"/>
	</g>
	<g>
		<path d="M161.7,0c1.2,0.4,1.9,1.2,2.4,2.3c0.6,1.3,1.3,2.6,1.9,3.9c0.1,0.3,0.3,0.7,0.1,0.9c-0.9,1.4-1.2,2.9-1.8,4.4
			c-0.8,2.3-1.3,4.7-1.6,7.2c-0.3,1.9-0.1,3.8,0.8,5.6c0.8,1.4,1.8,2.6,2.9,3.7c0.7,0.6,1.6,0.9,2.5,1.3c2.5,1.2,4.7,2.8,6.9,4.5
			c1.2,1,2.4,1.9,3.6,2.9c0.7,0.6,1.4,1.4,2,2.1c2.2,2.8,3.3,6.1,4.1,9.5c0.2,0.7,0.2,1.5,0.2,2.2c0,2.1-0.5,4.1-1.6,5.9
			c-1,1.7-2,3.5-3.3,4.9c-1.2,1.4-2.5,2.6-3.9,3.7c-0.7,0.6-1.7,0.8-2.6,1.1c-0.4,0.1-0.9,0.1-1.3,0c-0.5-0.2-0.7-0.1-1.1,0.2
			c-1.3,0.8-2.7,1.4-4.3,1.4c-0.7,0-1.3,0.3-2,0.2c-0.8,0-1.7-0.2-2.5-0.3c-0.3,0-0.7,0-1,0c-1.5,0.4-3,0.9-4.6,1.3
			c-1.6,0.3-3.3,0.3-5,0.1c-0.6-0.1-1.2-0.5-1.8-0.8c-0.4-0.2-0.7-0.4-1.2-0.1c-0.3,0.2-0.8,0.1-1.1,0.2c-2.2,0.7-4.3,0.2-6.4-0.6
			c-1.4-0.6-2.9-0.9-4.3-1.3c-2.6-0.6-4.9-1.6-6.5-3.9c-0.3-0.4-0.6-0.7-0.9-1.1c-1.6-1.8-2.6-4.1-3.3-6.3
			c-1.3-4.1-1.4-8.3,0.2-12.3c1.1-2.6,2.6-5.1,4.7-7.1c1-1,2-1.9,3.3-2.5c0.6-0.3,1.1-0.6,1.6-1c2.1-1.4,4.4-2.2,6.7-3.3
			c1.2-0.5,2.4-1,3.6-1.5c1.8-0.6,3-2,4-3.4c1.1-1.6,1.8-3.5,2.3-5.4c0.4-1.4,0.9-2.8,1.5-4.2c1.4-3.5,2.9-7,4.4-10.4
			C160.1,2.8,160.9,1.5,161.7,0z M134,64.3c0.2,0.3,0.5,0.4,0.7,0.5c0-0.1,0.1-0.1,0.1-0.2C134.6,64.4,134.3,64.3,134,64.3
			c-0.2-0.5-0.6-0.7-1-0.9c0,0.1-0.1,0.1-0.1,0.2C133.2,63.8,133.6,64,134,64.3z M165.6,65c0.6-0.4,0.9-1.1,1-1.8
			c-0.4,0.6-0.8,1.2-1.1,1.7c-0.2,0.2-0.4,0.5-0.6,0.7c0.1,0.1,0.1,0.1,0.2,0.2C165.2,65.5,165.4,65.3,165.6,65z M159.2,6.3
			c0.9-1.6,1.9-3.3,2.8-4.9c0.1-0.1,0-0.3-0.1-0.6c-0.2,0.2-0.4,0.3-0.4,0.4c-0.7,1.3-1.4,2.6-2,3.9C159.3,5.5,159.3,5.9,159.2,6.3
			c-0.3,0.2-0.4,0.5-0.2,0.9C159,6.9,159.1,6.6,159.2,6.3z M173.8,57.9c-0.1,0.1-0.2,0.2-0.3,0.3c-0.7,1.2-1.4,2.4-2.1,3.7
			c-0.2,0.3-0.4,0.6-0.6,0.9c0.3-0.1,0.6-0.3,0.7-0.5c0.8-1,1.5-2.1,2.3-3.1c0.1-0.2,0.2-0.4,0.3-0.6c1.1-1.5,1.5-3.2,2-4.9
			c0,0.7-0.1,1.4-0.2,2c-0.9,3-2.4,5.6-4.6,7.8c-0.5,0.5-1,1.2-1.7,1.9c0.3-0.1,0.4-0.1,0.4-0.1c1.5-1.4,3.1-2.7,4-4.6
			c0.1-0.2,0.2-0.3,0.3-0.5c1.4-2.1,2.5-4.3,3-6.8c0.3-1.5,0.5-3,0.6-4.6c0.1-1.1-0.2-2.3-0.2-3.4c0-2-0.6-3.8-1.3-5.7
			c-0.1-0.2-0.2-0.4-0.3-0.6c-0.1,0.4-0.1,0.7-0.2,1c-0.3-1.3-1-2.4-1.8-3.5c0.2,1.2,0.8,2.4,0.7,3.7c-0.5-1.5-0.8-3-1.7-4.4
			c-0.7-1.1-2.6-3-3.4-3.2c0.2,0.3,0.3,0.6,0.5,0.8c1,1.6,1.9,3.2,2.3,5.1c0.2,0.9,0.3,1.8,0.6,2.7c0.7,2.4,1.1,4.8,0.8,7.3
			c-0.1,0.7-0.1,1.5-0.1,2.2c-0.2,2.2-0.4,4.4-1.3,6.5c-0.3,0.6-0.5,1.3-0.7,2c0,0,0.1,0.1,0.1,0.1c0.7-0.9,1.3-1.8,2-2.7
			c0,0,0.1,0.1,0.1,0.1C173.9,57.1,173.9,57.5,173.8,57.9L173.8,57.9z M139.9,36.4L139.9,36.4c0.4-1.7,2-2.6,2.9-4
			c-0.9,0.5-1.7,1.1-2.6,1.6c0-0.1-0.1-0.1-0.1-0.2c1.2-0.8,2.4-1.6,3.7-2.4c-2.9,1-5.4,2.7-7.8,4.6c0.5-0.6,1-1.1,1.5-1.6
			c0.5-0.5,1.1-0.9,1.6-1.4c-0.1-0.1-0.1-0.1-0.2-0.2c-1,0.8-2,1.6-3,2.4c0,0-0.1-0.1-0.1-0.1c0.9-0.8,1.7-1.5,2.6-2.3
			c-1.7,0.8-3,2-4.3,3.4c-0.1-0.1-0.1-0.1-0.2-0.2c1.1-1,2.1-2,3.2-3c-1,0.4-2,0.9-2.8,1.5c-3.1,2.3-5.1,5.3-6.5,8.8
			c-0.7,1.7-0.9,3.6-1.1,5.4c0,0.5,0,1,0.2,1.5c0.1,0.2,0.4,0.3,0.4,0.7c-0.2,2.5,0.9,4.7,2.1,6.8c0.1,0.2,0.3,0.4,0.5,0.6
			c0.1-0.2,0.1-0.3,0-0.4c-0.8-1.5-1.4-3.2-1.6-4.9c-0.2-1-0.2-2.1-0.3-3.1c-0.2-1.4-0.1-2.6,0.4-4.1c-0.2,2.3-0.1,4.4,0.5,6.5
			c0.6,2.1,1.6,4,2.9,5.9c0.1-0.2,0.1-0.3,0.1-0.3c-0.1-0.2-0.1-0.4-0.2-0.6c-0.9-2.1-1.9-4.2-2.2-6.5c-0.2-1.1-0.1-2.3,0.1-3.4
			c0.1,2,0.2,4,1.1,5.8c0.1-0.3,0.1-0.7,0-1c-0.5-2.2-0.5-4.5-0.3-6.7c0.1-1.6,0.5-3.2,1.2-4.7c0.1-0.3,0.3-0.5,0.5-0.8
			c0.1,0,0.2,0.1,0.2,0.1c-0.1,0.2-0.1,0.5-0.2,0.7c-0.3,1-0.8,2.1-1,3.1c-0.2,0.7-0.2,1.4-0.2,2.1c0,1.1-0.1,2.3-0.1,3.4
			c0,0.2,0,0.5,0.2,0.6c0.6,0.6,0.6,1.4,0.8,2.1c0.2,0.7,0.4,1.4,0.6,2.1c0.1,0.3,0.4,0.6,0.6,0.9c-0.1-1.5-0.4-2.9-0.6-4.3
			c-0.3-1.6-0.5-3.2-0.3-4.8c0.2-2.1,0.8-4.1,1.4-6.1c0.3-0.9,0.7-1.7,1.5-2.6c0.1,0.9-0.5,1.3-0.6,1.9c-0.2,0.6-0.4,1.3-0.5,1.9
			c-0.1,0.6-0.2,1.3-0.3,1.9c-0.1,0.6-0.2,1.3-0.2,1.9c-0.1,0.6-0.1,1.3-0.1,1.9c0,0.7-0.1,1.3-0.1,2c0,0.6,0.1,1.3,0.2,1.9
			c0.1,0.6,0.2,1.3,0.4,1.9c0.2,0.7,0.3,1.3,0.6,1.9c0.2,0.6,0.5,1.2,0.7,1.7c0.1,0,0.1,0,0.2-0.1c-0.1-0.7-0.2-1.4-0.3-2.1
			c0.5,2.1,1.6,4,2.7,5.8c1.1,1.9,2.2,3.7,4.2,4.8c-2.1-2.3-3.7-4.9-5-7.7c-1.3-2.9-1.7-6-1.8-9.1c-0.1-3.3,0.7-8.1,1.7-9.1
			c0,0.3,0,0.6-0.1,0.7c-1.1,3.3-1.3,6.6-1.1,10c0.1,1.2,0.2,2.4,0.7,3.5c0.6,1.2,1.3,2.5,1.9,3.7c0.2,0.3,0.4,0.6,0.6,0.8
			c-0.7-2.1-1.7-4-1.9-6.2c0.2,0.6,0.4,1.1,0.7,1.9c-0.1-1.9-0.1-3.5-0.2-5.2c-0.1-2,0.3-4,1.1-5.9c0.5-1.2,1.2-2.3,1.7-3.5
			c1-2.5,2.6-4.6,4.4-6.4c0.5-0.5,1.1-0.9,1.6-1.3c-0.3,0-0.5,0-0.7,0.1c-1,0.8-2.1,1.6-3,2.5C141.3,34.7,140.6,35.6,139.9,36.4z
			 M148.5,51.8c0.2,2.1,0.7,4.2,1.3,6.2c0.3,1.2,1.2,2.3,0.9,3.6c0,0.1,0.1,0.3,0.2,0.5c0.7,1.1,1.3,2.2,2,3.2
			c0.1,0.1,0.3,0.2,0.4,0.3c-1.5-2.6-2.3-5.4-2.9-8.5c0.4,0.9,0.8,1.6,1.2,2.4c0.1-0.3,0-0.6,0-0.9c-0.6-2.8-1.2-5.5-1-8.4
			c0.1-1.1,0.2-2.2,0.4-3.3c0.3-2,0.5-4.1,1-6c0.5-2.1,1.3-4.2,2.1-6.2c0.7-1.9,1.5-3.8,3.7-4.7c-1.5,3.3-2.7,6.5-3.6,9.9
			c0-0.3,0-0.7,0.1-1c0.7-2.2,1.5-4.4,2.2-6.6c0.1-0.2,0.1-0.4,0.2-0.7c-0.3,0.1-0.4,0.2-0.4,0.3c-0.9,1.8-1.7,3.6-2.6,5.4
			c-0.3,0.6-0.5,1.2-0.7,1.9c-0.9,3.1-1.4,6.3-1.8,9.5c-0.3,2-0.1,4,0.3,6c0-1.3-0.1-2.6-0.1-3.9c0.3,1,0.3,2.1,0.4,3.1
			c0.1,1,0.1,2,0.5,3c0.3,0.9,0.2,2,1,2.8c-0.4-2.8-0.6-5.5-0.6-8.3c0.1-2.8,0.2-5.5,1.1-8.1c-1.4,7.6-0.7,15,2,22.2
			c-0.4-2.1-0.9-4.2-1.2-6.3c-0.3-2.5-0.7-5.3-0.2-6.5c-0.1,1.6-0.1,2.9,0.4,4.3c-0.1-1.6,0.1-3.2,0.4-4.8c0,0.8,0,1.6,0,2.4
			c0,0.8,0,1.6,0.1,2.4c0,0.8,0.1,1.7,0.2,2.5c0.1,0.8,0.2,1.6,0.7,2.5c0-0.4,0-0.5,0-0.6c-0.3-1.9-0.7-3.8-0.3-5.8
			c0-0.1,0-0.3,0-0.4c-0.2-2.6,0.2-5.1,0.6-7.7c-0.4,5-0.5,10,0.7,15c0-1.1-0.1-2.3-0.1-3.4c0-1.2,0.1-2.4,0.2-3.5
			c0.1-1.1,0-2.2,0.4-3.5c0.3,3.4,0.5,6.5,0.8,9.7c0.5-6.3,0.2-12.6-0.3-18.9c0.2,0.9,0.4,1.7,0.4,2.6c0.1,1.7,0.2,3.3,0.3,5
			c0.1,1.8,0.2,3.6,0.2,5.4c0,1,0.1,2,0.1,3c0,0.2,0.1,0.4,0.2,0.6c0.3-1,0.4-2,0.5-3c0.1-0.7,0.1-1.4,0.3-2.1
			c0.2-0.5,0.3-0.9,0.3-1.4c0-1.6,0-3.2,0-4.8c0-2.3-0.1-4.6-0.5-6.8c-0.3-1.4-0.5-2.9-0.7-4.4l0,0c0.2,0.1,0.4,0.2,0.5,0.3
			c0.1,0.2,0.2,0.5,0.2,0.7c0.2-0.8,0.2-1.6,0.1-2.4c-0.1-1.7-0.2-3.5-0.4-5.2c-0.1-1.3-0.4-2.5-0.5-3.8c0-0.1,0.1-0.2,0.1-0.3
			c0.1,0.2,0.1,0.4,0.2,0.5c0.3,1.2-0.1,2.6,1,3.5c0,0,0,0.1,0,0.2c0.2,0.8,0.5,1.5,0.7,2.3c0.5,1.4,0.8,2.8,0.8,4.3
			c0,0.7,0.1,1.4,0.1,2.1c0.2,2.7,0.5,5.5,0.7,8.2c0.1,2.1-0.1,4.3-0.1,6.5c0,0.2-0.1,0.4-0.1,0.6c-0.4-1.6-0.1-3.2-0.1-4.8
			c0-1.6-0.1-3.3-0.2-4.9c-0.1-1.6-0.2-3.2-0.5-4.7c-0.3-1.6-0.4-3.2-0.6-4.8c0.1,0.2,0.2,0.3,0.3,0.5c0-1.5-0.5-2.9-1.2-4.2
			c0,0.9,0.2,1.9,0.2,2.8c0,1.3-0.1,2.7-0.1,4c0,0.6,0,1.2,0,1.8c0.4,2.8,0.6,5.6,0.6,8.4c0,3.9-0.1,7.9-0.7,11.8
			c-0.1,0.4,0,0.8,0,1.4c0.2-0.3,0.2-0.4,0.3-0.5c0.6-1.4,1-2.8,1.2-4.3c0-0.3,0-0.6,0.6-0.6c-0.3,2.4-1.2,4.7-1.7,7
			c0.7-1.2,1.4-2.5,1.9-3.8c0.5-1.3,1-2.7,1.3-4c0.8-3.3,0.8-6.6,0.8-9.9c0-1-0.1-2-0.2-3c-0.2-1.7-0.5-3.5-0.8-5.2
			c-0.3-1.7-0.7-3.3-1-5c-0.1-0.4-0.1-0.9-0.1-1.3c0.7,1.5,1.4,3,1.8,4.6c0.3,1.1,0.6,2.3,0.4,3.4c-0.1,1.1,0,2.1,0.1,3.2
			c0.1,0.8,0.2,1.7,0.2,2.5c0,1.1,0,2.2,0,3.3c0,3.7-0.5,7.4-1.5,10.9c-0.1,0.2-0.1,0.4-0.1,0.6c1.1-2,1.6-4.1,2.1-6.2
			c0.1,0,0.2,0,0.2,0.1c-0.3,1.6-0.7,3.2-1,4.8c1.3-2.5,2-5.1,2-7.9c0.3,2.4-0.2,4.7-0.9,7c0.4-0.6,0.7-1.2,0.9-1.9
			c0.7-2.2,1.2-4.5,1.3-6.8c0-0.9,0.4-1.8-0.3-2.6c-0.1-0.1-0.1-0.2,0-0.3c0.5-0.6,0.1-1.2-0.1-1.8c-0.1-0.3-0.2-0.7,0.2-1
			c0.7,1.8,0.9,3.6,0.8,5.5c-0.2,2.7-0.7,5.3-1.6,7.8c0,0.1,0,0.3,0,0.4c0,0,0.1,0,0.1,0c0.3-0.6,0.6-1.3,1-1.9c0,0,0.1,0,0.1,0.1
			c-0.5,1.5-1,3-1.6,4.5c1.7-2.5,2.6-5.3,3-8.3c0,0.6,0.1,1.3,0,1.9c-0.1,0.6-0.3,1.2-0.4,1.8c-0.1,0.6-0.5,1.1-0.4,1.8
			c0.1-0.1,0.2-0.2,0.2-0.2c0.1-0.1,0.1-0.2,0.2-0.4c0.9-2.5,1.4-5.1,1.3-7.7c-0.1-1.3-0.3-2.6-0.3-3.9c0-2.2-0.4-4.4-1.2-6.5
			c0-0.1-0.1-0.2-0.2-0.3c0,0-0.1,0-0.1,0.1c0.1,0.8,0.2,1.6,0.3,2.4c-0.1,0-0.1,0-0.2,0c-0.1-0.7-0.3-1.4-0.4-2.1
			c-0.3-1.9-0.8-3.7-2.3-5c-0.4-0.4-1.8-2.3-2.1-2.8c0.4,0,1.8,1.5,2.3,1.4c0.3,0.3,0.6,0.8,1,1.3c1.6,2.4,3.2,4.9,3.4,7.9
			c0,0.6,0.2,1.3,0.2,1.9c0.1,1.3,0.3,2.7,0.4,4c0.2,2.3,0.1,4.7-0.5,6.9c-0.4,1.7-1.1,3.3-1.7,5c-0.1,0.2-0.1,0.5-0.1,0.7
			c0.1,0,0.2,0.1,0.2,0.1c0.4-0.9,0.8-1.8,1.2-2.8c-0.1,0.7-0.3,1.3-0.6,1.9c-0.5,1.1-1.1,2.2-1.7,3.3c-0.1,0.2-0.2,0.5-0.3,0.8
			c1.6-1.8,2.7-4,3.7-6.1c-0.4,1.9-1.6,3.5-2.4,5.4c0.9-0.5,1.3-1.2,1.6-1.9c1.5-3.1,2.4-6.3,2.5-9.7c0-0.3,0-0.7,0.1-1
			c0.5-3.3-0.1-6.5-1.4-9.8c0,0.7,0,1.1,0,1.5c-0.6-2.2-1.4-4.3-2.6-6.2c-0.8-1.1-1.5-2.3-2.4-3.3c-0.3-0.3-0.8-0.4-1.2-0.7
			c-0.3-0.1-0.5-0.3-0.3-0.7c0.6,0.3,1.2,0.7,1.8,1c0.1,0,0.1,0.1,0.2,0.2c1,1.5,2.3,2.8,3.1,4.5c0.2,0.4,0.4,0.3,0.7,0
			c-0.5-0.8-1-1.6-1.6-2.5c-0.5-0.8-1.5-1.4-1.7-2.5c0.4,0.3,0.7,0.7,1.3,1.1c-0.1-0.5-0.2-0.8-0.2-1.2c0.2,0.1,0.4,0.2,0.5,0.3
			c0.7,0.6,1.4,1.3,2.1,1.8c1.2,0.9,2.2,2,3.1,3.3c0.4,0.6,0.6,1.4,1.4,1.7c0.2,0.1,0.2,0.3,0.3,0.5c0.8,1.6,1.3,3.3,1.5,5
			c0.3,2.4,0.4,4.8,0.2,7.2c-0.2,2.3-0.7,4.5-1.7,6.6c-0.1,0.3-0.2,0.6-0.4,0.9c0.1,0,0.1,0.1,0.2,0.1c0.9-1.5,1.6-3.2,2.4-4.8
			c-0.1,0.7-0.3,1.4-0.5,2c-0.7,1.7-1.6,3.3-2.7,4.8c-0.1,0.1-0.1,0.3-0.2,0.4c2-2,3.1-4.6,4.6-7c0.3-0.5,0.5-1.2,0.6-1.8
			c0.2-0.7,0.3-1.5,0.4-2.3c0.2-1.6-0.3-3.2-0.6-4.9c1,1.7,1.3,3.4,1.4,5.2c0.1,1.4-0.1,2.8-0.6,4.1c-0.9,2.1-1.8,4.1-2.8,6.2
			c-0.1,0.2-0.1,0.4-0.2,0.6c1.8-1.8,2.9-3.9,3.9-6.1c-0.1,0.6-0.3,1.2-0.4,1.8c0.1,0,0.1,0,0.2,0.1c0.2-0.8,0.5-1.6,0.7-2.4
			c0.6-2.7,0.9-5.4,0-8.1c-0.1-0.2,0-0.5,0-0.7c1.6,3.5,0.9,6.9,0.2,10.4c1.2-1.6,1.6-3.4,1.5-5.3c0.1,0.4,0.2,0.8,0.3,1.3
			c0,0.4,0,0.8,0,1.2c0.7-1.2,1.1-3.6,0.8-4.8c-0.8-3.2-1.9-6.2-3.9-8.9c-0.3-0.5-0.8-0.8-1.2-1.3c0.2,0.7,0.7,1.2,0.7,2
			c-1.1-1.2-1.7-2.7-3.1-3.6c0.3,0.5,0.5,0.9,0.8,1.4c-1.8-1.7-3.3-3.7-5.5-4.8c0,0.2,0.2,0.3,0.3,0.4c1.3,1.3,2.6,2.7,3.5,4.3
			c0.2,0.3,0.3,0.6,0.4,1c-0.6-0.5-1-1.2-1.5-1.7c-0.4-0.3-0.7-0.6-0.9-1c-0.4-0.7-0.9-1.3-1.5-1.8c-0.9-0.7-1.7-1.5-2.6-2.3
			c-0.3-0.3-0.7-0.7-1.1-0.9c-1.8-0.8-3.4-1.9-5.1-3.1c-0.4-0.3-0.8-0.7-1.2-1.1c-0.2-0.2-0.4-0.4-0.2-0.9c0.6,0.5,1,1.2,1.7,1.5
			c0-0.2-0.1-0.3-0.2-0.5c-0.5-0.7-1.1-1.4-1.5-2.2c-0.8-1.5-1.1-3.1-1.1-4.8c0.1-2.5,0.6-4.9,1.3-7.2c0.4-1.3,0.9-2.7,1.4-4
			c0.1-0.2,0.4-0.6-0.3-0.8c-0.2,0.5-0.5,1-0.7,1.5c-0.5,1.7-1.1,3.4-1.5,5.1c-0.7,2.8-1.1,5.6-1.2,8.5c0,1,0.2,1.9,0.8,2.7
			c0.6,0.7,1.1,1.4,1.7,2.1c0.3,0.4,0.7,0.9,1,1.3c-0.1,0-0.1,0.1-0.2,0.1c-1.4-1.2-2.5-2.5-3.4-4c-0.2-0.3-0.3-0.7-0.3-1.1
			c-0.2-1.8,0-3.6,0.3-5.3c0.6-3.7,1.4-7.4,3-10.8c0.2-0.5,0.1-0.8-0.6-0.8c-1.6,4.3-2.7,8.7-3.7,13.2c0-0.4,0-0.8,0-1.2
			c0-0.2,0.1-0.5,0.1-0.7c0.8-3.9,1.8-7.7,3.1-11.5c0.2-0.5,0-0.8-0.3-1.2c-0.1,0.1-0.1,0.2-0.2,0.3c-0.2,0.4-0.4,0.8-0.6,1.3
			c-1.5,4.2-2.8,8.4-3.1,12.9c-0.1,1.4-0.4,2.7-0.4,4.1c0.1,1-0.1,1.9-0.2,2.9c0,0.4,0,0.8-0.6,1.1c0-0.5,0-0.8,0-1.1
			c0.3-2.6,0.5-5.3,0.9-7.9c0.3-2,0.4-4,1-5.9c0.9-2.7,1.4-5.5,2.7-8c0.2-0.5,0.2-1-0.2-1.7c-0.8,1.9-1.6,3.6-2.3,5.3
			c-0.7,1.8-1.2,3.6-1.8,5.4c-0.5,1.8-1,3.5-1.6,5.3c-0.1-0.6,0-1.1,0.2-1.6c0.6-2.3,1.2-4.7,2-7c0.9-2.8,1.9-5.7,3.5-8.2
			c0.1-0.1,0-0.3-0.1-0.7c-0.2,0.3-0.4,0.4-0.4,0.5c-2.1,3.8-3.8,7.7-5.1,11.8c-0.6,2.1-1.2,4.1-1.8,6.2c-0.5,1.6-1.2,3.1-1.8,4.6
			c-0.2,0.4-0.4,0.7-0.6,1.1c-0.1-0.3-0.1-0.5,0-0.7c0.8-2.3,1.8-4.5,2.5-6.8c0.9-3.2,1.7-6.5,3.1-9.6c0.1-0.1,0.1-0.3,0.1-0.5
			c-0.4,0.6-0.7,1.2-1,1.8c-1.3,2.9-2.5,5.9-3.3,9.1c-0.7,2.6-1.9,4.8-3.8,6.6c-0.4,0.4-0.9,0.8-1.5,1.3c0.6-0.2,1.1-0.3,1.7-0.4
			c-0.1,0.3-0.1,0.4-0.1,0.6c0.1,0,0.1,0.1,0.2,0.1c0.4-0.3,0.9-0.7,1.4-1.1c-0.2,0.8-0.6,1.4-1.2,1.5c-1.2,0.1-2.1,0.7-3,1.2
			c-0.5,0.2-0.5,0.3,0,0.7c-0.2,0.2-0.4,0.5-0.7,0.7c-1.8,1.2-3.3,2.8-4.6,4.6c-0.2,0.3-0.4,0.6-0.6,0.9c0.1,0,0.1,0.1,0.2,0.1
			c0.2-0.2,0.4-0.3,0.6-0.5c0.7-0.7,1.5-1.5,2.2-2.2c0.9-0.9,1.7-1.8,2.5-2.7c0.2-0.2,0.3-0.6,0.4-0.9c0.7,0.2,0.6-0.6,1-0.8
			c0.2,0.3,0.4,0.5,0.5,0.7c0.8-0.5,1.3-1.2,2.2-1.4c-3.3,2.5-5.6,5.7-7.3,9.4c0-0.5,0-1,0.3-1.4c0.6-1.2,1.3-2.3,2-3.4
			c0.1-0.2,0.2-0.4,0.3-0.6c-0.3,0.1-0.6,0.3-0.8,0.5c-1.2,1.3-2.5,2.5-3.6,3.8c-1.6,1.8-2.8,3.9-3.5,6.3c-0.5,1.7-0.7,3.5-0.7,5.3
			c0,3.4,0.7,6.7,2.4,9.7c0.1,0.1,0.1,0.3,0.2,0.5c0.1,0.8,1,2,1.7,2.4c-0.8-1.8-1.7-3.6-2.3-5.5c-0.7-1.9-1.3-3.9-1.1-6
			c0.2,0.8,0.3,1.6,0.5,2.5c0.4,1.5,0.7,3.1,1.5,4.4c0.1,0.4,0.2,0.7,0.3,1c0.7,1.8,1.7,3.5,2.9,5.1c0.4,0.6,0.9,1.1,1.3,1.7
			c0.1,0,0.1-0.1,0.2-0.1c-0.1-0.2-0.3-0.4-0.4-0.6c-1.5-2.1-3-4.2-3.9-6.7c0-0.1-0.2-0.2-0.3-0.3c0-0.4-0.1-0.9-0.1-1.3
			c0.6,1.4,1.1,2.7,2,4c0-0.2,0.1-0.2,0.1-0.3c-0.5-1.9-1-3.8-1.4-5.8c-0.3-1.3-0.4-2.7-0.4-4c0-1,0.3-2,0.4-3
			c0.3-2.4,0.9-4.7,1.8-6.9c0.1-0.2,0.2-0.4,0.3-0.5c0.1,0.2,0.2,0.4,0.1,0.5c-0.8,2.3-1.4,4.6-1.7,6.9c-0.2,1.4-0.5,2.7-0.4,4.1
			c0.2,2.8,1.1,5.5,1.7,8.2c0,0.1,0.1,0.3,0.2,0.4c0,0.1,0.1,0.1,0.2,0.2c-0.6-2.9-1.1-5.8-1-8.7c0.2,1.1,0.3,2.2,0.5,3.3
			c0.3,2.4,0.8,4.8,1.8,7c0.4,0.8,0.8,1.6,1.6,2.4c0-0.2,0-0.3,0-0.4c-1.7-3.4-2.6-7.1-2.8-11c-0.1-2.6,0.2-5.2,0.8-7.8
			c0.5-1.8,0.9-3.6,1.7-5.3c0.1-0.3,0.3-0.7,0.2-1.1c-0.1-0.4,0-0.7,0.2-1.1c0.3-0.6,0.5-1.3,0.8-1.8c0.7-1.2,1.4-2.4,2.1-3.5
			c0.4-0.6,0.9-1.2,1.5-1.4c0.6-0.2,0.9-0.6,1.2-1c0.4-0.5,0.7-1.1,1.1-1.6c0.1-0.1,0.3-0.2,0.4-0.4c0,0.1,0,0.2,0,0.2
			c-1,1.5-2.1,3-3.1,4.5c-0.1,0.1-0.2,0.3-0.3,0.2c-0.7-0.1-0.8,0.5-1.1,0.9c-0.5,0.7-0.9,1.4-1.3,2.1c-0.2,0.3-0.3,0.6-0.4,0.9
			c0.1,0,0.1,0.1,0.2,0.1c0.4-0.5,0.7-1,1.1-1.5c0.7-1,1.8-1.7,2.5-2.7c0.3-0.5,0.8-0.9,1.3-1.3c0.2-0.2,0.4-0.4,0.5-0.6
			c0.8-1.9,2.1-3.5,3.2-5.2c0.4-0.6,0.7-1.2,0.8-1.9c0-0.2,0.1-0.5,0.1-0.7c0.3,1.1-0.1,2-0.5,2.9c-1.1,2.2-2.7,4.2-4,6.3
			c-0.1,0.1-0.2,0.3-0.3,0.2c-0.5-0.1-0.6,0.3-0.8,0.6c-1.4,1.8-2.3,4-3.1,6.1c-0.1,0.2-0.1,0.4-0.1,0.7c0.2-0.2,0.3-0.4,0.4-0.6
			c0.4-0.7,0.7-1.4,1.1-2c0,0,0.2,0,0.3,0.1l0,0c-0.1,0.2-0.3,0.3-0.4,0.5c-1.3,2.6-2.3,5.4-2.7,8.3c0,0.3-0.1,0.6-0.2,1
			c-0.2-0.1-0.2-0.2-0.2-0.3c0.4-1.6,0.7-3.3,1.1-4.9c0.1-0.3,0.3-0.5,0.2-0.8c-0.2-1.1,0.2-2,0.6-2.9c0.4-0.9,0.7-1.8,1.1-2.8
			c-0.4,0.2-0.6,0.5-0.7,0.8c-0.7,1.5-1.4,2.9-2,4.4c-1.2,3-1.7,6.1-2.1,9.2c-0.2,2.3,0,4.5,0.4,6.7c0.1,0.5,0.2,0.9,0.3,1.4
			c0.1,0.4,0.3,0.8,0.4,1.2c0.1-0.3,0-0.6,0-0.8c0-0.2,0-0.5,0-0.9c0.2,0.5,0.3,0.8,0.4,1.1c0.1-0.1,0.1-0.1,0.1-0.1
			c0,0,0-0.1,0.1-0.1c0,0,0.1,0,0.1,0c0.7,3.2,1.6,6.2,4.5,8.1c-2.1-2.4-3.2-5.2-4-8.1c-0.7-2.6-0.9-8-0.3-9.2
			c0.1,0.3,0.1,0.4,0.1,0.6c0,1-0.1,2.1-0.1,3.1c0,0.3,0,0.6,0.1,0.8c0.6,1.6,1.1,3.2,1.7,4.8c0.4,1.1,0.9,2.2,1.7,3.2
			c-0.1-0.9,0-1.8-0.3-2.6c-1.1-3-1.5-6.1-1.6-9.2 M162.8,1.1c-0.1,0-0.1,0.1-0.2,0.1c0,0.6,0,1.1,0.1,1.7c0.1,1,0.2,2,0.7,2.9
			c0.3,0.6,0.8,1.1,1.4,1.4c0.2,0.1,0.5,0.1,0.6-0.1c0.1-0.2,0.2-0.5,0.1-0.7c-0.7-1.5-1.3-2.9-2-4.4C163.4,1.7,163.1,1.4,162.8,1.1
			z M149.7,62.2c0.1-0.1,0.2-0.1,0.3-0.2c-0.6-1.2-1.3-2.3-1.8-3.5c-0.5-1.2-0.9-2.5-1.4-3.8c-0.1,0.2-0.1,0.2-0.1,0.3
			c0.3,1.9,0.8,3.7,1.5,5.4c0.1,0.1,0.2,0.4,0.3,0.4c0.6-0.1,0.6,0.3,0.7,0.6C149.3,61.6,149.5,61.9,149.7,62.2z M180.1,61.1
			c1.8-2,3.4-4,3.9-6.7c-0.7,1.1-1.6,2.1-2,3.3C181.6,59,180.5,59.8,180.1,61.1z M144.3,30.4c0.4-0.1,0.7,0.4,1.1,0.1
			c1.2-0.7,2.5-1.3,3.8-2c0.1-0.1,0.2-0.2,0.3-0.3c0-0.1-0.1-0.1-0.1-0.2C147.7,28.7,145.9,29.2,144.3,30.4z M147.2,63.1
			c0.4,1.6,2.7,4.2,3.7,4.4C149.8,66,148.5,64.6,147.2,63.1z M136.8,56.1c-0.1,0-0.1,0.1-0.2,0.1c0.7,1.7,1.7,3.3,2.9,4.8
			c0.1-0.3,0.1-0.4,0.1-0.4C138.7,59.1,137.7,57.6,136.8,56.1z M129.3,58.8c0.3,1.4,1.4,2.6,2.8,3.2
			C131.2,60.9,130.3,59.9,129.3,58.8z M153.1,62.9c0.1,0,0.2-0.1,0.3-0.1c-0.3-0.9-0.6-1.9-0.9-2.8c-0.2,0.1-0.4,0.2-0.6,0.3
			C152.3,61.2,152.7,62.1,153.1,62.9z M134.6,60.6c0.1,0,0.1-0.1,0.2-0.1c-0.6-1.3-1.2-2.6-1.8-3.9
			C133.2,58.1,133.8,59.4,134.6,60.6z M146.3,28.8c-1.3,0.1-2.6,0.8-3,1.5C144.3,29.7,145.3,29.3,146.3,28.8z M142.4,66.6
			c1,0.7,2,1.3,3.4,1C144.7,67.3,143.6,67,142.4,66.6z M157.9,62.3c-0.1-0.9-0.1-1.8-0.2-2.7C157.5,60.5,157.7,61.4,157.9,62.3z
			 M131.3,52.8c-0.2,0.8,0.1,1.6,0.6,2.3C131.7,54.3,131.5,53.6,131.3,52.8z M172.4,59.7c-0.1,0-0.1-0.1-0.2-0.1
			c-0.4,0.5-0.7,1-1.1,1.4C171.9,60.8,172,60.1,172.4,59.7z M150.6,62.9c0.1,0.6,0.3,1.1,0.9,1.4c-0.1-0.3-0.3-0.6-0.5-0.9
			C150.8,63.2,150.7,63.1,150.6,62.9z M164.3,38.9c0.2-0.8,0.2-0.8-0.2-1.5C164.2,38,164.3,38.5,164.3,38.9z M164,62.1
			c0.1,0,0.1,0.1,0.2,0.1c0.1-0.3,0.3-0.6,0.4-0.9c-0.1,0-0.1-0.1-0.2-0.1C164.3,61.6,164.1,61.8,164,62.1z M144.4,62.5
			c-0.1,0-0.1,0.1-0.2,0.1c0.2,0.2,0.4,0.5,0.6,0.7c0.1,0,0.1-0.1,0.2-0.1C144.8,62.9,144.6,62.7,144.4,62.5z M159.9,61.6
			C159.9,61.6,159.9,61.6,159.9,61.6c0,0.2,0,0.3,0,0.5c0,0,0,0,0,0C159.9,61.9,159.9,61.8,159.9,61.6z M133.3,61.7
			c-0.1,0.7,0.2,0.7,0.6,0.7C133.7,62.2,133.6,62,133.3,61.7z"/>
		<path d="M173.8,57.9c0.2-0.3,0.4-0.5,0.5-0.8c0.8-2.4,1.3-4.8,1.2-7.4c0-1.3-0.1-2.5-0.4-3.8c0-0.2,0-0.4,0.1-0.6
			c0.4,0.9,0.6,1.8,0.6,2.8c0,2,0.2,4-0.4,5.9c-0.4,1.5-0.9,3-1.4,4.5c-0.1,0.2-0.2,0.4-0.3,0.6c-0.1-0.2-0.2-0.3-0.2-0.5
			C173.7,58.4,173.8,58.2,173.8,57.9L173.8,57.9z"/>
		<path d="M158.1,31.3c-0.6,2.5-1.3,5-1.9,7.6c-0.1-0.7,1.6-8,2-8.9c0.4,0,0.5,0.2,0.4,0.5c0,0.9-0.1,1.8-0.2,2.7c0,0.7,0,1.3-0.1,2
			c0,0.5-0.1,0.9-0.2,1.4c-0.3,1.1-0.5,2.3-1,3.4c0.1-0.4,0.1-0.8,0.2-1.2c0.4-1.6,0.7-3.1,0.7-4.8c0-0.9,0.1-1.8,0.2-2.7
			C158.2,31.4,158.1,31.3,158.1,31.3z"/>
		<path d="M150.9,41.1c-0.5-0.7-0.2-1.5-0.1-2.2c0.6-2.7,1.9-5.2,3.4-7.6c1.4-2.1,2.6-4.4,3-7c0.1-0.7,0.2-1.4,0.3-2.1
			c0.4,2.4-0.5,4.5-1.5,6.5c-0.3,0.5-0.4,1.1-0.7,1.6c-0.3,0.6-0.8,1.1-1.2,1.6c-1.7,2.3-2.7,4.9-3.3,7.6
			C150.9,40.1,150.9,40.6,150.9,41.1z"/>
		<path d="M166.5,40.5c-0.2-1.5-0.3-2.8-0.4-4.1c-0.1-1-0.6-1.8-1.2-2.6c-0.4-0.6-0.8-1.2-1.2-1.8c-0.1-0.2-0.2-0.5-0.3-0.8
			c0.2,0,0.3,0,0.3,0c0.9,1.4,2,2.6,2.5,4.2C166.7,36.9,166.8,38.6,166.5,40.5z"/>
		<path d="M161.6,31.1c1.4,3.1,1.5,6.4,1.3,9.7c-0.1-1.6-0.1-3.3-0.4-4.9c-0.3-1.6-0.7-3.2-1.1-4.7
			C161.4,31.1,161.5,31.1,161.6,31.1z"/>
		<path d="M159.3,37.2c-0.5,0.6-0.3,1.3-0.5,2c-0.2,0.7-0.2,1.4-0.5,2c0.1-0.9,0.2-1.8,0.4-2.8c0.4-1.8,0.4-3.5,0.3-5.3
			c0-0.6-0.1-1.2,0.2-1.8c0.1,0,0.1,0,0.2,0c0,0.2,0,0.5,0,0.7c0,0.8-0.1,1.5,0.3,2.3c0.1,0.3,0.1,0.8,0,1.1
			C159.2,36,159.3,36.6,159.3,37.2C159.3,37.2,159.3,37.2,159.3,37.2z"/>
		<path d="M149.5,36.3c0.2-0.3,0.8-0.4,0.2-0.9c0,0,0-0.2,0-0.2c0.8-0.2,0.5-1.1,1-1.5c0.5-0.4,0.8-1,1.2-1.5c0.3-0.3,0.6-0.6,1-0.8
			c-1.1,1.2-2,2.5-2.6,4c-0.6,1.5-1.1,3-1.8,4.6c0.1-0.4,0.1-0.8,0.1-1.1c0.2-0.7,0.5-1.5,0.7-2.2C149.5,36.7,149.5,36.4,149.5,36.3
			C149.6,36.2,149.5,36.3,149.5,36.3z"/>
		<path d="M179.9,40.1c0.9,0.7,1.4,1.6,1.4,2.8c-0.6-0.9-1.1-1.8-1.6-2.6C179.7,40.3,179.8,40.2,179.9,40.1z"/>
		<path d="M161.2,27.2c0.3,0.9,0.6,1.8,1,2.8C161.5,29.6,161.4,29.2,161.2,27.2z"/>
		<path d="M162.8,25.3c-0.5-0.6-0.8-1.1-0.8-1.8C162.6,23.8,162.8,24.3,162.8,25.3z"/>
		<path d="M155.9,21.4c-0.2,0.6-0.4,1.2-0.6,1.8c-0.1,0-0.1,0-0.2-0.1c0.2-0.6,0.4-1.2,0.5-1.8C155.7,21.4,155.8,21.4,155.9,21.4z"
			/>
		<path d="M150.4,37.9c-0.2-0.6,0.3-1,0.5-1.7C151,36.9,151,37.1,150.4,37.9z"/>
		<path d="M159.4,24.5c0-0.5,0-1,0.1-1.7C159.7,23.5,159.7,23.5,159.4,24.5z"/>
		<path d="M157.7,40.8c-0.1,0.6-0.2,1.1-0.4,1.7c-0.1,0-0.1,0-0.2,0c0.1-0.6,0.1-1.1,0.2-1.7C157.4,40.7,157.5,40.8,157.7,40.8z"/>
		<path d="M167.6,40.7c-0.4-0.4-0.5-0.8-0.3-1.4C167.6,39.8,167.7,40.3,167.6,40.7z"/>
		<path d="M158.3,17.9c0.5,0.6,0,0.9-0.1,1.3C158.2,18.8,158.3,18.4,158.3,17.9z"/>
		<path d="M139.6,34.4c-1.3,1-1.7,2.6-2.8,3.8C136.7,37.1,138.3,35,139.6,34.4z"/>
		<path d="M133.7,48.6c0.1,0.8,0.2,1.5,0.4,2.2c0.1,0.7,0.3,1.3,0.5,2C133.9,52.4,133.6,51.2,133.7,48.6z"/>
		<path d="M129.4,43.6c-0.4-1.3,0.4-2.2,1.1-3.1c-0.1,0.3-0.2,0.6-0.3,0.8c-0.3,0.6-0.6,1.2-0.5,1.9
			C129.7,43.3,129.5,43.4,129.4,43.6z"/>
		<path d="M139.9,36.4c-0.1,0.3-0.3,0.7-0.4,1c-0.1,0-0.1-0.1-0.2-0.1C139.5,37,139.7,36.8,139.9,36.4
			C139.9,36.5,139.9,36.4,139.9,36.4z"/>
	</g>
</g>
</svg>
